<svg version="1.2" xmlns="http://www.w3.org/2000/svg" viewBox="0 0 724 642" width="1080" height="958">
	<title>2624667-ai</title>
	<defs>
		<clipPath clipPathUnits="userSpaceOnUse" id="cp1">
			<path d="m723.97 670.35h-1085.94v-678.7h1085.94z"/>
		</clipPath>
		<clipPath clipPathUnits="userSpaceOnUse" id="cp2">
			<path d="m723.97 670.35h-1085.94v-678.7h1085.94z"/>
		</clipPath>
		<linearGradient id="g1" x2="1" gradientUnits="userSpaceOnUse" gradientTransform="matrix(405.947,636.562,-1136.064,724.488,520.225,-39.064)">
			<stop offset="0" stop-color="#ff96b0" stop-opacity="1"/>
			<stop offset="1" stop-color="#ffffff" stop-opacity="0"/>
		</linearGradient>
		<linearGradient id="g2" x2="1" gradientUnits="userSpaceOnUse" gradientTransform="matrix(-262.432,-388.905,683.661,-461.331,408.854,812.835)">
			<stop offset="0" stop-color="#ff96b0" stop-opacity="1"/>
			<stop offset="1" stop-color="#ffffff" stop-opacity="0"/>
		</linearGradient>
		<radialGradient id="g3" cx="0" cy="0" r="1" gradientUnits="userSpaceOnUse" gradientTransform="matrix(19.587,25.572,-25.572,19.587,432.417,368.229)">
			<stop offset="0" stop-color="#4dd4d6"/>
			<stop offset="1" stop-color="#7045a1"/>
		</radialGradient>
		<linearGradient id="g4" x2="1" gradientUnits="userSpaceOnUse" gradientTransform="matrix(-34.506,55.908,-126.987,-78.376,463.859,359.566)">
			<stop offset="0" stop-color="#ffffff" stop-opacity="1"/>
			<stop offset="1" stop-color="#ffffff" stop-opacity="0"/>
		</linearGradient>
		<linearGradient id="g5" x2="1" gradientUnits="userSpaceOnUse" gradientTransform="matrix(-33.108,53.643,-121.806,-75.178,460.044,353.596)">
			<stop offset="0" stop-color="#ffffff" stop-opacity="1"/>
			<stop offset="1" stop-color="#ffffff" stop-opacity="0"/>
		</linearGradient>
		<linearGradient id="g6" x2="1" gradientUnits="userSpaceOnUse" gradientTransform="matrix(-35.256,57.124,-135.577,-83.677,462.749,362.724)">
			<stop offset="0" stop-color="#ffffff" stop-opacity="1"/>
			<stop offset="1" stop-color="#ffffff" stop-opacity="0"/>
		</linearGradient>
		<linearGradient id="g7" x2="1" gradientUnits="userSpaceOnUse" gradientTransform="matrix(-32.763,53.084,-192.642,-118.897,456.966,365.473)">
			<stop offset="0" stop-color="#ffffff" stop-opacity="1"/>
			<stop offset="1" stop-color="#ffffff" stop-opacity="0"/>
		</linearGradient>
		<linearGradient id="g8" x2="1" gradientUnits="userSpaceOnUse" gradientTransform="matrix(-28.951,21.145,-26.06,-35.681,473.025,365.43)">
			<stop offset="0" stop-color="#ffffff" stop-opacity="1"/>
			<stop offset="1" stop-color="#ffffff" stop-opacity="0"/>
		</linearGradient>
		<radialGradient id="g9" cx="0" cy="0" r="1" gradientUnits="userSpaceOnUse" gradientTransform="matrix(47.839,33.982,-33.982,47.839,543.542,434.284)">
			<stop offset="0" stop-color="#fbec5f"/>
			<stop offset=".568" stop-color="#ff295e"/>
			<stop offset="1" stop-color="#75017e"/>
		</radialGradient>
		<linearGradient id="g10" x2="1" gradientUnits="userSpaceOnUse" gradientTransform="matrix(-26.409,35.711,-45.337,-33.528,600.93,426.265)">
			<stop offset="0" stop-color="#ffffff" stop-opacity="1"/>
			<stop offset="1" stop-color="#ffffff" stop-opacity="0"/>
		</linearGradient>
		<radialGradient id="g11" cx="0" cy="0" r="1" gradientUnits="userSpaceOnUse" gradientTransform="matrix(22.869,15.758,-15.758,22.869,259.148,243.101)">
			<stop offset="0" stop-color="#fbec5f"/>
			<stop offset="1" stop-color="#00c1c5"/>
		</radialGradient>
		<linearGradient id="g12" x2="1" gradientUnits="userSpaceOnUse" gradientTransform="matrix(-10.045,25.917,-30.785,-11.932,282.049,241.278)">
			<stop offset="0" stop-color="#ffffff" stop-opacity="1"/>
			<stop offset="1" stop-color="#ffffff" stop-opacity="0"/>
		</linearGradient>
		<radialGradient id="g13" cx="0" cy="0" r="1" gradientUnits="userSpaceOnUse" gradientTransform="matrix(25.999,14.859,-14.859,25.999,362.315,464.056)">
			<stop offset=".235" stop-color="#00c1c5"/>
			<stop offset="1" stop-color="#7045a1"/>
		</radialGradient>
		<radialGradient id="g14" cx="0" cy="0" r="1" gradientUnits="userSpaceOnUse" gradientTransform="matrix(31.321,23.18,-23.18,31.321,376.777,281.014)">
			<stop offset="0" stop-color="#ff5a83"/>
			<stop offset="1" stop-color="#75017e"/>
		</radialGradient>
		<linearGradient id="g15" x2="1" gradientUnits="userSpaceOnUse" gradientTransform="matrix(-30.038,46.186,-56.34,-36.642,434.239,255.59)">
			<stop offset="0" stop-color="#ffffff" stop-opacity="1"/>
			<stop offset="1" stop-color="#ffffff" stop-opacity="0"/>
		</linearGradient>
		<clipPath clipPathUnits="userSpaceOnUse" id="cp3">
			<path d="m723.97 670.35h-1085.94v-678.7h1085.94z"/>
		</clipPath>
	</defs>
	<style>
		.s0 { fill: #2b1645 } 
		.s1 { opacity: .5;mix-blend-mode: overlay;fill: url(#g1) } 
		.s2 { opacity: .5;mix-blend-mode: overlay;fill: url(#g2) } 
		.s3 { fill: #fbec5f } 
		.s4 { fill: #00c1c5 } 
		.s5 { fill: #ffffff } 
		.s6 { fill: #33cdd1 } 
		.s7 { fill: #75017e } 
		.s8 { fill: #cec0df } 
		.s9 { fill: #007c9e } 
		.s10 { fill: #d5d0da } 
		.s11 { mix-blend-mode: multiply;fill: #eae8ec } 
		.s12 { mix-blend-mode: multiply;fill: #d5d0da } 
		.s13 { fill: #382450 } 
		.s14 { opacity: .5;mix-blend-mode: overlay;fill: #ffffff } 
		.s15 { fill: #dfdce3 } 
		.s16 { fill: #9575b9 } 
		.s17 { fill: #998fa6 } 
		.s18 { fill: #827691 } 
		.s19 { fill: #7045a1 } 
		.s20 { mix-blend-mode: multiply;fill: #dfdce3 } 
		.s21 { fill: #8561af } 
		.s22 { fill: url(#g3) } 
		.s23 { opacity: .8;mix-blend-mode: overlay;fill: url(#g4) } 
		.s24 { opacity: .8;mix-blend-mode: overlay;fill: url(#g5) } 
		.s25 { opacity: .8;mix-blend-mode: overlay;fill: url(#g6) } 
		.s26 { opacity: .8;mix-blend-mode: overlay;fill: url(#g7) } 
		.s27 { mix-blend-mode: overlay;fill: url(#g8) } 
		.s28 { mix-blend-mode: multiply;fill: #e1dee5 } 
		.s29 { fill: url(#g9) } 
		.s30 { opacity: .8;mix-blend-mode: overlay;fill: #fef9cc } 
		.s31 { opacity: .4;mix-blend-mode: overlay;fill: #fef9cc } 
		.s32 { mix-blend-mode: overlay;fill: #fef9cc } 
		.s33 { mix-blend-mode: overlay;fill: url(#g10) } 
		.s34 { fill: url(#g11) } 
		.s35 { mix-blend-mode: overlay;fill: url(#g12) } 
		.s36 { fill: url(#g13) } 
		.s37 { fill: #8fe4e5 } 
		.s38 { fill: url(#g14) } 
		.s39 { opacity: .5;mix-blend-mode: overlay;fill: #fbec5f } 
		.s40 { mix-blend-mode: multiply;fill: #b5adbe } 
		.s41 { mix-blend-mode: overlay;fill: url(#g15) } 
		.s42 { fill: #1d262d } 
	</style>
	<g id="BACKGROUND">
	</g>
	<g id="OBJECTS">
		<g id="&lt;Group&gt;">
			<g id="&lt;Group&gt;">
				<g id="&lt;Clip Group&gt;" clip-path="url(#cp1)">
				</g>
				<g id="&lt;Clip Group&gt;" clip-path="url(#cp2)">
					<g id="&lt;Group&gt;">
						<g id="&lt;Group&gt;">
							<g id="&lt;Group&gt;">
								<g id="&lt;Group&gt;">
									<path id="&lt;Path&gt;" class="s0" d="m1168.8 689.6c3.2-41.5-30.9-82.5-73.8-88.8-15.7-2.4-32.6-0.7-46.9-7.4-19.8-9.2-28.8-31.4-32.9-52.1-4.2-20.7-5.5-42.7-17-60.6-7.9-12.4-20.1-21.7-29.6-33-22.7-26.9-29.2-63-31.7-97.6-2-28.2-1.6-57.8 11.5-83.1 19.2-37 60.4-56.6 101.6-71 38.6-55.6 110-61.9 174.7-65.2 30.7-1.6 61.5-3 92.1-0.2 43.3 4 85.6 16.7 123.5 37.1 28.1 15.1 54.4 35.2 69.5 62.5 13.6 24.6 17 54.3 9.3 81.2-7.7 26.9-26.5 50.7-51.3 65.2-14.6 8.5-31 13.9-46.2 21.4-11.4 5.6-22.3 12.7-29.3 23-12.4 18.1-9.9 41.8-5 63 5 21.1 11.8 42.9 6.8 63.9-5 20.4-21.6 37.8-42.4 44.2-15 4.6-31.5 3.8-46.3 9.2-24.2 8.8-39.6 35.7-34.5 60z"/>
								</g>
								<path id="&lt;Path&gt;" class="s1" d="m543.8 249.3c-3.4 23.8-10.7 47.1-27.5 63.3-43 41.3-123.1 13.5-171.1-3.5-59.4-21.1-150.4-62.5-204.5-8.6-13.2 13.2-22.1 31.1-28.4 49.7-9.3 27.7-13.2 58.3-6.6 86.6 6.6 28.2 24.8 53.5 49.7 62.3 11.7 4.2 33.9 4.3 40.5-8.9 1.6-3 1.9-6.5 2.4-9.9 1.7-14 5-27.8 9.8-41.1 6.8-18.8 18.2-38 37.1-44.6 39.4-13.8 82.2 24.6 113.5 42.9 37.7 22 78.5 45.5 122.6 51.1 28.8 3.7 67.7-2.5 84.5-28.7 30.3-47.3 20.6-113.6 27-167.1 4.9-41.6 16.5-85.3 43.3-118.6 18.1-22.5 44.7-51.1 25.9-81.7-17.3-28.4-62-46.7-93.9-50.1-17.7-2-31.3 5.3-28.8 26.5 5.4 44.6 9.4 89.5 7.8 134.5-0.5 14.3-1.1 30.2-3.3 45.9z"/>
								<path id="&lt;Path&gt;" class="s2" d="m543.8 249.3c-3.4 23.8-10.7 47.1-27.5 63.3-43 41.3-123.1 13.5-171.1-3.5-59.4-21.1-150.4-62.5-204.5-8.6-13.2 13.2-22.1 31.1-28.4 49.7-9.3 27.7-13.2 58.3-6.6 86.6 6.6 28.2 24.8 53.5 49.7 62.3 11.7 4.2 33.9 4.3 40.5-8.9 1.6-3 1.9-6.5 2.4-9.9 1.7-14 5-27.8 9.8-41.1 6.8-18.8 18.2-38 37.1-44.6 39.4-13.8 82.2 24.6 113.5 42.9 37.7 22 78.5 45.5 122.6 51.1 28.8 3.7 67.7-2.5 84.5-28.7 30.3-47.3 20.6-113.6 27-167.1 4.9-41.6 16.5-85.3 43.3-118.6 18.1-22.5 44.7-51.1 25.9-81.7-17.3-28.4-62-46.7-93.9-50.1-17.7-2-31.3 5.3-28.8 26.5 5.4 44.6 9.4 89.5 7.8 134.5-0.5 14.3-1.1 30.2-3.3 45.9z"/>
								<g id="&lt;Group&gt;">
									<g id="&lt;Group&gt;">
										<path id="&lt;Path&gt;" class="s3" d="m242.5 306.4c-1.9 0-1.9-2.8 0-2.8 1.8 0 1.8 2.8 0 2.8z"/>
									</g>
								</g>
								<g id="&lt;Group&gt;">
									<g id="&lt;Group&gt;">
										<path id="&lt;Path&gt;" class="s3" d="m242.5 226.4c-1.6 0-1.6-2.5 0-2.5 1.5 0 1.5 2.5 0 2.5z"/>
									</g>
								</g>
								<g id="&lt;Group&gt;">
									<g id="&lt;Group&gt;">
										<path id="&lt;Path&gt;" class="s3" d="m461.3 319c-1.5 0-1.5-2.3 0-2.3 1.5 0 1.5 2.3 0 2.3z"/>
									</g>
								</g>
								<g id="&lt;Group&gt;">
									<g id="&lt;Group&gt;">
										<path id="&lt;Path&gt;" class="s3" d="m445.6 357.3c-1.2 0-1.2-1.9 0-1.9 1.2 0 1.2 1.9 0 1.9z"/>
									</g>
								</g>
								<g id="&lt;Group&gt;">
									<g id="&lt;Group&gt;">
										<path id="&lt;Path&gt;" class="s3" d="m373.6 417c-2 0-2-3.1 0-3.1 2 0 2 3.1 0 3.1z"/>
									</g>
								</g>
								<g id="&lt;Group&gt;">
									<g id="&lt;Group&gt;">
										<path id="&lt;Path&gt;" class="s3" d="m288.1 463.1c-1.7 0-1.7-2.6 0-2.6 1.7 0 1.7 2.6 0 2.6z"/>
									</g>
								</g>
								<g id="&lt;Group&gt;">
									<g id="&lt;Group&gt;">
										<path id="&lt;Path&gt;" class="s3" d="m617.4 303.4c-1.6 0-1.6-2.5 0-2.5 1.6 0 1.6 2.5 0 2.5z"/>
									</g>
								</g>
								<g id="&lt;Group&gt;">
									<g id="&lt;Group&gt;">
										<path id="&lt;Path&gt;" class="s3" d="m690.1 253.6c-0.8 0-0.8-1.3 0-1.3 0.8 0 0.8 1.3 0 1.3z"/>
									</g>
								</g>
								<g id="&lt;Group&gt;">
									<g id="&lt;Group&gt;">
										<path id="&lt;Path&gt;" class="s3" d="m541.8 232.6c-2.2 0-2.2-3.5 0-3.5 2.3 0 2.3 3.5 0 3.5z"/>
									</g>
								</g>
								<g id="&lt;Group&gt;">
									<g id="&lt;Group&gt;">
										<path id="&lt;Path&gt;" class="s3" d="m511.9 295.7c-0.8 0-0.8-1.3 0-1.3 0.8 0 0.8 1.3 0 1.3z"/>
									</g>
								</g>
								<g id="&lt;Group&gt;">
									<g id="&lt;Group&gt;">
										<path id="&lt;Path&gt;" class="s3" d="m553.3 379.2c-1.9 0-1.9-2.9 0-2.9 1.8 0 1.8 2.9 0 2.9z"/>
									</g>
								</g>
								<g id="&lt;Group&gt;">
									<g id="&lt;Group&gt;">
										<path id="&lt;Path&gt;" class="s3" d="m520.5 437c-2.1 0-2.1-3.1 0-3.1 2 0 2 3.1 0 3.1z"/>
									</g>
								</g>
								<g id="&lt;Group&gt;">
									<g id="&lt;Group&gt;">
										<path id="&lt;Path&gt;" class="s4" d="m430.3 278.1c-1.6 0-1.6-2.5 0-2.5 1.6 0 1.6 2.5 0 2.5z"/>
									</g>
								</g>
								<g id="&lt;Group&gt;">
									<g id="&lt;Group&gt;">
										<path id="&lt;Path&gt;" class="s4" d="m334 335.7q0 0.4-0.1 0.8c0 0.4-0.2 0.8-0.7 0.9-0.1 0-0.3 0-0.5 0-0.4-0.1-0.6-0.5-0.7-0.9q0-0.4 0-0.8c-0.2-1.4 2.1-1.4 2 0z"/>
									</g>
								</g>
								<g id="&lt;Group&gt;">
									<g id="&lt;Group&gt;">
										<path id="&lt;Path&gt;" class="s4" d="m465.6 411.6c-1.4 0-1.4-2.2 0-2.2 1.3 0 1.3 2.2 0 2.2z"/>
									</g>
								</g>
								<g id="&lt;Group&gt;">
									<g id="&lt;Group&gt;">
										<path id="&lt;Path&gt;" class="s4" d="m394.9 432.2c-0.1 0.4-0.2 0.7-0.4 1.1-0.2 0.4-0.9 0.4-1.1 0-0.2-0.4-0.4-0.7-0.5-1.1-0.4-1.7 2.5-1.7 2 0z"/>
									</g>
								</g>
								<g id="&lt;Group&gt;">
									<g id="&lt;Group&gt;">
										<path id="&lt;Path&gt;" class="s4" d="m280.6 298.6c-1.8 0-1.8-2.8 0-2.8 1.8 0 1.8 2.8 0 2.8z"/>
									</g>
								</g>
								<g id="&lt;Group&gt;">
									<g id="&lt;Group&gt;">
										<path id="&lt;Path&gt;" class="s4" d="m680.5 251.1c-1.2 0-1.2-1.9 0-1.9 1.2 0 1.2 1.9 0 1.9z"/>
									</g>
								</g>
								<g id="&lt;Group&gt;">
									<g id="&lt;Group&gt;">
										<path id="&lt;Path&gt;" class="s4" d="m604.6 215.8c-1.3 0-1.3-1.9 0-1.9 1.2 0 1.2 1.9 0 1.9z"/>
									</g>
								</g>
								<g id="&lt;Group&gt;">
									<g id="&lt;Group&gt;">
										<path id="&lt;Path&gt;" class="s4" d="m495.5 284.3c-1.3 0-1.3-2.1 0-2.1 1.3 0 1.3 2.1 0 2.1z"/>
									</g>
								</g>
								<g id="&lt;Group&gt;">
									<g id="&lt;Group&gt;">
										<path id="&lt;Path&gt;" class="s4" d="m475.8 463.5c-0.8 0.8-1.5 1.8-2.6 2.1-0.5 0.1-0.9-0.3-0.8-0.8 0.3-1.1 1.3-1.8 2.1-2.6 0.8-0.9 2.2 0.5 1.3 1.3z"/>
									</g>
								</g>
								<g id="&lt;Group&gt;">
									<g id="&lt;Group&gt;">
										<path id="&lt;Path&gt;" class="s4" d="m331.9 503.8c-1.7 0-1.7-2.7 0-2.7 1.7 0 1.7 2.7 0 2.7z"/>
									</g>
								</g>
								<g id="&lt;Group&gt;">
									<g id="&lt;Group&gt;">
										<path id="&lt;Path&gt;" class="s4" d="m197.2 287.5c-1.3 0-1.3-2.1 0-2.1 1.3 0 1.3 2.1 0 2.1z"/>
									</g>
								</g>
								<g id="&lt;Group&gt;">
									<path id="&lt;Path&gt;" class="s5" d="m357.6 346.7c7.4 1 8.2 1.8 9.2 9.2 1-7.4 1.8-8.2 9.2-9.2-7.4-1-8.2-1.8-9.2-9.2-1 7.4-1.8 8.2-9.2 9.2z"/>
								</g>
								<g id="&lt;Group&gt;">
									<path id="&lt;Path&gt;" class="s5" d="m497.7 248c6 0.8 6.6 1.5 7.4 7.5 0.9-6 1.5-6.7 7.5-7.5-6-0.8-6.6-1.5-7.5-7.5-0.8 6-1.4 6.7-7.4 7.5z"/>
								</g>
								<g id="&lt;Group&gt;">
									<path id="&lt;Path&gt;" class="s5" d="m589.6 358.1c6 0.8 6.7 1.5 7.5 7.5 0.8-6 1.5-6.7 7.5-7.5-6-0.8-6.7-1.5-7.5-7.5-0.8 6-1.5 6.7-7.5 7.5z"/>
								</g>
								<g id="&lt;Group&gt;">
									<path id="&lt;Path&gt;" class="s5" d="m690.5 217c4.8 0.6 5.4 1.2 6 6 0.7-4.8 1.2-5.4 6.1-6-4.9-0.7-5.4-1.2-6.1-6.1-0.6 4.9-1.2 5.4-6 6.1z"/>
								</g>
								<g id="&lt;Group&gt;">
									<path id="&lt;Path&gt;" class="s5" d="m200.8 320.7c4.8 0.6 5.4 1.2 6 6 0.7-4.8 1.2-5.4 6.1-6-4.9-0.7-5.4-1.2-6.1-6-0.6 4.8-1.2 5.3-6 6z"/>
								</g>
								<g id="&lt;Group&gt;">
									<path id="&lt;Path&gt;" class="s5" d="m418.9 454.3c4.9 0.7 5.4 1.2 6 6.1 0.7-4.9 1.2-5.4 6.1-6.1-4.9-0.6-5.4-1.2-6.1-6-0.6 4.8-1.1 5.4-6 6z"/>
								</g>
								<g id="&lt;Group&gt;">
									<path id="&lt;Path&gt;" class="s5" d="m219 237.3c4.8 0.6 5.3 1.2 6 6 0.7-4.8 1.2-5.4 6-6-4.8-0.7-5.3-1.2-6-6-0.7 4.8-1.2 5.3-6 6z"/>
								</g>
							</g>
							<g id="&lt;Group&gt;">
								<g id="&lt;Group&gt;">
									<path id="&lt;Path&gt;" class="s6" d="m566.4 293.8q0.1 0 0.2-0.1 0.9-0.7 1.7-1.3c0.2-0.2 0.2-0.4 0.1-0.6-0.1-0.2-0.4-0.3-0.6-0.1q-0.9 0.6-1.7 1.3c-0.2 0.2-0.2 0.4-0.1 0.6q0.2 0.2 0.4 0.2z"/>
								</g>
								<g id="&lt;Group&gt;">
									<path id="&lt;Compound Path&gt;" class="s6" d="m381.5 551.2q0.1 0 0.2 0c0.2-0.1 0.3-0.4 0.2-0.6q-1-1.9-1.8-3.9c-0.1-0.2-0.3-0.3-0.5-0.2-0.3 0.1-0.4 0.3-0.3 0.6q0.8 2 1.8 3.9c0.1 0.2 0.3 0.2 0.4 0.2zm-3.5-8.7q0.1 0 0.1 0c0.3-0.1 0.4-0.4 0.3-0.6q-0.6-2-1-4.1c-0.1-0.2-0.3-0.4-0.5-0.3-0.2 0-0.4 0.2-0.3 0.5q0.4 2.1 1 4.2c0.1 0.2 0.2 0.3 0.4 0.3zm-1.8-9.3q0 0 0 0c0.3 0 0.4-0.2 0.4-0.5q-0.2-1.6-0.2-3.2 0-0.5 0-1c-0.1-0.2-0.2-0.4-0.5-0.4q0 0 0 0c-0.2 0-0.4 0.2-0.4 0.4q0 0.5 0 1 0.1 1.7 0.3 3.3c0 0.3 0.2 0.4 0.4 0.4zm-0.1-9.4c0.2 0 0.4-0.2 0.4-0.4q0.2-2.1 0.6-4.2c0.1-0.2-0.1-0.5-0.3-0.5-0.3 0-0.5 0.1-0.5 0.3q-0.4 2.2-0.6 4.3c0 0.3 0.1 0.5 0.4 0.5q0 0 0 0zm1.8-9.2c0.2-0.1 0.4-0.2 0.4-0.4q0.7-2 1.5-3.9c0.1-0.3 0-0.5-0.2-0.6-0.3-0.1-0.5 0-0.6 0.2q-0.8 2-1.5 4.1c-0.1 0.2 0.1 0.5 0.3 0.5q0.1 0.1 0.1 0.1zm121.7-9.2c0.2 0 0.4-0.2 0.4-0.5 0-0.2-0.2-0.4-0.4-0.4q-2.2 0.1-4.3 0c-0.2 0-0.4 0.2-0.4 0.4-0.1 0.3 0.1 0.5 0.4 0.5q2.1 0.1 4.3 0 0 0 0 0zm5.1-0.4q0 0 0.1 0 2.1-0.3 4.2-0.7c0.3 0 0.4-0.3 0.4-0.5-0.1-0.2-0.3-0.4-0.5-0.3q-2.1 0.4-4.2 0.6c-0.3 0.1-0.5 0.3-0.4 0.5 0 0.2 0.2 0.4 0.4 0.4zm-14.5-0.1c0.2 0 0.4-0.1 0.4-0.3 0-0.3-0.2-0.5-0.4-0.5q-2.1-0.3-4.2-0.7c-0.2-0.1-0.5 0.1-0.5 0.3 0 0.3 0.1 0.5 0.3 0.5q2.2 0.5 4.3 0.7 0 0 0.1 0zm23.8-1.8q0 0 0.1 0 2-0.6 4.1-1.4c0.2-0.1 0.3-0.3 0.2-0.6-0.1-0.2-0.3-0.3-0.5-0.2q-2 0.7-4.1 1.3c-0.2 0.1-0.3 0.3-0.3 0.6 0.1 0.2 0.3 0.3 0.5 0.3zm-33.1-0.1c0.2 0 0.4-0.1 0.4-0.3 0.1-0.2 0-0.5-0.3-0.5q-2-0.6-4-1.3c-0.2-0.1-0.5 0-0.6 0.2 0 0.2 0.1 0.5 0.3 0.6q2 0.7 4.1 1.3 0.1 0 0.1 0zm-99.2 2.9q0.2 0 0.4-0.2l0.1-0.2c0.6-1.1 1.4-2.2 2.2-3.4 0.1-0.2 0.1-0.4-0.1-0.6-0.2-0.1-0.5-0.1-0.6 0.1-0.9 1.2-1.6 2.4-2.3 3.5l-0.1 0.2c-0.1 0.2 0 0.4 0.2 0.6q0.1 0 0.2 0zm141.1-6.2q0.1 0 0.1 0 1.1-0.6 2.2-1.1 0.8-0.5 1.7-0.9c0.2-0.2 0.2-0.4 0.1-0.6-0.1-0.2-0.4-0.3-0.6-0.2q-0.8 0.5-1.6 0.9-1.1 0.6-2.1 1.1c-0.3 0.1-0.3 0.3-0.2 0.6 0 0.1 0.2 0.2 0.4 0.2zm-50.7 0c0.2 0 0.3-0.1 0.4-0.2 0.1-0.2 0-0.5-0.2-0.6q-2-0.9-3.9-1.9c-0.2-0.1-0.4 0-0.5 0.2-0.2 0.2-0.1 0.5 0.1 0.6q1.9 1 3.9 1.9 0.1 0 0.2 0zm58.8-4.7q0.1 0 0.2-0.1 1.8-1.3 3.5-2.7c0.1-0.1 0.2-0.4 0-0.6-0.1-0.2-0.4-0.2-0.6 0q-1.6 1.3-3.4 2.6c-0.1 0.1-0.2 0.4-0.1 0.6q0.2 0.2 0.4 0.2zm-143.8 3.2q0.2 0 0.3-0.2 1.1-1.4 2.2-2.7l0.5-0.6c0.1-0.2 0.1-0.5-0.1-0.6-0.2-0.2-0.4-0.2-0.6 0l-0.5 0.7q-1.1 1.3-2.1 2.7c-0.2 0.2-0.2 0.4 0 0.6q0.2 0.1 0.3 0.1zm76.7-3q0.2 0 0.4-0.2c0.1-0.2 0-0.5-0.2-0.6q-1.8-1.1-3.5-2.4c-0.2-0.1-0.4-0.1-0.6 0.1-0.1 0.2-0.1 0.5 0.1 0.6q1.8 1.3 3.6 2.4 0.1 0.1 0.2 0.1zm74.2-6.5q0.2 0 0.3-0.1 1.5-1.6 2.7-3.4c0.2-0.1 0.1-0.4-0.1-0.6-0.2-0.1-0.4-0.1-0.6 0.1q-1.2 1.7-2.6 3.3c-0.2 0.2-0.2 0.5 0 0.6q0.1 0.1 0.3 0.1zm-81.7 0.9q0.1 0 0.3-0.2c0.1-0.1 0.1-0.4-0.1-0.6q-1.6-1.4-3.1-2.8c-0.2-0.2-0.5-0.2-0.6 0-0.2 0.1-0.2 0.4 0 0.6q1.5 1.5 3.2 2.9 0.1 0.1 0.3 0.1zm-63.4 1.2q0.2-0.1 0.4-0.2c0.9-1.3 1.7-2.4 2.4-3.6 0.2-0.2 0.1-0.4-0.1-0.5-0.2-0.2-0.5-0.1-0.6 0.1-0.7 1.1-1.5 2.2-2.4 3.5-0.2 0.2-0.1 0.4 0.1 0.6q0.1 0.1 0.2 0.1zm150.5-9.7q0.3 0 0.4-0.3 1-1.9 1.8-3.9c0.1-0.2 0-0.5-0.2-0.6-0.2 0-0.5 0.1-0.6 0.3q-0.8 2-1.8 3.8c-0.1 0.2 0 0.5 0.2 0.6q0.1 0.1 0.2 0.1zm-93.9 1.9q0.2 0 0.3-0.1c0.2-0.2 0.2-0.5 0-0.6q-1.4-1.6-2.7-3.3c-0.2-0.2-0.4-0.2-0.6-0.1-0.2 0.2-0.2 0.4-0.1 0.6q1.3 1.7 2.8 3.3 0.1 0.2 0.3 0.2zm-51.6-0.2c0.2 0 0.3-0.1 0.4-0.3q1-2 1.7-4c0-0.2-0.1-0.5-0.3-0.5-0.2-0.1-0.5 0-0.5 0.2q-0.7 2-1.7 4c-0.1 0.2 0 0.4 0.2 0.5q0.1 0.1 0.2 0.1zm148.9-10.5c0.2 0 0.4-0.2 0.4-0.4q0.5-2.1 0.8-4.2c0-0.3-0.2-0.5-0.4-0.5-0.2 0-0.4 0.1-0.5 0.4q-0.2 2.1-0.7 4.1c-0.1 0.3 0 0.5 0.3 0.6q0 0 0.1 0zm-103.1 3.2q0.2 0 0.3 0c0.2-0.2 0.2-0.4 0.1-0.6q-1.2-1.8-2.3-3.7c-0.1-0.2-0.4-0.2-0.6-0.1-0.2 0.1-0.3 0.4-0.1 0.6q1.1 1.8 2.3 3.6 0.1 0.2 0.3 0.2zm-42.9-1.7c0.2 0 0.4-0.1 0.4-0.3q0.4-2.2 0.4-4.4c0-0.2-0.1-0.4-0.4-0.4-0.2 0-0.4 0.2-0.4 0.4q-0.1 2.1-0.4 4.2c-0.1 0.3 0.1 0.5 0.3 0.5q0.1 0 0.1 0zm38.2-6.4q0.1 0 0.2-0.1c0.2-0.1 0.3-0.3 0.2-0.6q-0.7-1.4-1.3-2.8-0.2-0.5-0.5-1c-0.1-0.3-0.3-0.4-0.5-0.3-0.3 0.1-0.4 0.4-0.3 0.6q0.3 0.5 0.5 1 0.6 1.5 1.3 2.9c0.1 0.2 0.3 0.3 0.4 0.3zm108.9-4.5c0.2 0 0.4-0.2 0.4-0.4q0-0.9 0-1.7-0.1-1.3-0.2-2.6c0-0.3-0.2-0.4-0.5-0.4-0.2 0-0.4 0.2-0.4 0.4q0.2 1.3 0.2 2.6 0.1 0.9 0.1 1.7c0 0.2 0.1 0.4 0.4 0.4q0 0 0 0zm-146.9 1.5q0 0 0.1 0c0.2 0 0.4-0.2 0.3-0.5q-0.2-2.1-0.7-4.2c0-0.3-0.3-0.4-0.5-0.4-0.2 0.1-0.4 0.3-0.3 0.5q0.5 2.1 0.7 4.2c0 0.3 0.2 0.4 0.4 0.4zm34.4-5.7q0-0.1 0.1-0.1c0.2-0.1 0.4-0.3 0.3-0.5q-0.8-2-1.4-4.1c-0.1-0.2-0.3-0.3-0.5-0.3-0.3 0.1-0.4 0.4-0.3 0.6q0.6 2 1.4 4.1c0 0.1 0.2 0.3 0.4 0.3zm111.5-5.2q0 0 0.1 0c0.2 0 0.4-0.2 0.3-0.5q-0.4-2.1-1.1-4.2c0-0.2-0.3-0.3-0.5-0.3-0.2 0.1-0.4 0.4-0.3 0.6q0.6 2 1.1 4.1c0 0.2 0.2 0.4 0.4 0.3zm-148 1.7q0 0 0.1 0c0.2-0.1 0.3-0.3 0.2-0.5q-0.7-2-1.7-4c-0.1-0.2-0.3-0.3-0.5-0.2-0.2 0.1-0.3 0.3-0.2 0.6q0.9 1.9 1.6 3.9c0.1 0.1 0.3 0.3 0.5 0.2zm33.7-5.6q0 0 0.1 0c0.2 0 0.4-0.3 0.3-0.5q-0.5-2.1-1-4.2c0-0.2-0.3-0.3-0.5-0.3-0.2 0.1-0.4 0.3-0.3 0.5q0.4 2.1 1 4.2c0 0.2 0.2 0.3 0.4 0.3zm111.5-5.1q0.1 0 0.2 0c0.2-0.1 0.3-0.3 0.2-0.6q-0.8-1.9-1.8-3.9c-0.1-0.2-0.4-0.3-0.6-0.2-0.2 0.1-0.3 0.4-0.2 0.6q1 1.9 1.8 3.9c0.1 0.1 0.2 0.2 0.4 0.2zm-149.4 2.3q0.1 0 0.2-0.1c0.2-0.1 0.2-0.3 0.1-0.5q-1.2-1.9-2.5-3.6c-0.1-0.2-0.4-0.2-0.6-0.1-0.2 0.2-0.2 0.5-0.1 0.6q1.3 1.7 2.5 3.5 0.1 0.2 0.4 0.2zm35.9-6.4q0 0 0.1 0c0.2 0 0.4-0.3 0.3-0.5q-0.4-2.1-0.7-4.2c0-0.3-0.2-0.4-0.4-0.4-0.3 0-0.4 0.3-0.4 0.5q0.3 2.2 0.7 4.2c0 0.3 0.2 0.4 0.4 0.4zm109.2-4.3q0.1 0 0.2 0c0.2-0.2 0.3-0.4 0.2-0.6q-1.1-1.9-2.4-3.6c-0.1-0.2-0.4-0.3-0.6-0.1-0.2 0.1-0.2 0.4-0.1 0.6q1.2 1.7 2.4 3.5c0 0.2 0.2 0.2 0.3 0.2zm-151 3.3q0.2 0 0.3-0.1c0.2-0.2 0.2-0.5 0-0.6q-1.4-1.6-3-3.1c-0.1-0.2-0.4-0.2-0.6 0-0.1 0.1-0.1 0.4 0 0.6q1.6 1.5 3 3 0.1 0.2 0.3 0.2zm145.5-10.9q0.1 0 0.2-0.1c0.2-0.2 0.2-0.4 0.1-0.6q-1.4-1.7-2.9-3.2c-0.2-0.2-0.5-0.2-0.6 0-0.2 0.1-0.2 0.4 0 0.6q1.5 1.5 2.8 3.1 0.2 0.2 0.4 0.2zm-105 2.6q0 0 0 0c0.3-0.1 0.4-0.3 0.4-0.5q-0.2-2.1-0.4-4.3c0-0.2-0.2-0.4-0.5-0.4-0.2 0-0.4 0.3-0.4 0.5q0.2 2.2 0.4 4.3c0.1 0.2 0.3 0.4 0.5 0.4zm-47.2 1.7q0.2 0 0.3-0.1c0.1-0.2 0.1-0.5-0.1-0.6q-1.6-1.4-3.3-2.8c-0.2-0.1-0.4-0.1-0.6 0.1-0.1 0.2-0.1 0.4 0.1 0.6q1.7 1.3 3.3 2.7 0.1 0.1 0.3 0.1zm145.6-11q0.1 0 0.3-0.2c0.1-0.1 0.1-0.4-0.1-0.6q-1.2-1-2.5-2-0.4-0.4-0.8-0.7c-0.2-0.1-0.5-0.1-0.6 0.1-0.2 0.2-0.1 0.4 0.1 0.6q0.4 0.3 0.8 0.6 1.3 1 2.5 2.1 0.1 0.1 0.3 0.1zm-153 5.2q0.2 0 0.3-0.2c0.1-0.2 0.1-0.5-0.1-0.6q-1.7-1.2-3.6-2.4c-0.2-0.2-0.4-0.1-0.6 0.1-0.1 0.2 0 0.4 0.2 0.6q1.8 1.2 3.5 2.4 0.1 0.1 0.3 0.1zm53.9-5.4q0 0 0 0c0.2 0 0.4-0.2 0.4-0.4q-0.1-1.5-0.2-2.9 0-0.7 0-1.4c0-0.2-0.2-0.4-0.5-0.4q0 0 0 0c-0.2 0-0.4 0.2-0.4 0.4q0 0.7 0.1 1.4 0 1.5 0.1 2.9c0 0.3 0.2 0.5 0.5 0.4zm91.5-5.5q0.2 0 0.4-0.2c0.1-0.2 0-0.4-0.2-0.6-1.1-0.7-2.3-1.5-3.6-2.3-0.2-0.1-0.5 0-0.6 0.2-0.1 0.2-0.1 0.5 0.1 0.6 1.3 0.8 2.5 1.5 3.7 2.2q0.1 0.1 0.2 0.1zm-153.3 5.7q0.2 0 0.3-0.2c0.1-0.2 0.1-0.5-0.1-0.6q-1.8-1.1-3.7-2.2c-0.2-0.1-0.5-0.1-0.6 0.1-0.1 0.3-0.1 0.5 0.1 0.6q1.9 1.1 3.7 2.2 0.1 0.1 0.3 0.1zm145.2-10.5q0.2 0 0.4-0.2c0.1-0.2 0-0.5-0.2-0.6-1.1-0.7-2.4-1.3-3.8-2.1-0.2-0.1-0.5 0-0.6 0.2-0.1 0.2 0 0.5 0.2 0.6 1.4 0.7 2.6 1.4 3.8 2q0.1 0.1 0.2 0.1zm-153.4 5.8q0.2 0 0.3-0.2c0.1-0.2 0.1-0.5-0.1-0.6q-1.9-1-3.9-2c-0.2-0.1-0.4 0-0.5 0.2-0.1 0.2-0.1 0.4 0.2 0.5q1.9 1.1 3.7 2 0.2 0.1 0.3 0.1zm69.7-4.9c0.2 0 0.4-0.2 0.4-0.4q0-2.1 0-4.3c0-0.2-0.2-0.4-0.5-0.4-0.2 0-0.4 0.2-0.4 0.4q0 2.2 0 4.3c0 0.2 0.2 0.4 0.4 0.4q0.1 0 0.1 0zm-78.1 0.6c0.1 0 0.3-0.1 0.3-0.3 0.1-0.2 0-0.4-0.2-0.5q-1.9-1-3.8-1.9c-0.3-0.1-0.5 0-0.6 0.2-0.1 0.2 0 0.5 0.2 0.6q1.9 0.9 3.9 1.8 0.1 0.1 0.2 0.1zm153.5-6q0.2 0 0.3-0.2c0.1-0.2 0.1-0.5-0.2-0.6q-1.8-1-3.7-2c-0.3-0.1-0.5 0-0.6 0.2-0.1 0.2-0.1 0.4 0.1 0.6q2 1 3.8 2 0.2 0 0.3 0zm-162.1 1.9c0.2 0 0.3-0.1 0.4-0.2 0.1-0.2 0-0.5-0.2-0.6q-2-0.9-3.9-1.8c-0.2-0.1-0.5 0-0.6 0.2-0.1 0.2 0 0.5 0.2 0.6q2 0.9 3.9 1.8 0.1 0 0.2 0zm153.7-6.4q0.3 0 0.4-0.2c0.1-0.2 0-0.4-0.2-0.6-1.3-0.7-2.5-1.4-3.7-2.1-0.2-0.1-0.5 0-0.6 0.2-0.1 0.2 0 0.4 0.2 0.6 1.1 0.6 2.4 1.3 3.7 2.1q0.1 0 0.2 0zm-67 0.5c0.2 0 0.4-0.2 0.4-0.5q0-2.1 0.1-4.2c0-0.3-0.2-0.5-0.4-0.5-0.3 0-0.5 0.2-0.5 0.4q0 2.2-0.1 4.3c0 0.3 0.2 0.5 0.5 0.5q0 0 0 0zm-95.2 2c0.1 0 0.3-0.1 0.3-0.3 0.1-0.2 0-0.4-0.2-0.5q-1.9-0.9-3.9-1.8c-0.2-0.1-0.4 0-0.5 0.2-0.1 0.2-0.1 0.5 0.2 0.6q1.9 0.9 3.9 1.7 0.1 0.1 0.2 0.1zm154.1-7.3q0.2 0 0.4-0.2c0.1-0.2 0-0.4-0.2-0.6q-1.9-1.1-3.5-2.3c-0.2-0.2-0.5-0.1-0.6 0.1-0.2 0.2-0.1 0.4 0.1 0.6q1.7 1.2 3.6 2.4 0.1 0 0.2 0zm-162.7 3.3c0.1 0 0.3-0.1 0.4-0.2 0.1-0.2 0-0.5-0.2-0.6q-2-0.9-3.9-1.8c-0.2-0.1-0.5 0-0.6 0.2-0.1 0.2 0 0.4 0.2 0.6q1.9 0.9 3.9 1.8 0.1 0 0.2 0zm155-8.7q0.2 0 0.3-0.2c0.2-0.2 0.2-0.5 0-0.6q-1.7-1.4-3.2-2.8c-0.2-0.2-0.5-0.2-0.6 0-0.2 0.2-0.2 0.5 0 0.6q1.5 1.5 3.2 2.9 0.2 0.1 0.3 0.1zm-51 1.2c0.2 0 0.4-0.2 0.4-0.4q0.1-2.1 0.2-4.3c0-0.2-0.2-0.4-0.4-0.4-0.3 0-0.5 0.2-0.5 0.4q-0.1 2.1-0.1 4.3c0 0.2 0.2 0.4 0.4 0.4q0 0 0 0zm-112.5 3.4c0.1 0 0.3-0.1 0.4-0.2 0.1-0.2 0-0.5-0.2-0.6q-2-1-3.8-2c-0.3-0.1-0.5 0-0.6 0.2-0.1 0.2-0.1 0.5 0.2 0.6q1.8 1 3.8 2 0.1 0 0.2 0zm-8.4-4.4q0.3 0 0.4-0.2c0.1-0.2 0-0.5-0.2-0.6q-1.9-1-3.7-2.1c-0.2-0.1-0.5 0-0.6 0.2-0.1 0.2 0 0.4 0.2 0.6q1.8 1 3.7 2.1 0.1 0 0.2 0zm165.1-6.8q0.2 0 0.3-0.1c0.2-0.1 0.2-0.4 0-0.6q-1.4-1.6-2.5-3.3c-0.2-0.2-0.4-0.3-0.6-0.2-0.2 0.2-0.3 0.4-0.2 0.6q1.2 1.8 2.7 3.5 0.1 0.1 0.3 0.1zm-43.9-1.6c0.3 0 0.4-0.2 0.5-0.4q0-2.2 0.1-4.3c0-0.2-0.2-0.4-0.4-0.5-0.3 0-0.5 0.2-0.5 0.5q0 2.1-0.1 4.3c0 0.2 0.2 0.4 0.4 0.4q0 0 0 0zm-129.4 3.7q0.3 0 0.4-0.2c0.1-0.2 0.1-0.5-0.1-0.6q-1.9-1.1-3.7-2.2c-0.2-0.1-0.5-0.1-0.6 0.1-0.1 0.2-0.1 0.5 0.1 0.6q1.8 1.1 3.7 2.3 0.1 0 0.2 0zm168.2-9.9q0 0 0.1-0.1c0.2-0.1 0.3-0.3 0.2-0.5q-0.9-2-1.5-4c-0.1-0.2-0.3-0.3-0.6-0.2-0.2 0-0.3 0.3-0.2 0.5q0.6 2.1 1.6 4c0 0.2 0.2 0.3 0.4 0.3zm-176.1 4.9q0.2 0 0.3-0.2c0.1-0.2 0.1-0.5-0.1-0.6q-1.8-1.2-3.6-2.4c-0.2-0.2-0.4-0.1-0.6 0.1-0.1 0.2 0 0.5 0.1 0.6q1.8 1.2 3.6 2.4 0.1 0.1 0.3 0.1zm137.6-8.1c0.3 0 0.4-0.2 0.4-0.5q0.1-2.1 0.1-4.3c0-0.2-0.2-0.4-0.4-0.4-0.2 0-0.4 0.2-0.4 0.4q-0.1 2.2-0.1 4.3c0 0.3 0.2 0.5 0.4 0.5q0 0 0 0zm-145.4 2.7q0.2-0.1 0.4-0.2c0.1-0.2 0.1-0.5-0.1-0.6q-1.7-1.3-3.4-2.6c-0.2-0.2-0.5-0.1-0.6 0-0.2 0.2-0.1 0.5 0.1 0.6q1.6 1.4 3.4 2.7 0.1 0.1 0.2 0.1zm181.1-8.5q0 0 0.1 0c0.2 0 0.4-0.2 0.3-0.5q-0.3-1.8-0.3-3.8 0-0.2 0-0.4c-0.1-0.2-0.3-0.4-0.5-0.4-0.2 0-0.4 0.2-0.4 0.4q0 0.3 0 0.5 0.1 1.9 0.4 3.8c0 0.3 0.2 0.4 0.4 0.4zm-188.4 2.6q0.1 0 0.3-0.2c0.1-0.2 0.1-0.4-0.1-0.6q-1.6-1.4-3.2-2.8c-0.1-0.2-0.4-0.2-0.6 0-0.1 0.2-0.1 0.4 0 0.6q1.6 1.4 3.3 2.9 0.1 0.1 0.3 0.1zm152.9-6.3c0.2 0 0.4-0.2 0.4-0.4q0-2.2 0-4.3c0-0.2-0.2-0.4-0.5-0.4-0.2 0-0.4 0.2-0.4 0.4q0 2.1 0 4.3c0 0.2 0.2 0.4 0.5 0.4q0 0 0 0zm35.3-5.7c0.2 0 0.4-0.2 0.4-0.4q0.2-2.1 0.6-4.2c0.1-0.2-0.1-0.4-0.3-0.5-0.2 0-0.5 0.1-0.5 0.4q-0.4 2.1-0.6 4.2c0 0.3 0.1 0.5 0.4 0.5q0 0 0 0zm-195.2 5.6q0.2 0 0.3-0.2c0.2-0.1 0.2-0.4 0-0.6q-1.5-1.5-2.9-3.1c-0.2-0.1-0.5-0.1-0.7 0-0.1 0.2-0.1 0.5 0 0.6q1.5 1.6 3 3.1 0.2 0.2 0.3 0.2zm159.8-9.3c0.2 0 0.4-0.2 0.4-0.5q-0.1-0.8-0.1-1.6 0-1.3-0.1-2.7c0-0.2-0.2-0.4-0.5-0.4q0 0 0 0c-0.2 0-0.4 0.2-0.4 0.5q0.1 1.3 0.2 2.7 0 0.8 0 1.6c0 0.2 0.2 0.4 0.5 0.4q0 0 0 0zm37.3-5.5c0.1 0 0.3-0.2 0.4-0.3q0.5-2 1.3-4.1c0.1-0.2 0-0.4-0.2-0.5-0.2-0.1-0.5 0-0.6 0.2q-0.8 2.1-1.4 4.1c0 0.2 0.1 0.5 0.3 0.5q0.1 0.1 0.2 0.1zm-203.4 7.8q0.1 0 0.2-0.1c0.2-0.1 0.2-0.4 0.1-0.6q-1.4-1.6-2.7-3.3c-0.2-0.2-0.4-0.3-0.6-0.1-0.2 0.1-0.2 0.4-0.1 0.6q1.3 1.7 2.7 3.4 0.2 0.1 0.4 0.1zm165.5-11.7q0 0 0.1 0c0.2-0.1 0.4-0.3 0.4-0.5q-0.2-2.2-0.5-4.3c0-0.2-0.2-0.4-0.4-0.4-0.3 0.1-0.4 0.3-0.4 0.5q0.2 2.1 0.4 4.3c0 0.2 0.2 0.4 0.4 0.4zm-171.3 4.2q0.2 0 0.3-0.1c0.2-0.1 0.2-0.4 0.1-0.6q-1.2-1.8-2.3-3.6c-0.2-0.2-0.4-0.2-0.6-0.1-0.2 0.1-0.3 0.4-0.2 0.6q1.1 1.8 2.4 3.6 0.1 0.2 0.3 0.2zm212.6-9.1c0.1 0 0.3-0.1 0.3-0.3q1-1.9 2-3.8c0.1-0.2 0-0.4-0.2-0.5-0.2-0.2-0.4-0.1-0.5 0.1q-1.1 1.9-2 3.9c-0.1 0.2 0 0.4 0.2 0.5q0.1 0.1 0.2 0.1zm-42.3-4.5q0 0 0 0c0.3-0.1 0.4-0.3 0.4-0.5q-0.3-2.1-0.7-4.3c0-0.2-0.3-0.4-0.5-0.3-0.2 0-0.4 0.3-0.3 0.5q0.3 2.1 0.6 4.2c0.1 0.2 0.3 0.4 0.5 0.4zm-175.2 5.5q0.1 0 0.2 0c0.2-0.1 0.3-0.4 0.2-0.6q-1-1.9-2-3.8c-0.1-0.2-0.3-0.3-0.5-0.2-0.2 0.1-0.3 0.4-0.2 0.6q0.9 1.9 1.9 3.8c0.1 0.2 0.3 0.2 0.4 0.2zm222.1-9.3q0.2 0 0.3-0.2 1.2-1.7 2.4-3.5c0.2-0.2 0.1-0.5-0.1-0.6-0.2-0.1-0.4-0.1-0.6 0.1q-1.2 1.8-2.4 3.6c-0.1 0.2-0.1 0.4 0.1 0.6q0.2 0 0.3 0zm-48.6-5.5q0 0 0.1 0c0.2-0.1 0.4-0.3 0.3-0.5q-0.4-2.2-1-4.2c0-0.3-0.3-0.4-0.5-0.3-0.2 0-0.4 0.2-0.3 0.5q0.5 2 1 4.1c0 0.3 0.2 0.4 0.4 0.4zm54.1-2.1q0.2 0 0.3-0.2 1.3-1.7 2.6-3.4c0.2-0.2 0.2-0.4 0-0.6-0.2-0.1-0.5-0.1-0.6 0.1q-1.4 1.7-2.7 3.4c-0.1 0.2-0.1 0.4 0.1 0.6q0.1 0.1 0.3 0.1zm-231.6 8.4q0.1 0 0.1 0c0.2-0.1 0.3-0.4 0.3-0.6q-0.8-1.9-1.5-4c-0.1-0.2-0.4-0.3-0.6-0.2-0.2 0-0.3 0.3-0.3 0.5q0.7 2.1 1.6 4.1c0 0.1 0.2 0.2 0.4 0.2zm237.4-15.8q0.2-0.1 0.4-0.2 1.4-1.7 2.7-3.3c0.1-0.2 0.1-0.5-0.1-0.6-0.1-0.2-0.4-0.1-0.6 0q-1.3 1.6-2.7 3.4c-0.2 0.1-0.1 0.4 0 0.6q0.2 0.1 0.3 0.1zm-62.2 0.3q0.1 0 0.1 0c0.2-0.1 0.4-0.3 0.3-0.5q-0.6-2.1-1.3-4.1c0-0.3-0.3-0.4-0.5-0.3-0.2 0.1-0.3 0.3-0.3 0.5q0.7 2 1.3 4.1c0 0.2 0.2 0.3 0.4 0.3zm-178.2 6.6q0 0 0.1 0c0.2-0.1 0.3-0.3 0.3-0.6q-0.6-2-1-4.1c-0.1-0.3-0.3-0.4-0.5-0.4-0.2 0.1-0.4 0.3-0.4 0.6q0.5 2.1 1 4.2c0.1 0.2 0.3 0.3 0.5 0.3zm246.5-14.1q0.2-0.1 0.3-0.2 1.5-1.6 2.9-3.2c0.2-0.1 0.2-0.4 0-0.6-0.2-0.1-0.4-0.1-0.6 0.1q-1.4 1.5-2.9 3.1c-0.2 0.2-0.1 0.5 0 0.6q0.2 0.2 0.3 0.2zm-71.2-1.4q0 0 0.1-0.1c0.2-0.1 0.3-0.3 0.3-0.5q-0.8-2.1-1.6-4c-0.1-0.3-0.4-0.4-0.6-0.3-0.2 0.1-0.3 0.4-0.2 0.6q0.8 2 1.5 4c0.1 0.2 0.3 0.3 0.5 0.3zm-177.2 6.2q0 0 0.1 0c0.2 0 0.4-0.2 0.3-0.5q-0.3-2.1-0.4-4.2c0-0.2-0.3-0.4-0.5-0.4-0.2 0-0.4 0.2-0.4 0.5q0.2 2.1 0.5 4.2c0 0.3 0.2 0.4 0.4 0.4zm254.9-11.7q0.2 0 0.3-0.1 1.6-1.6 3.1-3c0.2-0.1 0.2-0.4 0-0.6-0.1-0.2-0.4-0.2-0.6 0q-1.5 1.4-3.1 3c-0.2 0.1-0.2 0.4 0 0.6q0.1 0.1 0.3 0.1zm-81.4-3.3q0.1 0 0.2 0c0.2-0.1 0.3-0.4 0.2-0.6q-0.9-1.9-1.9-3.9c-0.1-0.2-0.3-0.3-0.5-0.1-0.2 0.1-0.3 0.3-0.2 0.5q0.9 1.9 1.8 3.9c0.1 0.1 0.3 0.2 0.4 0.2zm-174.1 5.6c0.2 0 0.4-0.2 0.4-0.4q0-2.2 0.1-4.3c0-0.2-0.2-0.4-0.4-0.4-0.2-0.1-0.4 0.1-0.4 0.4q-0.2 2.1-0.2 4.3c0 0.2 0.2 0.4 0.5 0.4q0 0 0 0zm169.8-14q0.1 0 0.2 0c0.2-0.1 0.3-0.4 0.2-0.6q-1.1-1.9-2.2-3.7c-0.1-0.2-0.4-0.3-0.6-0.1-0.2 0.1-0.3 0.3-0.1 0.5q1.1 1.9 2.1 3.7c0.1 0.2 0.3 0.2 0.4 0.2zm-169.2 4.6c0.2 0 0.4-0.2 0.4-0.4q0.3-2.1 0.8-4.2c0-0.2-0.1-0.4-0.4-0.5-0.2 0-0.4 0.1-0.5 0.4q-0.4 2-0.7 4.2c-0.1 0.2 0.1 0.5 0.3 0.5q0.1 0 0.1 0zm164.2-12.6q0.1 0 0.2 0c0.2-0.2 0.3-0.4 0.2-0.6q-1.3-1.8-2.6-3.5c-0.1-0.2-0.4-0.2-0.6-0.1-0.2 0.1-0.2 0.4-0.1 0.6q1.3 1.7 2.5 3.5 0.2 0.1 0.4 0.1zm-162.1 3.4c0.1 0 0.3-0.1 0.4-0.3q0.6-2.1 1.4-4c0-0.2-0.1-0.5-0.3-0.6-0.2-0.1-0.5 0-0.5 0.3q-0.8 2-1.5 4c0 0.3 0.1 0.5 0.3 0.6q0.1 0 0.2 0zm156.4-10.8q0.1 0 0.2-0.1c0.2-0.2 0.2-0.5 0.1-0.7q-1.4-1.6-2.9-3.2c-0.1-0.1-0.4-0.2-0.6 0-0.2 0.2-0.2 0.4 0 0.6q1.4 1.6 2.8 3.2 0.2 0.2 0.4 0.2zm-152.9 2.1c0.1-0.1 0.3-0.1 0.4-0.3q0.9-1.9 2.1-3.7c0.1-0.2 0-0.4-0.2-0.6-0.2-0.1-0.4 0-0.6 0.2q-1.1 1.8-2.1 3.7c-0.1 0.2 0 0.5 0.2 0.6q0.1 0.1 0.2 0.1zm146.4-9q0.2 0 0.3-0.2c0.2-0.1 0.2-0.4 0-0.6q-1.5-1.5-3.2-2.9c-0.1-0.1-0.4-0.1-0.6 0.1-0.1 0.1-0.1 0.4 0.1 0.6q1.6 1.4 3.1 2.9 0.2 0.1 0.3 0.1zm-141.3 1q0.2 0 0.3-0.2 1.3-1.6 2.7-3.2c0.2-0.2 0.2-0.4 0-0.6-0.2-0.2-0.4-0.2-0.6 0q-1.5 1.6-2.8 3.3c-0.1 0.2-0.1 0.5 0.1 0.6q0.1 0.1 0.3 0.1zm134.2-7.2q0.2 0 0.3-0.2c0.2-0.2 0.1-0.4 0-0.6q-1.8-1.3-3.5-2.5c-0.2-0.2-0.5-0.1-0.6 0.1-0.1 0.2-0.1 0.4 0.1 0.6q1.7 1.2 3.4 2.5 0.2 0.1 0.3 0.1zm-127.8 0.3q0.2 0 0.3-0.1 1.6-1.4 3.3-2.7c0.2-0.1 0.2-0.4 0.1-0.6-0.2-0.2-0.4-0.2-0.6-0.1q-1.8 1.4-3.4 2.8c-0.2 0.1-0.2 0.4 0 0.6q0.1 0.1 0.3 0.1zm120.1-5.7q0.2 0 0.3-0.2c0.1-0.2 0.1-0.5-0.1-0.6q-1.9-1.1-3.7-2.2c-0.3-0.1-0.5 0-0.6 0.2-0.1 0.2-0.1 0.5 0.1 0.6q1.9 1 3.7 2.1 0.1 0.1 0.3 0.1zm-112.5 0.1q0.1-0.1 0.2-0.1 1.7-1.2 3.6-2.2c0.2-0.1 0.3-0.4 0.2-0.6-0.1-0.2-0.4-0.3-0.6-0.2q-1.9 1.1-3.7 2.3c-0.2 0.1-0.3 0.4-0.1 0.6q0.1 0.2 0.4 0.2zm104.2-4.6c0.1 0 0.3-0.1 0.4-0.3 0.1-0.2 0-0.4-0.2-0.5q-2-1-4-1.8c-0.2-0.1-0.5 0-0.5 0.2-0.1 0.2 0 0.5 0.2 0.6q2 0.8 3.9 1.7 0.1 0.1 0.2 0.1zm-96 0q0.1 0 0.2-0.1 1.9-0.9 3.9-1.7c0.2-0.1 0.3-0.4 0.2-0.6-0.1-0.2-0.3-0.3-0.6-0.2q-2 0.8-3.9 1.7c-0.2 0.1-0.3 0.4-0.2 0.6 0.1 0.2 0.2 0.3 0.4 0.3zm87.3-3.6c0.1 0 0.3-0.1 0.4-0.3 0-0.2-0.1-0.5-0.3-0.6q-2-0.7-4.1-1.3c-0.2-0.1-0.5 0.1-0.5 0.3-0.1 0.2 0 0.4 0.2 0.5q2.1 0.6 4.1 1.3 0.1 0.1 0.2 0.1zm-78.6 0q0.1 0 0.2 0 2-0.7 4-1.4c0.3 0 0.4-0.3 0.3-0.5-0.1-0.2-0.3-0.4-0.5-0.3q-2.1 0.6-4.1 1.3c-0.2 0.1-0.4 0.4-0.3 0.6 0.1 0.2 0.3 0.3 0.4 0.3zm69.5-2.7c0.2 0 0.4-0.2 0.4-0.4 0.1-0.2-0.1-0.4-0.3-0.5q-2.1-0.5-4.2-0.9c-0.2-0.1-0.5 0.1-0.5 0.3-0.1 0.3 0.1 0.5 0.3 0.5q2.1 0.5 4.2 1 0.1 0 0.1 0zm-9.2-1.9c0.2 0 0.3-0.1 0.4-0.3 0-0.3-0.2-0.5-0.4-0.5q-2.1-0.3-4.3-0.6c-0.2 0-0.4 0.1-0.4 0.4-0.1 0.2 0.1 0.4 0.3 0.5q2.2 0.2 4.3 0.5 0 0 0.1 0zm-51.2 1.9q0 0 0.1 0 2-0.5 4.1-0.9c0.3-0.1 0.4-0.3 0.4-0.5-0.1-0.3-0.3-0.4-0.5-0.4q-2.1 0.4-4.2 1c-0.3 0-0.4 0.2-0.3 0.5 0 0.2 0.2 0.3 0.4 0.3zm41.8-2.9c0.2 0 0.4-0.2 0.4-0.4 0-0.3-0.2-0.5-0.4-0.5q-2.1-0.1-4.3-0.2c-0.2 0-0.4 0.1-0.4 0.4-0.1 0.2 0.1 0.4 0.4 0.4q2.1 0.1 4.2 0.3 0.1 0 0.1 0zm-32.6 1.1q0.1 0 0.1 0 2.1-0.3 4.2-0.5c0.3-0.1 0.4-0.3 0.4-0.5 0-0.3-0.2-0.4-0.5-0.4q-2.1 0.2-4.2 0.5c-0.3 0.1-0.4 0.3-0.4 0.5 0 0.2 0.2 0.4 0.4 0.4zm23.2-1.5c0.2 0 0.4-0.2 0.4-0.4 0-0.3-0.2-0.5-0.5-0.5q-2.1 0-4.3 0.1c-0.2 0-0.4 0.2-0.4 0.4 0 0.3 0.2 0.4 0.5 0.4q2.1 0 4.2 0 0 0 0.1 0zm-13.8 0.5q0 0 0.1 0 2.1-0.2 4.2-0.3c0.3 0 0.4-0.2 0.4-0.4 0-0.3-0.2-0.4-0.4-0.4q0 0 0 0-2.1 0.1-4.3 0.2c-0.2 0.1-0.4 0.3-0.4 0.5 0 0.2 0.2 0.4 0.4 0.4z"/>
								</g>
								<g id="&lt;Group&gt;">
									<path id="&lt;Path&gt;" class="s6" d="m385.3 557.6q0.2 0 0.3-0.1c0.2-0.1 0.2-0.4 0.1-0.6q-0.6-0.9-1.2-1.8c-0.1-0.1-0.4-0.2-0.6-0.1-0.2 0.2-0.3 0.4-0.1 0.6q0.6 0.9 1.2 1.8 0.1 0.2 0.3 0.2z"/>
								</g>
							</g>
							<g id="&lt;Group&gt;">
								<path id="&lt;Path&gt;" class="s7" d="m330.1 510.7c-25.3 4.2-56.7 10.7-57.7 12.8-1.1 2.1 27 116.7 32.2 118.4 5.3 1.8 86-20.8 86-20.8 0 0 1.4 2.6 7.6 0.7 3.3-1 4.2-3.3 4.2-3.3l75.5-12.6c0 0 7.2-0.9 6.6-4.5-1.1-6.7-30.8-114.7-30.8-114.7 0 0 0.3-3.2-4.6-2.1-3.8 0.8-55 12-76.9 19.3-6.5 2.1-8.5 8.2-8.5 8.2 0 0-16.6-4.2-33.6-1.4z"/>
								<path id="&lt;Path&gt;" class="s5" d="m364.7 516.8c0 0 4.9-15.6 26-19.6 21-4 22.9 2.8 39.5-0.2 16.6-3.1 20.6-8.7 20.6-8.7l27.1 112c0 0-38.6 3.5-55.4 7.9-16.9 4.5-26.9 8.7-26.9 8.7 0 0-35.4 7.9-60.1 13.6-18.2 4.2-28.5 6.3-28.5 6.3l-27.8-99.4 4.6-7.2c0 0 10.6 2.1 26.7-8 16.1-10 24.2-12 35.1-11.2 12.3 0.9 19.1 5.8 19.1 5.8z"/>
								<path id="&lt;Path&gt;" class="s8" d="m283.7 530.3c1.4 5.7 5 20.4 10 35.9 6.3 19.8 16.6 58.2 16.6 58.2 0 0 12.8-14 34.6-19.2 21.7-5.1 49.3 7 49.3 7l-30.4-96c0.6 0.4 0.9 0.6 0.9 0.6 0 0 0.2-0.7 0.8-1.8l30.3 97.2c0 0 11.7-11.7 32.5-19.4 19.6-7.3 45.3 0.6 48.1 1.6l1.5 5.9c0 0-38.6 3.5-55.4 7.9-16.9 4.5-26.9 8.7-26.9 8.7 0 0-35.4 7.9-60.1 13.6-18.2 4.2-28.5 6.3-28.5 6.3l-27.8-99.4z"/>
								<g id="&lt;Group&gt;">
									<path id="&lt;Path&gt;" class="s5" d="m395.4 616.3c-14.9-4.2-30.7-7.5-46.2-6.6-8.1 0.5-15.3 2.9-22.2 7-6.3 3.9-11.5 9.2-17.6 13.2-0.3 0.2-0.6-0.1-0.6-0.4-4.7-16-9-32.1-13.7-48.1-2.3-8.1-4.5-16.2-6.8-24.2-2.2-7.9-4.9-15.7-6.6-23.7l0.4-0.6c2.8 7.8 4.6 16.1 6.8 24.1 2.2 8.1 4.5 16.1 6.8 24.2 4.4 16 9 32 13.3 48 4-4.2 8.8-7.8 13.5-11.1 4.7-3.3 9.7-6 15.2-7.6 11.7-3.5 24.9-1.9 36.8 0.2 7.1 1.2 14.2 2.8 21 5.2q0-0.2 0.1-0.3c2.9-3.2 6.8-5.8 10.4-8.2 4.6-3.1 9.5-5.8 14.6-8 11-4.9 22.7-6.7 34.8-5.8 7.3 0.6 14.8 1.7 21.8 3.9l0.1 0.4c-8.3-1.3-16.3-3.3-24.7-3.6-7.9-0.4-15.8 0.4-23.3 2.8-12.3 4-23.2 10.9-33 19.2-0.3 0.2-0.5 0.1-0.7-0.1q-0.1 0.1-0.2 0.1z"/>
									<path id="&lt;Path&gt;" class="s5" d="m333.9 626.8c4.4-1.9 9-3.3 13.7-4.2 10.2-2.1 20.6-2.3 30.9-1.9q-0.9 0.2-1.8 0.4c-9.5-0.2-19.1 0.1-28.5 2.1-4.7 1-9.4 2.5-13.8 4.4q-3.3 1.4-6.4 3.2c-1 0.6-1.9 1.3-2.9 2q-1.3 0.3-2.5 0.6c1.4-1.3 3.2-2.2 4.7-3.1q3.2-2 6.6-3.5z"/>
									<path id="&lt;Path&gt;" class="s5" d="m431.5 600.8c8.1-2.2 16.8-2.5 25.1-2.4 7 0.1 14.2 0.3 21.1 1.5q0.1 0 0.1 0.1v0.1c0 0.1 0 0.2-0.2 0.1-7.8-0.2-15.7-1.1-23.5-1-5.7 0-11.4 0.3-17 1.2-5.5 0.9-10.8 2.8-16 4.9-5.9 2.3-11.7 5.1-17.1 8.5q-1.2 0.4-2.3 0.8c8.9-6.3 19.3-10.9 29.8-13.8z"/>
									<path id="&lt;Path&gt;" class="s5" d="m279.8 536.4l0.3-0.5c5.1 16.3 9.3 32.8 13.9 49.2 4.6 16.6 9.3 33.2 13.9 49.8 7.5-7.5 17.6-12.7 27.6-16.2 11.4-4 23.3-4.7 35.3-3.8 7.7 0.6 15.3 1.6 23 2.4q-0.6 0.1-1.4 0.3c-15.6-1.3-31.5-4.2-47-0.5-13.4 3.2-26.9 9.2-37.4 18.3-0.2 0.1-0.4-0.1-0.3-0.3-5-16.5-9.5-33.2-14.1-49.8-4.6-16.3-9.5-32.6-13.8-48.9z"/>
								</g>
							</g>
							<g id="&lt;Group&gt;">
								<g id="&lt;Group&gt;">
									<path id="&lt;Compound Path&gt;" class="s5" d="m562.6 328.5c-0.3-0.4-0.4-1-0.3-1.6 0.2-1.5 1.9-3.2 3.5-2.6 1.9 0.6 2.2 3.5 0.9 4.8-1.3 1.3-3.4 0.8-4.1-0.6z"/>
									<path id="&lt;Compound Path&gt;" class="s5" d="m538.2 309.3c-0.9 0-1.9-0.7-1.9-1.9 0-2.6 3.9-2 3.5 0.5-0.1 1-0.9 1.5-1.6 1.4z"/>
									<path id="&lt;Compound Path&gt;" class="s5" d="m523.6 319.8c-0.7 0.6-1.8 0.3-2.2-0.5-0.6-1.3 1-2.8 2.2-1.9 0.8 0.6 0.8 1.8 0 2.4z"/>
									<path id="&lt;Compound Path&gt;" class="s5" d="m515.8 329.3c3.3-3.7 8.8-5.7 13.6-4.5-0.6-3.7-0.1-7.8 1.9-10.3 2.5-3.1 6.6-3 10.2-1.8-0.3-2.1 0.4-4.4 1.6-5.9 1.1-1.4 2.9-2.2 4.8-2.4-0.9-2.1-0.6-4.8 1.2-6.6 2.7-2.8 5.7-0.8 7.1 1.9 0.4-2.3 2.6-3.9 5.3-3.2 0-0.1 0.1-0.2 0.3-0.1 1.6 0.9 2.3 2.9 1.5 4.6-0.4 1-1.3 1.8-2.3 2.2 1.3 1.6 1.7 4 0.9 6-0.6 1.5-1.7 2.6-3.1 3.3 2.2 2.4 3.1 5.9 1.8 9.2-1 2.8-3.8 5.6-6.9 6.5 6.7 3 11.6 10.5 9.3 17.9-1.8 6.1-10.7 9.2-16.6 6.7-0.9 2.6-2.6 5-4.5 6.7-4.9 4.4-12 4.8-18.1 2.8-6.7-2.1-11.5-7.6-12.7-14.6-1.2-6.3 0.2-13.6 4.7-18.4z"/>
								</g>
								<g id="&lt;Group&gt;">
									<path id="&lt;Path&gt;" class="s4" d="m587.5 291.8c0 0 0.6 4.8-1 9-1.6 4.2-4.9 5.6-8.6 7-3.7 1.4-8.7 3.4-10 3.4-1.3 0.1-2.3 0.1-2-0.9 0.2-1 4.9-2.5 5.8-5 0.8-2.5-0.6-4.2-0.6-4.2z"/>
									<path id="&lt;Path&gt;" class="s4" d="m571.4 272.7c0 0-4.7-1.1-9 0-4.3 1.1-6.2 4.2-8 7.7-1.8 3.5-4.4 8.2-4.6 9.5-0.2 1.3-0.4 2.3 0.7 2.1 1-0.1 3.1-4.6 5.6-5.2 2.6-0.5 4.2 1.1 4.2 1.1z"/>
									<path id="&lt;Path&gt;" class="s9" d="m571.7 305.3c0.8-2.5-0.6-4.2-0.6-4.2l16.4-9.3c0 0 0.3 2.1 0 4.8-2.3 1.2-4.4 2.6-6.6 4-1.9 1.1-3.8 2.3-5.3 3.9-1.5 1.7-2.6 3.7-3.8 5.6-1.8 0.6-3.3 1.1-3.9 1.1-1.3 0.1-2.3 0.1-2-0.9 0.2-1 4.9-2.5 5.8-5z"/>
									<path id="&lt;Path&gt;" class="s9" d="m549.8 289.9c0.1-0.5 0.5-1.4 1-2.4q1.4-1.2 3.2-1.8c1-0.4 2.1-0.6 3.1-1.1 1.5-0.8 2.6-2 3.7-3.2q3.1-3.5 6.2-6.9c0.6-0.6 1.1-1.5 1.8-2.2 1.6 0.2 2.6 0.4 2.6 0.4l-11.1 15.2c0 0-1.6-1.6-4.2-1.1-2.5 0.6-4.6 5.1-5.6 5.2-1.1 0.2-0.9-0.8-0.7-2.1z"/>
									<path id="&lt;Path&gt;" class="s10" d="m587.1 256.9c-18.8 16-28.2 30.4-28.2 30.4 0 0 0.7 4.4 4.7 8.4 3.9 3.9 7.9 6.8 7.9 6.8 0 0 28.4-14.4 39.9-27.9 11.5-13.6 17.1-26.6 15.9-31.9-1.1-5.2-21.4-1.8-40.2 14.2z"/>
									<path id="&lt;Path&gt;" class="s11" d="m571.5 302.5c0 0-1.6-1.2-3.8-3 8.4-5.3 22.3-14.8 34-25.6 14.3-13.4 21.8-27.6 24.2-32.8q1.2 0.6 1.4 1.6c1.2 5.3-4.4 18.3-15.9 31.9-11.5 13.5-39.9 27.9-39.9 27.9z"/>
									<g id="&lt;Group&gt;">
										<path id="&lt;Path&gt;" class="s4" d="m604 244.9c0 0 8.1-4.7 17.1-5.1 7.9-0.3 7.3 4.3 6.7 8.7-1.2 8.4-7.3 16.1-7.3 16.1 0 0-4.4-3-8.6-7.4-4.1-4.4-7.9-12.3-7.9-12.3z"/>
										<path id="&lt;Path&gt;" class="s4" d="m628 242.1l12.4-13.2-14 11.7z"/>
										<path id="&lt;Path&gt;" class="s9" d="m628.1 244.7c0 0-1.8-0.8-2.8-2.1-1-1.3-1.2-2.8-1.2-2.8 0 0 1.8-0.8 3.4 0.5 1.9 1.5 0.6 4.4 0.6 4.4z"/>
									</g>
									<path id="&lt;Path&gt;" class="s12" d="m563.4 295.3c3.3-3.1 6.7-5.9 6.7-5.9 0 0 7.4-6.7 8.8-6.7 1.3 0 2.7 1.6 0.6 4.1-1.1 1.3-7.6 7-13.3 11.4-0.9-0.8-1.9-1.8-2.8-2.9z"/>
									<path id="&lt;Path&gt;" class="s4" d="m569.7 288.6c0 0 7.5-6.7 8.8-6.7 1.3 0 2.7 1.6 0.6 4.1-2.1 2.4-20.9 18.3-22.4 16.8-1.9-2 13-14.2 13-14.2z"/>
									<path id="&lt;Path&gt;" class="s12" d="m622.7 254.6c2.5-3.5 4.3-7.4 5.4-10 0 1.2-0.1 2.6-0.3 3.9-1.2 8.4-7.3 16.1-7.3 16.1 0 0-2.5-1.7-5.5-4.4-1.4-1.8-2.5-3.3-2.5-3.3 0 0 5.9 3.6 10.2-2.3z"/>
									<path id="&lt;Path&gt;" class="s9" d="m621.1 263.9c0 0-5.9-4.4-10-9.3-4.1-4.8-6.1-10.5-6.1-10.5-0.1-0.2-1.3 0.2-1.5 0.3-0.7 0.3-1.4 0.7-1.9 1.2-0.2 0.3 1.6 4.5 6.7 11 0.5 0.6 2 2.3 2.5 2.8 4.6 4.7 7.6 7.4 8.4 7.5 0.8 0 2.4-1.6 1.9-3z"/>
									<path id="&lt;Path&gt;" class="s12" d="m616.2 259.8c2.7 2.5 4.9 4.1 4.9 4.1 0.5 1.4-1.1 3-1.9 3-0.6-0.1-2.4-1.6-5.1-4.3 0.8-0.8 1.5-1.8 2.1-2.8z"/>
									<path id="&lt;Path&gt;" class="s9" d="m588 266.2c0.4 4.6 4.4 7.9 8.8 7.5 4.5-0.4 7.8-4.4 7.4-8.9-0.4-4.5-4.3-7.8-8.8-7.4-4.5 0.4-7.8 4.3-7.4 8.8z"/>
									<path id="&lt;Path&gt;" class="s13" d="m589.9 266.1c0.3 3.4 3.3 6 6.8 5.7 3.4-0.3 5.9-3.4 5.6-6.8-0.3-3.5-3.3-6.1-6.8-5.7-3.4 0.3-5.9 3.3-5.6 6.8z"/>
									<path id="&lt;Path&gt;" class="s5" d="m596.5 260.4c0.8 0 1.4 0.6 1.4 1.4 0 0.8-0.6 1.4-1.4 1.4-0.8 0-1.4-0.6-1.4-1.4 0-0.8 0.6-1.4 1.4-1.4z"/>
									<path id="&lt;Path&gt;" class="s5" d="m595.8 264.9c0 0.4 0.3 0.6 0.6 0.6 0.4 0 0.6-0.3 0.6-0.7 0-0.3-0.3-0.6-0.7-0.5-0.3 0-0.6 0.3-0.5 0.6z"/>
									<path id="&lt;Path&gt;" class="s14" d="m620.5 241.7c0.5 0.1 1.1 0.2 1.6 0.4 0.5 0.3 0.9 0.8 0.9 1.4-0.1 0.8-1 1.4-1.8 1.7-1.4 0.5-3 0.7-4.4 1.2-1.5 0.5-2.9 1.4-3.6 2.7-0.4 0.7-0.7 1.5-1.5 1.5-1.2 0.1-2.8-1.9-3.1-3-0.3-1.3 0.4-2.4 1.4-3.2 2.8-2.2 7-2.9 10.5-2.7z"/>
									<path id="&lt;Path&gt;" class="s14" d="m562 285.4c9.4-11.5 18.5-21.2 31.2-31.5 1.8-1.5 5.1-4.4 7.7-3.7 1.8 0.5 3 2.9 1.8 4.6-0.4 0.7-1.2 1-1.9 1.3q-0.9 0.4-1.8 0.9c-2.5-1-6-0.3-8.1 1.1-2.2 1.4-4.7 5.2-3.9 8.1q-1 1-2.1 2l-21 20.3c-0.3 0.4-0.7 0.8-1.2 0.9-0.7 0.2-1.4-0.1-1.7-0.7-0.6-1.1 0.2-2.4 1-3.3z"/>
								</g>
							</g>
							<g id="&lt;Group&gt;">
								<path id="&lt;Compound Path&gt;" class="s5" d="m286.1 369.6c1.3-6.5 10.5-3.7 14.3-2.1 4.1 1.7 8.5 3 12.6 0.2 3.5-2.5 3.4-7.1 4-10.9 0.7-4.9 6.5-2.4 7.9 0.7 1.3 2.7 0.7 9.3-0.3 12.9-1.2 4-3.5 7.8-7.2 9.9-5.7 3.3-14.3 3.5-20.1-0.1-4.1-1.7-12.2-5.4-11.2-10.6z"/>
								<path id="&lt;Path&gt;" class="s15" d="m286.1 369.6c0.4-2 1.5-3.1 3-3.7 2.1 3.3 5.8 5.7 8.6 7.7 4.2 2.9 8.9 5 14.1 3.8 9.3-2.3 11.7-12.7 11.8-21.7 0.6 0.6 1 1.2 1.3 1.8 1.3 2.7 0.7 9.3-0.3 12.9-1.2 4-3.5 7.8-7.2 9.9-5.7 3.3-14.3 3.5-20.1-0.1-4.1-1.7-12.2-5.4-11.2-10.6z"/>
								<g id="&lt;Group&gt;">
									<path id="&lt;Path&gt;" class="s5" d="m311.8 347.6c0.3-0.3 0.8-0.3 1.3-0.2 1.4 0.2 3.1 1.2 4.2 2.2q0.5-0.1 0.8-0.3c1.2-0.8 1.2-2.1 2-3.2q0.1 0 0.1-0.1c1.6-2.4 4.8-4.8 7.1-6.2 0.3-0.2 0.6-0.4 0.9-0.4 0.4 0 0.7 0.2 0.8 0.6 0 0.2-0.1 0.5-0.3 0.7-1.2 1.8-2.7 3.4-4.3 4.9q0.1 0.1 0.3 0.2c0.9-0.8 1.8-1.6 2.8-2.3 1.2-0.8 2.6-1.5 4-1.7 0.2-0.1 0.5-0.1 0.6 0.1 0.1 0.2 0.1 0.4 0 0.6-0.2 0.5-0.6 0.8-1 1.2q-2.2 1.9-4.6 3.5 0.2 0.2 0.4 0.5c1.6-1.2 3.5-2.4 5.7-2.7 0.3 0 0.7 0.1 0.7 0.4q0 0.1-0.1 0.2c-0.4 0.6-1 1.1-1.6 1.5-1.2 0.9-2.2 1.7-3.5 2.3q0.1 0.2 0.2 0.4c1.5-0.7 3.1-1.2 4.2-1.1 0.3 0.1 1.3 0.4 1.1 0.9-0.4 0.7-3.5 1.4-5.2 2.4q0 0.1 0 0.1-0.2 0.1-0.3 0.2c-2 1.3-3.2 3.1-3.8 4-0.1 0.1-0.4 0-0.3-0.2q0-0.1 0-0.1c-3 0.9-6.2 0.8-7.6-1.9q-0.2-0.3-0.5-0.7c-0.9-1.1-2.1-1.9-3-3q-0.6-0.7-1-1.6c-0.2-0.4-0.3-0.8-0.1-1.2z"/>
								</g>
								<g id="&lt;Group&gt;">
									<path id="&lt;Path&gt;" class="s16" d="m315.9 355.2c0.8-0.8 2.1-0.7 3.2-0.6 2.1 0.1 4.5-0.2 6.5 0.7q0.4 0.2 0.7 0.5c0.4 0.5 0.3 1.2-0.4 1.6-0.2 0.1-0.5 0.1-0.8 0.2-2.8 0.4-5.7 0.2-8.4-0.6-0.5-0.1-1.1-0.4-1.2-0.9-0.1-0.3 0.1-0.6 0.3-0.8q0-0.1 0.1-0.1z"/>
								</g>
								<path id="&lt;Path&gt;" class="s5" d="m280.1 419c-0.1-1.9 2.1-2.9 3.4-3.9 2.8-2.2 5.6-4.2 8.3-6.4 5.7-4.4 11.2-9 14.5-15.4-0.1-0.1-0.1-0.5 0.1-0.5 5.4-0.3 10.8 0.2 16.1 1 4.8 0.8 9.8 1.8 13.8 4.6 3.7 2.5 5.5 6 6.9 10.1 1.6 5.2 3.2 10.8 3.9 16.2 0 0.2-0.1 0.4-0.2 0.4q-0.1 0.1-0.2 0.2c-3.1 0.9-6.5 1.3-9.7 1.8-0.2 0-0.4-0.1-0.4-0.4-1.4-5.6-4.9-13.5-10.6-15.9-5.9-2.6-12.9-0.3-18.7 1.5q-0.6 0.7-1.1 1.5c-0.5 0.7-1 1.4-1.6 2.1 5.2 4.1 10.2 8.9 10.5 15.9 0.1 4.2-1.4 8.6-2.8 12.6-1.6 4.3-3 9.1-5.4 13-1.9-0.4-3.1-0.6-4.9-1.5-1.4-0.6-3.4-1.3-3.2-2 0.9-3.3 2-9 1.9-12.5-0.1-3.6-1.8-6.9-4.1-9.6-4.3-5.2-10.8-8.4-16.3-12.2-0.3-0.2-0.3-0.4-0.2-0.6z"/>
								<path id="&lt;Path&gt;" class="s15" d="m306.6 413.2q0.1-0.3 0.4-0.7c0.5-0.8 1.4-1.2 2.3-1.7 1.3-0.6 2.8-1.1 4.3-1.5 4.7-1.1 9.9-1.6 14.6-0.2 8.1 2.3 10.5 10 12.5 17.4q-1.9 0.3-3.7 0.6c-0.2 0-0.4-0.1-0.4-0.4-1.4-5.6-4.9-13.5-10.6-15.9-5.9-2.6-12.9-0.3-18.7 1.5q-0.4 0.5-0.7 0.9z"/>
								<path id="&lt;Path&gt;" class="s15" d="m281.5 416.5c6 4.9 13.6 8 18.4 14.2 3.1 3.9 4.8 8.7 4.7 13.7-0.1 4.1-1.4 7.7-2.8 11.4-1.4-0.6-3.2-1.2-3-1.9 0.9-3.3 2-9 1.9-12.5-0.1-3.6-1.8-6.9-4.1-9.6-4.3-5.2-10.8-8.4-16.3-12.2-0.3-0.2-0.3-0.4-0.2-0.6 0-1.1 0.6-1.8 1.4-2.5z"/>
								<path id="&lt;Path&gt;" class="s17" d="m300.2 412.7c-3.5 2.9-7.3 5.7-11.4 7.6-1.4 0.7-3 1.3-4.5 1.9q-2.1-1.3-4-2.6c-0.3-0.2-0.3-0.4-0.2-0.6-0.1-1.9 2.1-2.9 3.4-3.9 2.8-2.2 5.6-4.2 8.3-6.4 5.7-4.4 11.2-9 14.5-15.4-0.1-0.1-0.1-0.5 0.1-0.5q3.1-0.2 6.2 0c-1.1 8-6.2 14.7-12.4 19.9z"/>
								<path id="&lt;Compound Path&gt;" class="s5" d="m267.3 376.1c0-0.1 0-0.4 0.1-0.4 2.8-1.2 5.5-2.1 8-3.9 1.9-1.4 3-3.7 5.1-4.8 3.9-2.2 8.2 0.6 11.1 3.2 3.3 3.1 5.9 7 8.5 10.7 3 4.1 6.1 7.6 10.3 10.5 0.2 0.1 0.2 0.3 0.1 0.5 0.1 6.9-5.7 13.2-10.4 17.8-5.4 5.2-11.8 9.2-18.9 11.8-0.1 0.1-0.3 0-0.4-0.1q0 0-0.1 0c-4.1-2.5-7.8-6.5-10.8-10.2-3-3.8-5.8-8.1-7.5-12.7-3.9-10.7-2.5-18.1 4.9-22.4z"/>
								<g id="&lt;Group&gt;">
									<path id="&lt;Compound Path&gt;" class="s10" d="m292.9 463c0.1 0 0.1-0.1 0.2-0.1 3.6 0.9 7.1 2.6 10.4 4.1 2 0.8 4 1.7 6 2.5 1.7 0.7 3.6 1.2 5.1 2.3 0.2 0.1 0.1 0.2 0.1 0.3q0 0 0 0.1c-0.1 0.6-0.5 2.5-1.5 2.4-0.8-0.2-0.8-1.5-0.7-1.9-0.3 0.6-0.6 1.6-1.6 1.4-0.9-0.1-1-1.2-0.9-1.8q0-0.1 0-0.1c-0.2 0.2-0.3 0.4-0.4 0.6-0.3 0.2-0.7 0.8-1.1 0.8-0.8-0.2-0.8-1.2-0.9-1.9 0 0.1-0.1 0.2-0.2 0.4-0.4 0.3-0.8 0.6-1.2 0.5-0.9-0.1-1.2-1-1.3-1.7q0-0.1 0-0.2 0 0.2-0.2 0.4c-0.3 0.4-0.7 0.7-1.3 0.6-0.7-0.2-0.9-0.9-0.9-1.6-0.3 0.3-0.7 0.8-1 0.8-0.9 0.1-1.4-0.8-1.4-1.6-0.2 0.3-0.7 0.8-1 0.8-1 0.1-1.3-1.6-1.4-2.3q0 0.1-0.1 0.2c-0.3 0.3-0.8 0.8-1.2 0.8-0.9 0-1.2-1-1.1-1.7q0-0.1 0-0.3c-0.2 0.3-0.5 0.7-0.8 0.8-0.8 0.2-1.1-0.5-1.1-1.2 0-0.2 0.1-0.5 0.1-0.7q-0.1 0.2-0.4 0.3c-2.1 0.8-0.8-2.2-0.2-3z"/>
									<path id="&lt;Path&gt;" class="s16" d="m293 462.2c0.8-2.1 2.8-3.5 3.6-5.6 0.5-1.1 0.7-2.3 1-3.4q0.3-1.3 0.7-2.5c0-0.2 0.1-0.5 0.1-0.8 0.1-0.3 0.5-0.5 0.8-0.3 1.2 0.7 3 1.4 4.4 1.8 1.9 0.7 3.7 1.1 5.8 1.3 0.4 0 0.3 0.3 0.2 0.6-0.7 2.9-1.2 6.6 0.6 7.6 1.1 0.7 2.6 0.9 3.7 1.7 1.6 1.1 2.3 3 2.3 4.8 0 2-0.8 3.6-1.5 5.3-2.5 0.3-8.1-1.3-11.7-2.7-2.9-1.2-6.6-2.4-9-4.4-1-0.9-1.6-2-1-3.4z"/>
									<g id="&lt;Group&gt;">
										<path id="&lt;Path&gt;" class="s10" d="m297.7 451.1c4 1.8 8.1 2.8 12.4 3.9 0 0-0.4 2.1-0.6 2.9-4.9-0.9-8.2-2.2-12.4-3.8 0.3-1.1 0.3-2 0.6-3z"/>
									</g>
								</g>
								<g id="&lt;Group&gt;">
									<path id="&lt;Path&gt;" class="s18" d="m266.6 375q0.1-0.1 0.3-0.2c3.5-1.6 7.1-3.2 9.6-6.3 0.2-0.3 0.4-0.6 0.7-0.8 0.9-0.7 1.8 0.3 2.1 1.2 0.7 2.3-2.2 4.6-3.8 5.8q-1.8 1.4-3.9 2.2c-1.4 0.5-3.1 1.1-4.6 0.5-0.8-0.3-1.6-1.5-0.7-2.2q0.1-0.1 0.3-0.2z"/>
								</g>
								<g id="&lt;Group&gt;">
									<path id="&lt;Compound Path&gt;" class="s10" d="m337.9 440.1c0 0 0-0.1 0.1-0.1 3.5-1.2 7.4-1.4 11.1-1.8 2.1-0.3 4.2-0.5 6.4-0.8 1.8-0.3 3.7-0.8 5.6-0.6 0.1 0 0.2 0.1 0.1 0.2q0.1 0 0.1 0.1c0.3 0.5 0.8 2.4-0.1 2.8-0.7 0.3-1.4-0.8-1.5-1.3 0 0.7 0.2 1.8-0.7 2.1-0.8 0.3-1.4-0.6-1.7-1.2q0 0 0 0c-0.1 0.2-0.1 0.5-0.1 0.7-0.1 0.3-0.2 1.1-0.6 1.2-0.7 0.3-1.2-0.6-1.7-1.2 0 0.1 0.1 0.3 0 0.5-0.1 0.4-0.3 0.8-0.8 1-0.8 0.4-1.4-0.2-1.9-0.9q-0.1 0-0.1-0.1 0 0.2 0 0.5c0 0.5-0.2 1-0.8 1.1-0.7 0.3-1.3-0.3-1.6-0.8 0 0.3-0.2 0.9-0.5 1.1-0.6 0.5-1.5 0-2-0.6 0 0.3-0.1 1-0.4 1.1-0.8 0.6-2-0.7-2.4-1.3q0 0.1 0 0.3c0 0.4-0.2 1.1-0.6 1.3-0.7 0.4-1.5-0.3-1.8-1q-0.1-0.1-0.1-0.2c-0.1 0.4-0.2 0.9-0.4 1.1-0.6 0.5-1.2 0.1-1.5-0.5-0.1-0.2-0.2-0.4-0.2-0.7q-0.1 0.3-0.2 0.5c-1.5 1.7-1.9-1.5-1.7-2.5z"/>
									<path id="&lt;Path&gt;" class="s16" d="m337.5 439.4c-0.3-2.2 0.7-4.5 0.4-6.7-0.2-1.2-0.6-2.3-0.9-3.5q-0.4-1.2-0.7-2.4c0-0.2-0.2-0.5-0.2-0.8-0.1-0.3 0.1-0.6 0.5-0.6 1.3 0 3.3-0.4 4.7-0.6 2-0.5 3.7-1.1 5.7-1.9 0.3-0.2 0.4 0.1 0.4 0.4 0.9 2.9 2.3 6.3 4.3 6.3 1.4 0 2.7-0.5 4.1-0.4 1.9 0.2 3.4 1.4 4.4 3 1 1.7 1.1 3.5 1.3 5.3-1.9 1.5-7.6 3-11.4 3.6-3.1 0.4-6.9 1.2-10 0.7-1.3-0.2-2.4-1-2.6-2.4z"/>
									<g id="&lt;Group&gt;">
										<path id="&lt;Path&gt;" class="s10" d="m336 427.4c4.4-0.5 8.4-1.6 12.7-2.9 0 0 0.7 2.1 1 2.8-4.7 1.7-8.3 2.3-12.7 3-0.3-1.1-0.8-1.8-1-2.9z"/>
									</g>
								</g>
								<path id="&lt;Path&gt;" class="s5" d="m272.3 373.4c8.3-4.9 14.4-13.5 15.5-24 1.5-15-7.9-32.6-28.6-32.9-20.6-0.2-35.8 19.3-32 37.7 1.9 9 8.1 16.2 16.3 20.3 9.7 4.8 20.3 3.8 28.8-1.1z"/>
								<path id="&lt;Path&gt;" class="s13" d="m271.9 362.1c5.7-3.3 9.9-9.1 10.6-16.3 1-10.1-5.4-22.1-19.4-22.3-14-0.1-24.3 13.1-21.7 25.6 1.2 6.1 5.5 11 11 13.7 6.6 3.3 13.8 2.6 19.5-0.7z"/>
								<path id="&lt;Path&gt;" class="s5" d="m268.9 327.5c1.8 0 3.3 1.5 3.3 3.4 0 1.8-1.5 3.3-3.3 3.3-1.9 0-3.4-1.5-3.4-3.3 0-1.9 1.5-3.4 3.4-3.4z"/>
								<path id="&lt;Path&gt;" class="s5" d="m268.1 336.6c0.8 0 1.5 0.7 1.5 1.5 0 0.8-0.7 1.5-1.5 1.5-0.8 0-1.5-0.7-1.5-1.5 0-0.8 0.7-1.5 1.5-1.5z"/>
								<path id="&lt;Path&gt;" class="s15" d="m230.8 333.2c-1.4 4.5-1.7 9.3-0.7 14.1 1.7 8 5.8 16 13 20.6 7.7 4.9 18.1 5.9 26.9 3.7 2.9-0.7 5.8-1.8 8.5-3-1.8 1.8-4 3.4-6.2 4.8-8.5 4.9-19.1 5.9-28.8 1.1-8.2-4.1-14.4-11.3-16.3-20.3-1.5-7.2 0-14.7 3.6-21z"/>
								<path id="&lt;Path&gt;" class="s16" d="m273.6 413.1c2.2-0.8 4.3-1.6 6.3-2.8 3.9-2.2 7.7-4.9 10.9-8 5-4.7 10.3-10.5 12.8-17.1q1.2 1.4 2.6 2.7c-2 6.5-7 12.2-11.6 16.8-5.6 5.5-11.9 10.4-19.6 12.2q-1.6-1.6-3-3.2 0.8-0.4 1.6-0.6z"/>
								<path id="&lt;Path&gt;" class="s16" d="m285.3 399.8q-4.9 3.7-10.4 6.4c-2.2 1.1-4.4 1.9-6.6 2.9q-1.5-2-2.8-4.1c2.6-0.6 5.1-2 7.2-3 3.5-1.8 6.9-3.8 10.1-6.1 6.3-4.6 11.8-10.3 16-16.9q0.7 0.9 1.3 1.9 0.6 0.7 1.2 1.5c-4.4 6.7-9.5 12.5-16 17.4z"/>
								<path id="&lt;Path&gt;" class="s18" d="m290.4 405.9c1 0.1 2-0.3 2.7-1 8.6-8 8.7-9 8.8-9.5 0.2-1.2-1.2-2.9-3.4-5.4-0.7-0.9-1.4-1.7-1.8-2.3-0.4-0.6-1-1.6-1.7-2.7-2.8-4.3-4.9-7.4-6.4-7.9q-0.2-0.1-0.5-0.1c-2.6-0.3-10.3 4-12.1 7.2-2.1 3.7 0.2 6.8 4.1 11.6 2.6 3.2 5.8 6.7 8.1 9 0.6 0.6 1.4 1 2.2 1.1q0 0 0 0z"/>
								<path id="&lt;Path&gt;" class="s15" d="m292.5 404.4c-1 1-2.7 0.9-3.7-0.1-2.1-2.2-5.4-5.8-8.1-9-4.1-5.1-5.7-7.6-4-10.7 1.7-3 9.7-7.4 11.6-6.8 1.9 0.7 5.9 7.8 7.8 10.4 1.4 2 5.2 5.6 5 7.1-0.2 1.1-5.6 6.3-8.6 9.1z"/>
								<g id="&lt;Group&gt;">
									<path id="&lt;Path&gt;" class="s19" d="m291 384.9l1.7 2.3-2.3 1.8-1.7-2.2z"/>
									<path id="&lt;Path&gt;" class="s19" d="m284.1 394.1l-1.8-2.1 2.6-2.1 1.7 2.3z"/>
									<path id="&lt;Path&gt;" class="s19" d="m289.7 389.7l-2.4 1.8-1.7-2.2 2.3-1.9z"/>
									<path id="&lt;Path&gt;" class="s19" d="m281.4 390.9l-2.6-3.1 2.9-2.1 2.3 3.1z"/>
									<path id="&lt;Path&gt;" class="s19" d="m284.7 388.2l-2.3-3 2.5-1.8 2.2 2.9z"/>
									<path id="&lt;Path&gt;" class="s19" d="m288.1 381.1l2.1 2.7-2.4 1.9-2.2-2.8z"/>
									<path id="&lt;Path&gt;" class="s19" d="m293.6 388.2l1.7 2.3-2.2 1.9-1.8-2.3z"/>
									<path id="&lt;Path&gt;" class="s19" d="m286.8 397.4l-1.8-2.2 2.4-1.9 1.7 2.2z"/>
									<path id="&lt;Path&gt;" class="s19" d="m292.2 393l-2.2 1.9-1.8-2.3 2.3-1.9z"/>
									<path id="&lt;Path&gt;" class="s19" d="m296.1 391.6l1.6 2.1-2 2-1.8-2.3z"/>
									<path id="&lt;Path&gt;" class="s19" d="m290.1 401.3l-2.3-2.8 2.2-1.9 2 2.7z"/>
									<path id="&lt;Path&gt;" class="s19" d="m293.1 394.1l1.8 2.4-2 2-2.1-2.5z"/>
								</g>
								<g id="&lt;Group&gt;">
									<path id="&lt;Path&gt;" class="s16" d="m291 384.3l1.8 2.3-2.3 1.9-1.8-2.2z"/>
									<path id="&lt;Path&gt;" class="s16" d="m284.2 393.6l-1.8-2.1 2.5-2.1 1.7 2.2z"/>
									<path id="&lt;Path&gt;" class="s16" d="m289.7 389.1l-2.3 1.9-1.8-2.2 2.4-2z"/>
									<path id="&lt;Path&gt;" class="s16" d="m281.4 390.4l-2.5-3.1 2.8-2.1 2.3 3.1z"/>
									<path id="&lt;Path&gt;" class="s16" d="m284.8 387.7l-2.4-3 2.5-1.8 2.3 2.9z"/>
									<path id="&lt;Path&gt;" class="s16" d="m288.1 380.5l2.1 2.8-2.3 1.9-2.3-2.8z"/>
									<path id="&lt;Path&gt;" class="s16" d="m293.6 387.7l1.8 2.3-2.3 1.8-1.8-2.2z"/>
									<path id="&lt;Path&gt;" class="s16" d="m286.9 396.8l-1.8-2.1 2.4-1.9 1.7 2.2z"/>
									<path id="&lt;Path&gt;" class="s16" d="m292.3 392.5l-2.3 1.8-1.8-2.2 2.4-1.9z"/>
									<path id="&lt;Path&gt;" class="s16" d="m296.2 391.1l1.6 2.1-2 2-1.9-2.3z"/>
									<path id="&lt;Path&gt;" class="s16" d="m290.1 400.7l-2.3-2.8 2.2-1.8 2.1 2.7z"/>
									<path id="&lt;Path&gt;" class="s16" d="m293.1 393.6l1.9 2.4-2.1 2-2-2.6z"/>
								</g>
								<path id="&lt;Path&gt;" class="s20" d="m266.4 376.7c-1.2 3.2-1.4 6.9-1.3 10.2 0.2 4.9 1 9.7 3.1 14.2 3.4 7.1 9.1 14.3 15.9 19.3q-1.4 0.6-2.9 1.1c-0.1 0.1-0.3 0-0.4-0.1q0 0-0.1 0c-4.1-2.5-7.8-6.5-10.8-10.2-3-3.8-5.8-8.1-7.5-12.7-3.7-10.2-2.6-17.4 4-21.8z"/>
								<path id="&lt;Compound Path&gt;" class="s5" d="m232.4 400.3c1.5-3.7 6.3-9.5 9.6-11.7 11.2-7.6 20.6-7.6 22.4-7.3 4.3 0.7 9.2 9.7 2.9 14.7-0.3 0.2-0.5 0.2-0.7 0-6.5-0.3-13.5 0.6-19.2 4.1-5.4 3.4-8.4 8.1-10.6 13.9 0 0.2-0.3 0.3-0.5 0.2-1.9 0.8-4.4 0.7-6.3 0-0.1 0.3-0.6 0.2-0.6-0.1-0.3-4.6 1.4-9.6 3-13.8z"/>
								<path id="&lt;Path&gt;" class="s15" d="m238.7 405.5c2.2-3.4 4.9-6.5 8.2-8.9 6.8-4.9 14.8-5.5 22.5-3-0.5 0.8-1.2 1.7-2.1 2.4-0.3 0.2-0.5 0.2-0.7 0-6.5-0.3-13.5 0.6-19.2 4.1-5.4 3.4-8.4 8.1-10.6 13.9 0 0.2-0.3 0.3-0.5 0.2q-0.9 0.3-1.9 0.5c1.2-3.2 2.5-6.2 4.3-9.2z"/>
								<path id="&lt;Compound Path&gt;" fill-rule="evenodd" class="s5" d="m228.6 416.1c0.6-1.2 1.1-1.9 2.5-2.1 1.7-0.3 2.9 0.1 4.6 0.6 0.2-0.2 0.5 0 0.5 0.2 0.1 0.2 0.1 0.4 0 0.5-0.1 0.9 0.2 1.6 0.4 2.4 0.6 1.4 1.4 2.6 2.6 3.7 0.4 0.5 1.6 1.3 1.2 2.1-0.8 1.6-4.1-0.8-4.7-1.8 0 0-0.7 0.6-0.8 0.7-0.4 0.4-0.6 1-0.7 1.6-0.2 1.6-0.3 3.2-0.9 4.7-0.1 0.2-0.9 2.3-1.4 1.7-0.4-0.5-0.2-3.6-0.1-5.6-0.2 0.3-0.9 2-1.1 2.5-0.2 0.4-1.4 3.6-2 3.1-0.4-0.4 0.2-3.7 0.6-5.7q0 0.1 0 0.1c-0.4 0.8-1.1 1.7-1.5 2.5-0.3 0.6-0.9 1.9-1.5 1.4-0.3-0.2 0.1-1.4 0.3-2.1 0.2-0.8 0.7-1.9 0.9-2.8q0 0 0-0.1c-0.6 0.7-1.3 1.4-1.7 1.8-0.3 0.4-1 1-1.2 0.6-0.2-0.5 3.4-8.4 4-10zm3.3 8.1q-0.1 0 0 0 0 0 0 0z"/>
								<g id="&lt;Group&gt;">
									<path id="&lt;Path&gt;" class="s16" d="m227.8 413.6c0.8-0.8 2.2-0.7 3.2-0.7 2.2 0.1 4.6-0.3 6.6 0.6q0.3 0.1 0.6 0.4c0.5 0.5 0.4 1.3-0.2 1.6-0.3 0.1-0.6 0.2-0.9 0.3-2.8 0.4-5.6 0.3-8.4-0.3-0.5-0.2-1.1-0.4-1.2-1-0.1-0.3 0-0.6 0.2-0.8q0.1-0.1 0.1-0.1z"/>
								</g>
								<g id="&lt;Group&gt;" style="mix-blend-mode: multiply">
									<path id="&lt;Path&gt;" class="s15" d="m292.8 463.2q0-0.4 0.2-1c0.8-2.1 2.8-3.5 3.6-5.6 0.3-0.8 0.5-1.6 0.7-2.4q-0.1-0.1-0.2-0.1c0.3-1.1 0.3-2 0.6-3q0.2 0.1 0.4 0.2 0.1-0.3 0.2-0.6c0-0.2 0.1-0.5 0.1-0.8 0.1-0.3 0.5-0.5 0.8-0.3 1 0.6 2.5 1.2 3.8 1.6-1.6 3.9-3.8 7.2-5.7 11-0.9 1.8-1.6 4-1.8 6.1-0.2-0.4-0.2-0.8-0.2-1.2q0-0.1 0-0.3c-0.2 0.3-0.5 0.7-0.8 0.8-0.8 0.2-1.1-0.5-1.1-1.2 0-0.2 0.1-0.5 0.1-0.7q-0.1 0.2-0.4 0.3c-1.9 0.7-1-1.8-0.3-2.8z"/>
								</g>
								<g id="&lt;Group&gt;" style="mix-blend-mode: multiply">
									<path id="&lt;Path&gt;" class="s15" d="m336.1 426c-0.1-0.3 0.1-0.6 0.5-0.6 0.9 0 2.2-0.2 3.3-0.4 0.4 4.9 0.4 9.8 1.6 14.6 0.3 1.1 0.6 2.4 1.1 3.6-0.3-0.2-0.5-0.5-0.6-0.8q-0.1-0.1-0.1-0.2c-0.1 0.4-0.2 0.9-0.4 1.1-0.6 0.5-1.2 0.1-1.5-0.5-0.1-0.2-0.2-0.4-0.2-0.7q-0.1 0.3-0.2 0.5c-1.4 1.6-1.8-1.1-1.7-2.2q-0.3-0.4-0.4-1c-0.3-2.2 0.7-4.5 0.4-6.7-0.2-0.8-0.4-1.6-0.7-2.4q-0.1 0-0.2 0c-0.3-1.1-0.8-1.8-1-2.9q0.3 0 0.5 0-0.1-0.3-0.2-0.6c0-0.2-0.2-0.5-0.2-0.8z"/>
								</g>
							</g>
							<g id="&lt;Group&gt;">
								<path id="&lt;Path&gt;" class="s21" d="m235.4 395.6c5.8 0.5 8.5 6.4 7.6 11.7-1.2 6.6-6.6 12.4-10.8 17.3-8.9 10.4-19.7 19.8-23.8 33.2-3.2 10.4-1.1 21.9 7.7 28.7 7.2 5.6 16.7 7.2 25.5 6.3 21.6-2.2 33.9-22.3 51.2-32.8 9.5-5.8 20.7-8.2 31.2-3.7 10.9 4.6 18.3 14.1 22.8 24.8 4.4 10.4 6.8 21.7 7.4 33 0.6 11.1-0.6 22.5-5.2 32.7-1.1 2.5-2.4 4.4-4.4 6.4-1.3 1.3-4.2 0-3.4-2 1.9-4.7 4.2-9.2 5.5-14.1 1.4-5.3 2.1-10.7 2.2-16.1 0.3-11.1-1.5-22.3-5.1-32.8-3.5-10.3-9-20.1-18.7-25.7-9.9-5.7-20.6-3.7-30 2-17.1 10.4-29.1 29.3-50.1 32.6-17.8 2.8-38.5-4.8-42.5-24.1-2.7-13 3.7-25.6 11.6-35.5 4.3-5.3 9.1-10.1 13.6-15.2 2.3-2.5 4.6-5.1 6.6-7.9 2-2.7 4.2-5.7 4.5-9.1 0.1-2.6-1.3-5.5-3.9-6.3-1.8-0.5-1.5-3.5 0.5-3.4z"/>
							</g>
							<g id="&lt;Group&gt;">
								<path id="&lt;Path&gt;" class="s22" d="m419.9 383.1c1.5 10.3 11.2 17.5 21.5 15.9 10.4-1.5 17.5-11.1 16-21.5-1.6-10.4-11.2-17.5-21.6-16-10.3 1.6-17.5 11.2-15.9 21.6z"/>
								<path id="&lt;Path&gt;" class="s23" d="m431.3 381.2c-4.7-1.8-5-6.6-7.5-9.1-0.6-0.6-1.1-1-1.6-1.2q1.1-1.9 2.5-3.5c1.9 4.1 5.1 7.6 9.4 9.1 6.8 2.4 16.9-3 23.4 1.8 0.3 2.6 0 5.1-0.7 7.5q-0.8-1-1.7-1.9c-6.9-7-17.8-0.4-23.8-2.7z"/>
								<path id="&lt;Path&gt;" class="s24" d="m451.3 371.4c-9.8 1.4-15.4 1.6-18-4.9-0.7-1.8-0.9-3.1-1-4.1q1.7-0.6 3.5-0.9 0.3 0 0.6 0c0.6 1.2 1.3 2.3 2.2 3.1 2.7 2.4 10 4.8 14.3 3.2q1.7 2 2.9 4.4c-1.4-0.6-2.9-1-4.5-0.8z"/>
								<path id="&lt;Path&gt;" class="s25" d="m449.2 396c-1.3-1.3-2.6-2.7-4.4-3.7-3.2-1.6-6.7-2-10.3-2.2-4.6-0.2-9.3-1.5-13.6-3.1q-0.7-1.8-1-3.9-0.2-0.9-0.2-1.9c4.4 2.9 9.5 4.4 15.1 4.6 4.7 0.1 9.5 0.1 14 1.6 1.6 0.6 3.8 2 5.4 3.7-1.3 1.9-3 3.6-5 4.9z"/>
								<path id="&lt;Path&gt;" class="s26" d="m423.1 391.1c2 0.9 4 1.8 6.3 2.4 2.5 0.7 5.1 1.2 7.6 2.2 1.5 0.6 4.6 1.5 6.3 3q-0.9 0.2-1.9 0.3c-7.4 1.1-14.4-2.2-18.3-7.9z"/>
								<path id="&lt;Path&gt;" class="s27" d="m439.8 377.7c4.1 2.8 9.2 2.5 11.3-0.6 2.1-3.2 0.5-8-3.7-10.8-4.1-2.8-9.2-2.5-11.3 0.7-2.2 3.1-0.5 8 3.7 10.7z"/>
								<path id="&lt;Path&gt;" class="s28" d="m429.3 363.8c-4.3 4-6.7 10-5.8 16.3 1.5 10.1 10.9 17 21 15.5 3.8-0.5 7.1-2.1 9.7-4.5-2.9 4.1-7.4 7.1-12.8 7.9-10.3 1.6-20-5.6-21.5-15.9-1.2-8 2.8-15.6 9.4-19.3z"/>
							</g>
							<g id="&lt;Group&gt;">
								<g id="&lt;Group&gt;">
									<path id="&lt;Path&gt;" class="s29" d="m536.4 449.2c-2 12.8 6.8 24.9 19.6 26.9 12.8 2 24.8-6.8 26.8-19.6 2.1-12.8-6.7-24.8-19.5-26.8-12.8-2-24.9 6.7-26.9 19.5z"/>
								</g>
								<g id="&lt;Group&gt;" style="opacity: .8">
									<path id="&lt;Path&gt;" class="s30" d="m572.9 472.2c-4-1.9-3.5-6-5.7-9.4-2.5-3.9-6.2-2.4-10.2-3.4-4.3-1.2-6.1-5.2-6-9.4 0.1-2.6 1.8-9.8 4.9-10.5 3.7-1 0.8 5.4 1 7.6 0.3 5.1 2.2 5.9 6.5 6.5 2.1 0.3 3.8 0.6 5.6 2.1 1.5 1.3 2.4 4.2 4.2 5.1 2.7 1.4 6.5-0.5 9.5-3.3-1.3 6.2-4.9 11.4-9.8 14.7z"/>
									<path id="&lt;Path&gt;" class="s31" d="m577.1 450.2c-4.6 0.4-12.3-3.6-13.2-8.5-0.5-2.9 1.6-6.1 2.4-8.6 0.3-1.2 0.4-2 0.3-2.7q2.6 0.9 4.9 2.2c-1.1 0.9-2 1.8-2.5 2.9-1.6 3.7-0.7 6.8 3.1 7.9 2.4 0.6 6.8-0.6 8.4 1.8 2.1 3.2-1 4.8-3.4 5z"/>
									<path id="&lt;Path&gt;" class="s32" d="m551.1 431q-0.3 0.6-0.7 1.1c-1.7 2-4.6 2.8-4.2 6 0.3 2.1 1.8 2.5 1.5 4.9-0.2 2.2-1.4 5.2-2.4 7.1-1.7 2.8-3.2 2.9-4.4-0.4-1.2-3.2 0.5-4 1.3-6.5 0.6-2-0.1-3.4-1-4.9 2.6-3.3 6-5.8 9.9-7.3z"/>
									<path id="&lt;Path&gt;" class="s30" d="m551 472.8c-5.3-2.2-4.6-8.1 1.1-9.8 2.2-0.7 4.4 0.1 6.1 1.6 2.5 2.1 1.2 4.6 2.7 6.7 1.6 2.3 5 0.9 7.1 2.5q0.4 0.3 0.8 0.7c-2.2 0.9-4.5 1.5-6.9 1.8-2.5-2.8-7.4-2-10.9-3.5z"/>
									<path id="&lt;Path&gt;" class="s30" d="m536.2 453.1c0.6 1.9 1.8 3.3 4.2 3.2 3.4-0.2 5.9-0.2 5.7 4-0.1 2.4-2.2 6.2-4.4 7.7-3.4-4.1-5.5-9.3-5.5-14.9z"/>
								</g>
								<path id="&lt;Path&gt;" class="s28" d="m554.8 429.9c-6.7 3.1-11.7 9.4-12.9 17.2-2 12.5 6.6 24.2 19.1 26.1 4.6 0.8 9.1 0 13.1-1.8-5 3.9-11.4 5.7-18.1 4.7-12.8-2-21.6-14.1-19.6-26.9 1.6-9.9 9.1-17.3 18.4-19.3z"/>
								<path id="&lt;Path&gt;" class="s33" d="m561.9 450.3c3.9 4.8 10 6.4 13.7 3.4 3.7-2.9 3.5-9.2-0.4-14.1-3.9-4.8-10-6.4-13.7-3.4-3.6 2.9-3.5 9.3 0.4 14.1z"/>
							</g>
							<g id="&lt;Group&gt;">
								<g id="&lt;Group&gt;">
									<g id="&lt;Group&gt;">
										<path id="&lt;Path&gt;" class="s34" d="m245.7 262.4c-0.7 8.4 5.7 15.8 14.2 16.4 8.4 0.7 15.8-5.7 16.4-14.2 0.7-8.4-5.7-15.8-14.2-16.4-8.4-0.7-15.8 5.7-16.4 14.2z"/>
									</g>
									<path id="&lt;Path&gt;" class="s35" d="m262.4 261.7c2.7 2.9 6.8 3.6 9.1 1.5 2.2-2.1 1.7-6.2-1-9.2-2.8-2.9-6.9-3.6-9.2-1.5-2.2 2.1-1.7 6.2 1.1 9.2z"/>
								</g>
								<path id="&lt;Path&gt;" class="s11" d="m245.7 262.4c0.4-6.5 4.9-11.7 10.7-13.6-2.1 2.3-3.6 5.3-3.8 8.6-0.6 7.6 5.2 14.3 12.8 14.8 3.7 0.3 7.3-0.9 9.9-3.2-2.3 6.2-8.5 10.3-15.4 9.8-8.5-0.6-14.9-8-14.2-16.4z"/>
							</g>
							<g id="&lt;Group&gt;">
								<g id="&lt;Group&gt;">
									<g id="&lt;Group&gt;">
										<path id="&lt;Path&gt;" class="s36" d="m360.4 485.4c-0.3 3.4 2.3 6.4 5.6 6.6 3.4 0.3 6.4-2.3 6.6-5.6 0.3-3.4-2.3-6.4-5.7-6.6-3.3-0.3-6.3 2.3-6.5 5.6z"/>
									</g>
								</g>
								<path id="&lt;Path&gt;" class="s11" d="m360.4 485.4c0.2-2.5 1.9-4.6 4.3-5.4-0.9 0.9-1.5 2.1-1.6 3.5-0.2 3 2.1 5.7 5.1 5.9 1.6 0.1 3-0.4 4-1.3-0.9 2.5-3.4 4.1-6.2 3.9-3.3-0.2-5.9-3.2-5.6-6.6z"/>
							</g>
							<g id="&lt;Group&gt;">
								<g id="&lt;Group&gt;">
									<path id="&lt;Path&gt;" class="s37" d="m417.7 288.7l2.3-4.1c-8.2-4.6-19.7-8.6-32.3-11.4-13-2.9-25.8-4-35.2-3.1l0.4 4.7c9-0.8 21.2 0.3 33.8 3 12 2.6 23.3 6.6 31 10.9z"/>
								</g>
								<g id="&lt;Group&gt;">
									<g id="&lt;Group&gt;">
										<path id="&lt;Path&gt;" class="s38" d="m355.5 284c-3.5 15.8 6.5 31.3 22.2 34.7 15.7 3.5 31.2-6.5 34.7-22.2 3.4-15.7-6.5-31.2-22.2-34.7-15.8-3.4-31.3 6.5-34.7 22.2z"/>
										<g id="&lt;Group&gt;">
											<path id="&lt;Path&gt;" class="s39" d="m408.3 306.3c-14.2 5.5-29.9-7.5-34.8-20.1-3-7.4-2.3-16.8 1.6-23.7 3.3-1 6.9-1.5 10.5-1.3-5.8 6.6-8.6 15.7-5.9 25 2.7 9.1 12.2 18.1 22.1 16.6 5.1-0.8 8.6-3.6 10.8-7.5q-0.1 0.6-0.2 1.2c-0.8 3.6-2.2 6.9-4.1 9.8z"/>
											<path id="&lt;Path&gt;" class="s39" d="m365.9 267.4c-1.9 4.7-3.1 9.6-3.4 15.1-0.3 5.8 2.6 12.2 0.6 17.8-0.6 1.5-1.5 4.5-2.7 7.2-4.8-6.5-6.8-15-4.9-23.5 1.5-6.8 5.3-12.6 10.4-16.6z"/>
										</g>
										<path id="&lt;Path&gt;" class="s39" d="m375.4 303.4c2.8 2.9 5.4 6.2 8.8 8.5 2.3 1.6 4.8 2.8 7.5 3.5 0.5 0.2 3 0.8 5.1 1-5.8 2.8-12.4 3.8-19.1 2.3q-3.4-0.7-6.3-2.1c-0.6-1.6-1-3.2-1.1-4.9-0.4-2.7-1.2-5.7-0.8-8.5 0.8-4.4 3.9-1.9 5.9 0.2z"/>
									</g>
									<path id="&lt;Path&gt;" class="s40" d="m379.6 261.5c-8.5 3.3-15.1 10.7-17.2 20.3-3.4 15.3 6.3 30.4 21.6 33.8 5.7 1.2 11.3 0.7 16.4-1.3-6.4 4.4-14.5 6.2-22.7 4.4-15.7-3.4-25.7-18.9-22.2-34.7 2.6-12.1 12.5-20.8 24.1-22.5z"/>
									<path id="&lt;Path&gt;" class="s41" d="m386.9 287.3c4.5 6.2 12 8.6 16.7 5.2 4.8-3.4 5.1-11.2 0.6-17.5-4.5-6.3-11.9-8.6-16.7-5.2-4.8 3.3-5 11.2-0.6 17.5z"/>
								</g>
								<g id="&lt;Group&gt;">
									<path id="&lt;Path&gt;" class="s37" d="m409.4 307.2q2.6 0 5-0.2c10.4-0.6 16.4-3.5 17.4-8.1 1-4.6-3.1-9.5-11.8-14.3l-2.3 4.1c7.6 4.2 9.8 7.6 9.5 9.2-0.4 1.8-4.6 3.8-13.1 4.4-8.9 0.6-20.3-0.6-32.1-3.2-11.9-2.6-22.7-6.3-30.5-10.5-7.5-4.1-10.4-7.7-10-9.5 0.3-1.6 3.5-3.6 11.4-4.3l-0.4-4.7c-9.4 0.8-14.7 3.5-15.7 8-1 4.6 3.3 9.7 12.4 14.6 8.2 4.5 19.5 8.4 31.8 11.1 10.1 2.2 20 3.4 28.4 3.4z"/>
								</g>
							</g>
						</g>
						<g id="&lt;Group&gt;">
							<g id="&lt;Group&gt;">
							</g>
						</g>
					</g>
				</g>
				<g id="&lt;Clip Group&gt;" clip-path="url(#cp3)">
				</g>
			</g>
		</g>
	</g>
	<g id="DESIGNED BY FREEPIK">
		<g id="&lt;Group&gt;">
			<g id="&lt;Group&gt;">
				<g id="&lt;Group&gt;">
					<path id="&lt;Path&gt;" class="s42" d="m201.2 765.9q-1.3 1.4-2.2 2.9l-0.9-0.4c-0.2-0.6-0.7-1.1-1.4-1-0.6 0.1-1.1 0.7-1 1.4 0.1 0.6 0.7 1.1 1.3 1q0.2 0 0.4-0.1l0.9 0.5q-0.8 1.7-1.1 3.5l1.5 0.2c0.5-2.6 1.7-5 3.6-6.9z"/>
					<path id="&lt;Path&gt;" class="s42" d="m212.2 761.3q-0.5 0-1 0.1l-0.2-1.3c0.4-0.3 0.6-0.8 0.5-1.3 0-0.8-0.8-1.3-1.5-1.2-0.8 0.1-1.4 0.8-1.3 1.6 0.1 0.5 0.4 0.9 0.8 1.1l0.2 1.2q-2.2 0.4-4.2 1.3l0.7 1.4q2.8-1.4 6-1.4 1.5 0 2.9 0.4l0.4-1.5q-1.7-0.4-3.3-0.4z"/>
					<path id="&lt;Path&gt;" class="s42" d="m225.4 766.4c0.6-0.1 1.1-0.7 1-1.3 0-0.7-0.6-1.2-1.3-1.1-0.6 0.1-1.1 0.6-1.1 1.2l-0.8 0.8q-1.3-1.3-2.8-2.3l-0.8 1.3c2.2 1.4 4 3.4 5.1 5.8l1.4-0.6q-0.8-1.7-1.9-3.1l0.8-0.7q0.2 0 0.4 0z"/>
					<path id="&lt;Path&gt;" class="s42" d="m211.1 781.7q-1.2 0.1-2.3 0.1c-1.8 0-3.5-0.1-5-0.3-0.8-0.2-1.7-0.4-2.5-0.6 2.1 3.7 6.1 6.2 10.8 6.2 5.7 0 10.5-3.8 11.9-9q-2.1 1.4-5 2.3c-2.3 0.7-5.1 1.2-7.9 1.3z"/>
					<path id="&lt;Compound Path&gt;" fill-rule="evenodd" class="s42" d="m224.2 774.8q0.1 0.5 0.1 1.1c-2.7 2.4-7.5 4-13.3 4.3-5.3 0.3-9.4-0.5-10.7-1.4q-0.3-1.3-0.3-2.6c0-6.5 5.5-11.8 12.2-11.8 6.1 0 11.3 4.4 12 10.4zm-12.6-1.1c0-2.1-1.7-3.7-3.7-3.7-2.1 0-3.7 1.6-3.7 3.7 0 2 1.6 3.7 3.7 3.7 2 0 3.7-1.7 3.7-3.7zm8.5-0.8c0-1.5-1.3-2.8-2.8-2.8-1.5 0-2.7 1.3-2.7 2.8 0 1.5 1.2 2.7 2.7 2.7 1.5 0 2.8-1.2 2.8-2.7z"/>
				</g>
				<path id="&lt;Compound Path&gt;" class="s42" d="m244.2 768.1c-0.6-0.2-1.6-0.6-2.8-0.5-1.1 0.2-1.7 0.7-1.7 2v1.8h4.5v3.4h-4.5v10.9h-3.8v-10.9h-2.7v-3.4h2.7v-1.8c0-3.4 1.8-5.6 5.1-5.6 1.3 0 2.3 0.3 3.2 0.6z"/>
				<path id="&lt;Compound Path&gt;" class="s42" d="m253.6 774.8q-0.5-0.1-1.1-0.1c-1.7 0-3 1.1-3 3.2v7.8h-3.8v-14.3h3.7v1.5c0.9-1.3 2.3-1.9 4-1.9 0.9 0 1.7 0.2 2.2 0.7z"/>
				<path id="&lt;Compound Path&gt;" fill-rule="evenodd" class="s42" d="m268.9 778.5c0 0.5 0 1 0 1.3h-10.2c0.4 2.1 1.9 3 3.7 3 1.2 0 2.6-0.5 3.6-1.4l2.3 2.5c-1.7 1.5-3.7 2.2-6.1 2.2-4.4 0-7.5-3-7.5-7.5 0-4.5 3-7.6 7.3-7.6 4.1 0 6.9 3 6.9 7.5zm-10.2-1.3h6.4c-0.4-1.9-1.5-2.9-3.2-2.9-1.8 0-2.9 1.1-3.2 2.9z"/>
				<path id="&lt;Compound Path&gt;" fill-rule="evenodd" class="s42" d="m284.2 778.5c0 0.5 0 1 0 1.3h-10.2c0.4 2.1 1.9 3 3.7 3 1.2 0 2.6-0.5 3.6-1.4l2.3 2.5c-1.7 1.5-3.7 2.2-6.1 2.2-4.4 0-7.5-3-7.5-7.5 0-4.5 3-7.6 7.3-7.6 4.1 0 6.9 3 6.9 7.5zm-10.2-1.3h6.4c-0.4-1.9-1.5-2.9-3.2-2.9-1.8 0-2.9 1.1-3.2 2.9z"/>
				<path id="&lt;Compound Path&gt;" fill-rule="evenodd" class="s42" d="m300.9 778.5c0 4.3-3 7.6-6.9 7.6-1.9 0-3.3-0.8-4.2-1.9v7.4h-3.9v-20.2h3.8v1.5c0.9-1.1 2.3-1.9 4.3-1.9 3.9 0 6.9 3.2 6.9 7.5zm-11.3 0c0 2.3 1.5 4 3.7 4 2.2 0 3.7-1.8 3.7-4 0-2.2-1.5-3.9-3.7-3.9-2.2 0-3.7 1.7-3.7 3.9z"/>
				<path id="&lt;Compound Path&gt;" class="s42" d="m307.1 766.7c0 1.4-1 2.4-2.4 2.4-1.4 0-2.5-1-2.5-2.4 0-1.4 1.1-2.5 2.5-2.5 1.4 0 2.4 1.1 2.4 2.5zm-0.5 19h-3.8v-14.3h3.8z"/>
				<path id="&lt;Compound Path&gt;" class="s42" d="m313.1 776.5l5.4-5.1h4.7l-7 6.7 7 7.6h-4.7l-5.4-5.8v5.8h-3.9v-21.3h3.9z"/>
			</g>
			<g id="&lt;Group&gt;">
				<path id="&lt;Compound Path&gt;" fill-rule="evenodd" class="s42" d="m49.8 785.6v-2.1c-1 1.4-2.8 2.4-4.8 2.4-3.6 0-6.2-2.8-6.2-7.4 0-4.5 2.5-7.4 6.2-7.4 2 0 3.7 0.9 4.8 2.5v-7.6h2.2v19.6zm0-3.9v-6.4c-0.8-1.2-2.5-2.3-4.2-2.3-2.9 0-4.6 2.4-4.6 5.5 0 3.2 1.7 5.5 4.6 5.5 1.7 0 3.4-1 4.2-2.3z"/>
				<path id="&lt;Compound Path&gt;" fill-rule="evenodd" class="s42" d="m54.9 778.5c0-4.1 2.9-7.4 6.9-7.4 4.3 0 6.8 3.3 6.8 7.6v0.5h-11.4c0.2 2.7 2 4.9 5.1 4.9 1.6 0 3.2-0.6 4.3-1.8l1.1 1.5c-1.4 1.4-3.3 2.1-5.6 2.1-4.2 0-7.2-3-7.2-7.4zm6.9-5.6c-3 0-4.5 2.5-4.6 4.7h9.3c-0.1-2.1-1.5-4.7-4.7-4.7z"/>
				<path id="&lt;Compound Path&gt;" class="s42" d="m70.2 783.7l1.2-1.6c0.9 1.1 2.7 2 4.6 2 2.2 0 3.4-1 3.4-2.4 0-3.4-8.8-1.3-8.8-6.6 0-2.1 1.9-4 5.3-4 2.4 0 4.1 0.9 5.2 2l-1 1.6c-0.9-1.1-2.4-1.8-4.2-1.8-2 0-3.2 0.9-3.2 2.2 0 3.1 8.8 1 8.8 6.6 0 2.3-1.9 4.2-5.6 4.2-2.3 0-4.3-0.7-5.7-2.2z"/>
				<path id="&lt;Compound Path&gt;" class="s42" d="m84 767.9c0-0.8 0.6-1.5 1.4-1.5 0.8 0 1.5 0.7 1.5 1.5 0 0.9-0.7 1.5-1.5 1.5-0.8 0-1.4-0.6-1.4-1.5zm0.3 17.7v-14.2h2.2v14.2z"/>
				<path id="&lt;Compound Path&gt;" fill-rule="evenodd" class="s42" d="m90.2 789.2l1.1-1.6c1.1 1.4 2.6 1.9 4.6 1.9 2.3 0 4.5-1.1 4.5-4.2v-2.1c-1 1.5-2.7 2.6-4.7 2.6-3.7 0-6.3-2.8-6.3-7.4 0-4.5 2.6-7.3 6.3-7.3 1.9 0 3.6 0.9 4.7 2.5v-2.2h2.2v13.8c0 4.7-3.3 6.1-6.7 6.1-2.4 0-4.1-0.4-5.7-2.1zm10.2-7.7v-6.2c-0.7-1.2-2.4-2.3-4.2-2.3-2.8 0-4.5 2.3-4.5 5.4 0 3.1 1.7 5.4 4.5 5.4 1.8 0 3.5-1.1 4.2-2.3z"/>
				<path id="&lt;Compound Path&gt;" class="s42" d="m115.8 785.6v-9.3c0-2.5-1.2-3.3-3.1-3.3-1.8 0-3.4 1.1-4.2 2.2v10.4h-2.2v-14.2h2.2v2.1c1-1.2 2.9-2.4 5-2.4 3 0 4.5 1.5 4.5 4.5v10z"/>
				<path id="&lt;Compound Path&gt;" fill-rule="evenodd" class="s42" d="m120.9 778.5c0-4.1 2.9-7.4 6.9-7.4 4.3 0 6.8 3.3 6.8 7.6v0.5h-11.4c0.2 2.7 2 4.9 5.1 4.9 1.6 0 3.2-0.6 4.3-1.8l1.1 1.5c-1.4 1.4-3.3 2.1-5.6 2.1-4.2 0-7.2-3-7.2-7.4zm6.9-5.6c-3 0-4.5 2.5-4.6 4.7h9.3c-0.1-2.1-1.5-4.7-4.7-4.7z"/>
				<path id="&lt;Compound Path&gt;" fill-rule="evenodd" class="s42" d="m147.7 785.6v-2.1c-1.1 1.4-2.8 2.4-4.8 2.4-3.7 0-6.3-2.8-6.3-7.4 0-4.5 2.6-7.4 6.3-7.4 1.9 0 3.7 0.9 4.8 2.5v-7.6h2.2v19.6zm0-3.9v-6.4c-0.8-1.2-2.5-2.3-4.3-2.3-2.8 0-4.5 2.4-4.5 5.5 0 3.2 1.7 5.5 4.5 5.5 1.8 0 3.5-1 4.3-2.3z"/>
				<path id="&lt;Compound Path&gt;" fill-rule="evenodd" class="s42" d="m160.4 785.6v-19.6h2.2v7.6c1.1-1.6 2.8-2.5 4.8-2.5 3.6 0 6.3 2.9 6.3 7.4 0 4.6-2.7 7.4-6.3 7.4-2 0-3.8-1-4.8-2.4v2.1zm6.4-1.6c2.9 0 4.6-2.3 4.6-5.5 0-3.1-1.7-5.5-4.6-5.5-1.7 0-3.5 1.1-4.2 2.3v6.4c0.7 1.3 2.5 2.3 4.2 2.3z"/>
				<path id="&lt;Compound Path&gt;" class="s42" d="m176.1 789.1c0.3 0.2 0.8 0.3 1.2 0.3 0.9 0 1.6-0.4 2.1-1.5l0.9-2.2-5.9-14.3h2.4l4.7 11.6 4.7-11.6h2.4l-7.1 17c-0.9 2.1-2.3 2.9-4.2 2.9-0.5 0-1.2-0.1-1.6-0.2z"/>
			</g>
		</g>
	</g>
</svg>