<svg version="1.2" xmlns="http://www.w3.org/2000/svg" viewBox="0 0 724 642" width="1080" height="958">
	<title>2624667-ai</title>
	<defs>
		<clipPath clipPathUnits="userSpaceOnUse" id="cp1">
			<path d="m723.97 670.35h-1085.94v-678.7h1085.94z"/>
		</clipPath>
		<clipPath clipPathUnits="userSpaceOnUse" id="cp2">
			<path d="m723.97 670.35h-1085.94v-678.7h1085.94z"/>
		</clipPath>
		<linearGradient id="g1" x2="1" gradientUnits="userSpaceOnUse" gradientTransform="matrix(533.134,836.003,-597.495,381.034,630.227,-252.614)">
			<stop offset="0" stop-color="#ff96b0" stop-opacity="1"/>
			<stop offset="1" stop-color="#ffffff" stop-opacity="0"/>
		</linearGradient>
		<linearGradient id="g2" x2="1" gradientUnits="userSpaceOnUse" gradientTransform="matrix(-344.654,-510.753,359.84,-242.818,483.962,866.194)">
			<stop offset="0" stop-color="#ff96b0" stop-opacity="1"/>
			<stop offset="1" stop-color="#ffffff" stop-opacity="0"/>
		</linearGradient>
		<radialGradient id="g3" cx="0" cy="0" r="1" gradientUnits="userSpaceOnUse" gradientTransform="matrix(25.724,33.584,-33.584,25.724,375.137,282.288)">
			<stop offset="0" stop-color="#4dd4d6"/>
			<stop offset="1" stop-color="#7045a1"/>
		</radialGradient>
		<linearGradient id="g4" x2="1" gradientUnits="userSpaceOnUse" gradientTransform="matrix(-45.318,73.425,-59.093,-36.472,413.127,270.911)">
			<stop offset="0" stop-color="#ffffff" stop-opacity="1"/>
			<stop offset="1" stop-color="#ffffff" stop-opacity="0"/>
		</linearGradient>
		<linearGradient id="g5" x2="1" gradientUnits="userSpaceOnUse" gradientTransform="matrix(-43.482,70.45,-56.075,-34.609,397.211,263.071)">
			<stop offset="0" stop-color="#ffffff" stop-opacity="1"/>
			<stop offset="1" stop-color="#ffffff" stop-opacity="0"/>
		</linearGradient>
		<linearGradient id="g6" x2="1" gradientUnits="userSpaceOnUse" gradientTransform="matrix(-46.303,75.021,-70.113,-43.273,419.357,275.059)">
			<stop offset="0" stop-color="#ffffff" stop-opacity="1"/>
			<stop offset="1" stop-color="#ffffff" stop-opacity="0"/>
		</linearGradient>
		<linearGradient id="g7" x2="1" gradientUnits="userSpaceOnUse" gradientTransform="matrix(-43.028,69.715,-54.218,-33.463,421.676,278.669)">
			<stop offset="0" stop-color="#ffffff" stop-opacity="1"/>
			<stop offset="1" stop-color="#ffffff" stop-opacity="0"/>
		</linearGradient>
		<linearGradient id="g8" x2="1" gradientUnits="userSpaceOnUse" gradientTransform="matrix(-38.022,27.769,-21.092,-28.879,415.402,278.612)">
			<stop offset="0" stop-color="#ffffff" stop-opacity="1"/>
			<stop offset="1" stop-color="#ffffff" stop-opacity="0"/>
		</linearGradient>
		<radialGradient id="g9" cx="0" cy="0" r="1" gradientUnits="userSpaceOnUse" gradientTransform="matrix(62.827,44.628,-44.628,62.827,203.209,369.039)">
			<stop offset="0" stop-color="#fbec5f"/>
			<stop offset=".568" stop-color="#ff295e"/>
			<stop offset="1" stop-color="#75017e"/>
		</radialGradient>
		<linearGradient id="g10" x2="1" gradientUnits="userSpaceOnUse" gradientTransform="matrix(-34.683,46.9,-35.621,-26.343,255.109,358.508)">
			<stop offset="0" stop-color="#ffffff" stop-opacity="1"/>
			<stop offset="1" stop-color="#ffffff" stop-opacity="0"/>
		</linearGradient>
		<radialGradient id="g11" cx="0" cy="0" r="1" gradientUnits="userSpaceOnUse" gradientTransform="matrix(30.035,20.695,-20.695,30.035,614.134,117.956)">
			<stop offset="0" stop-color="#fbec5f"/>
			<stop offset="1" stop-color="#00c1c5"/>
		</radialGradient>
		<linearGradient id="g12" x2="1" gradientUnits="userSpaceOnUse" gradientTransform="matrix(-13.193,34.037,-28.024,-10.862,630.013,115.562)">
			<stop offset="0" stop-color="#ffffff" stop-opacity="1"/>
			<stop offset="1" stop-color="#ffffff" stop-opacity="0"/>
		</linearGradient>
		<radialGradient id="g13" cx="0" cy="0" r="1" gradientUnits="userSpaceOnUse" gradientTransform="matrix(34.144,19.514,-19.514,34.144,472.526,408.139)">
			<stop offset=".235" stop-color="#00c1c5"/>
			<stop offset="1" stop-color="#7045a1"/>
		</radialGradient>
		<radialGradient id="g14" cx="0" cy="0" r="1" gradientUnits="userSpaceOnUse" gradientTransform="matrix(41.134,30.442,-30.442,41.134,445.752,167.748)">
			<stop offset="0" stop-color="#ff5a83"/>
			<stop offset="1" stop-color="#75017e"/>
		</radialGradient>
		<linearGradient id="g15" x2="1" gradientUnits="userSpaceOnUse" gradientTransform="matrix(-39.449,60.657,-46.07,-29.963,490.61,134.359)">
			<stop offset="0" stop-color="#ffffff" stop-opacity="1"/>
			<stop offset="1" stop-color="#ffffff" stop-opacity="0"/>
		</linearGradient>
		<clipPath clipPathUnits="userSpaceOnUse" id="cp3">
			<path d="m723.97 670.35h-1085.94v-678.7h1085.94z"/>
		</clipPath>
	</defs>
	<style>
		.s0 { fill: #2b1645 } 
		.s1 { opacity: .5;mix-blend-mode: overlay;fill: url(#g1) } 
		.s2 { opacity: .5;mix-blend-mode: overlay;fill: url(#g2) } 
		.s3 { fill: #fbec5f } 
		.s4 { fill: #00c1c5 } 
		.s5 { fill: #ffffff } 
		.s6 { fill: #33cdd1 } 
		.s7 { fill: #75017e } 
		.s8 { fill: #cec0df } 
		.s9 { fill: #007c9e } 
		.s10 { fill: #d5d0da } 
		.s11 { mix-blend-mode: multiply;fill: #eae8ec } 
		.s12 { mix-blend-mode: multiply;fill: #d5d0da } 
		.s13 { fill: #382450 } 
		.s14 { opacity: .5;mix-blend-mode: overlay;fill: #ffffff } 
		.s15 { fill: #dfdce3 } 
		.s16 { fill: #9575b9 } 
		.s17 { fill: #998fa6 } 
		.s18 { fill: #827691 } 
		.s19 { fill: #7045a1 } 
		.s20 { mix-blend-mode: multiply;fill: #dfdce3 } 
		.s21 { fill: #8561af } 
		.s22 { fill: url(#g3) } 
		.s23 { opacity: .8;mix-blend-mode: overlay;fill: url(#g4) } 
		.s24 { opacity: .8;mix-blend-mode: overlay;fill: url(#g5) } 
		.s25 { opacity: .8;mix-blend-mode: overlay;fill: url(#g6) } 
		.s26 { opacity: .8;mix-blend-mode: overlay;fill: url(#g7) } 
		.s27 { mix-blend-mode: overlay;fill: url(#g8) } 
		.s28 { mix-blend-mode: multiply;fill: #e1dee5 } 
		.s29 { fill: url(#g9) } 
		.s30 { opacity: .8;mix-blend-mode: overlay;fill: #fef9cc } 
		.s31 { opacity: .4;mix-blend-mode: overlay;fill: #fef9cc } 
		.s32 { mix-blend-mode: overlay;fill: #fef9cc } 
		.s33 { mix-blend-mode: overlay;fill: url(#g10) } 
		.s34 { fill: url(#g11) } 
		.s35 { mix-blend-mode: overlay;fill: url(#g12) } 
		.s36 { fill: url(#g13) } 
		.s37 { fill: #8fe4e5 } 
		.s38 { fill: url(#g14) } 
		.s39 { opacity: .5;mix-blend-mode: overlay;fill: #fbec5f } 
		.s40 { mix-blend-mode: multiply;fill: #b5adbe } 
		.s41 { mix-blend-mode: overlay;fill: url(#g15) } 
		.s42 { fill: #1d262d } 
	</style>
	<g id="BACKGROUND">
	</g>
	<g id="OBJECTS">
		<g id="&lt;Group&gt;">
			<g id="&lt;Group&gt;">
				<g id="&lt;Clip Group&gt;" clip-path="url(#cp1)">
				</g>
				<g id="&lt;Clip Group&gt;" clip-path="url(#cp2)">
					<g id="&lt;Group&gt;">
						<g id="&lt;Group&gt;">
							<g id="&lt;Group&gt;">
								<g id="&lt;Group&gt;">
									<path id="&lt;Path&gt;" class="s0" d="m526.5 610.1c-4.6-60.7 45.2-120.5 108-129.9 23-3.4 47.5-1 68.5-10.7 28.9-13.5 42.1-45.9 48.2-76.2 6-30.2 7.9-62.4 24.8-88.7 11.6-18 29.3-31.6 43.2-48.1 33.2-39.3 42.7-92.2 46.4-142.7 2.9-41.3 2.4-84.5-16.8-121.6-28.1-53.9-88.4-82.7-148.6-103.8-56.4-81.3-160.8-90.4-255.4-95.2-44.9-2.3-89.9-4.5-134.6-0.3-63.3 5.8-125.2 24.4-180.5 54.2-41.1 22.1-79.6 51.5-101.6 91.3-20 36.1-25 79.4-13.7 118.8 11.3 39.3 38.7 74.1 75.1 95.3 21.3 12.5 45.3 20.3 67.5 31.3 16.6 8.2 32.6 18.6 42.9 33.6 18 26.5 14.4 61.2 7.2 92.1-7.2 30.8-17.3 62.7-9.9 93.5 7.2 29.8 31.6 55.2 62 64.5 21.9 6.8 46.1 5.6 67.6 13.5 35.4 12.9 58 52.2 50.4 87.8z"/>
								</g>
								<path id="&lt;Path&gt;" class="s1" d="m245.2 126.1c4.4 31.3 14 61.9 36 83.1 56.6 54.3 161.8 17.8 224.7-4.5 78.1-27.8 197.6-82.2 268.6-11.4 17.4 17.4 29.1 40.9 37.3 65.2 12.3 36.5 17.4 76.7 8.7 113.8-8.7 37.1-32.6 70.3-65.3 81.9-15.4 5.5-44.4 5.6-53.2-11.7-2-4-2.5-8.6-3-13-2.3-18.4-6.7-36.5-13-53.9-8.9-24.8-23.9-50-48.7-58.6-51.8-18.2-107.9 32.2-149.1 56.3-49.5 28.9-103.1 59.7-161 67.1-37.8 4.8-88.9-3.3-111-37.7-39.8-62.2-27-149.2-35.4-219.4-6.4-54.7-21.7-112.1-56.8-155.8-23.8-29.6-58.7-67.2-34.1-107.4 22.8-37.2 81.4-61.2 123.3-65.8 23.3-2.5 41.2 7 37.8 34.9-7 58.6-12.3 117.6-10.2 176.6 0.7 18.8 1.4 39.7 4.4 60.3z"/>
								<path id="&lt;Path&gt;" class="s2" d="m245.2 126.1c4.4 31.3 14 61.9 36 83.1 56.6 54.3 161.8 17.8 224.7-4.5 78.1-27.8 197.6-82.2 268.6-11.4 17.4 17.4 29.1 40.9 37.3 65.2 12.3 36.5 17.4 76.7 8.7 113.8-8.7 37.1-32.6 70.3-65.3 81.9-15.4 5.5-44.4 5.6-53.2-11.7-2-4-2.5-8.6-3-13-2.3-18.4-6.7-36.5-13-53.9-8.9-24.8-23.9-50-48.7-58.6-51.8-18.2-107.9 32.2-149.1 56.3-49.5 28.9-103.1 59.7-161 67.1-37.8 4.8-88.9-3.3-111-37.7-39.8-62.2-27-149.2-35.4-219.4-6.4-54.7-21.7-112.1-56.8-155.8-23.8-29.6-58.7-67.2-34.1-107.4 22.8-37.2 81.4-61.2 123.3-65.8 23.3-2.5 41.2 7 37.8 34.9-7 58.6-12.3 117.6-10.2 176.6 0.7 18.8 1.4 39.7 4.4 60.3z"/>
								<g id="&lt;Group&gt;">
									<g id="&lt;Group&gt;">
										<path id="&lt;Path&gt;" class="s3" d="m640.9 201.1c2.4 0 2.4-3.7 0-3.7-2.4 0-2.4 3.7 0 3.7z"/>
									</g>
								</g>
								<g id="&lt;Group&gt;">
									<g id="&lt;Group&gt;">
										<path id="&lt;Path&gt;" class="s3" d="m640.9 96c2.1 0 2.1-3.2 0-3.2-2.1 0-2.1 3.2 0 3.2z"/>
									</g>
								</g>
								<g id="&lt;Group&gt;">
									<g id="&lt;Group&gt;">
										<path id="&lt;Path&gt;" class="s3" d="m353.5 217.6c2 0 2-3 0-3-2 0-2 3 0 3z"/>
									</g>
								</g>
								<g id="&lt;Group&gt;">
									<g id="&lt;Group&gt;">
										<path id="&lt;Path&gt;" class="s3" d="m374.1 267.9c1.6 0 1.6-2.5 0-2.5-1.6 0-1.6 2.5 0 2.5z"/>
									</g>
								</g>
								<g id="&lt;Group&gt;">
									<g id="&lt;Group&gt;">
										<path id="&lt;Path&gt;" class="s3" d="m468.7 346.4c2.6 0 2.6-4.1 0-4.1-2.7 0-2.7 4.1 0 4.1z"/>
									</g>
								</g>
								<g id="&lt;Group&gt;">
									<g id="&lt;Group&gt;">
										<path id="&lt;Path&gt;" class="s3" d="m581 406.9c2.2 0 2.2-3.4 0-3.4-2.2 0-2.2 3.4 0 3.4z"/>
									</g>
								</g>
								<g id="&lt;Group&gt;">
									<g id="&lt;Group&gt;">
										<path id="&lt;Path&gt;" class="s3" d="m148.5 197.1c2.1 0 2.1-3.2 0-3.2-2.1 0-2.1 3.2 0 3.2z"/>
									</g>
								</g>
								<g id="&lt;Group&gt;">
									<g id="&lt;Group&gt;">
										<path id="&lt;Path&gt;" class="s3" d="m53 131.8c1.1 0 1.1-1.7 0-1.7-1.1 0-1.1 1.7 0 1.7z"/>
									</g>
								</g>
								<g id="&lt;Group&gt;">
									<g id="&lt;Group&gt;">
										<path id="&lt;Path&gt;" class="s3" d="m247.7 104.2c3 0 3-4.6 0-4.6-3 0-3 4.6 0 4.6z"/>
									</g>
								</g>
								<g id="&lt;Group&gt;">
									<g id="&lt;Group&gt;">
										<path id="&lt;Path&gt;" class="s3" d="m287 187c1.1 0 1.1-1.7 0-1.7-1 0-1 1.7 0 1.7z"/>
									</g>
								</g>
								<g id="&lt;Group&gt;">
									<g id="&lt;Group&gt;">
										<path id="&lt;Path&gt;" class="s3" d="m232.7 296.6c2.5 0 2.5-3.7 0-3.7-2.4 0-2.4 3.7 0 3.7z"/>
									</g>
								</g>
								<g id="&lt;Group&gt;">
									<g id="&lt;Group&gt;">
										<path id="&lt;Path&gt;" class="s3" d="m275.8 372.7c2.7 0 2.7-4.2 0-4.2-2.7 0-2.7 4.2 0 4.2z"/>
									</g>
								</g>
								<g id="&lt;Group&gt;">
									<g id="&lt;Group&gt;">
										<path id="&lt;Path&gt;" class="s4" d="m394.2 163.9c2.2 0 2.2-3.3 0-3.3-2.1 0-2.1 3.3 0 3.3z"/>
									</g>
								</g>
								<g id="&lt;Group&gt;">
									<g id="&lt;Group&gt;">
										<path id="&lt;Path&gt;" class="s4" d="m520.7 239.5q0 0.5 0.1 1.1c0 0.5 0.3 1 0.9 1.2 0.2 0 0.4 0 0.6 0 0.6-0.2 0.9-0.7 1-1.2q0-0.6 0.1-1.1c0.1-1.7-2.9-1.7-2.7 0z"/>
									</g>
								</g>
								<g id="&lt;Group&gt;">
									<g id="&lt;Group&gt;">
										<path id="&lt;Path&gt;" class="s4" d="m347.9 339.2c1.8 0 1.8-2.8 0-2.8-1.8 0-1.8 2.8 0 2.8z"/>
									</g>
								</g>
								<g id="&lt;Group&gt;">
									<g id="&lt;Group&gt;">
										<path id="&lt;Path&gt;" class="s4" d="m440.6 366.3c0.2 0.5 0.4 0.9 0.6 1.4 0.3 0.6 1.2 0.6 1.5 0 0.3-0.5 0.5-0.9 0.6-1.4 0.6-2.3-3.2-2.3-2.7 0z"/>
									</g>
								</g>
								<g id="&lt;Group&gt;">
									<g id="&lt;Group&gt;">
										<path id="&lt;Path&gt;" class="s4" d="m590.8 190.8c2.4 0 2.4-3.7 0-3.7-2.3 0-2.3 3.7 0 3.7z"/>
									</g>
								</g>
								<g id="&lt;Group&gt;">
									<g id="&lt;Group&gt;">
										<path id="&lt;Path&gt;" class="s4" d="m65.6 128.4c1.7 0 1.7-2.5 0-2.5-1.6 0-1.6 2.5 0 2.5z"/>
									</g>
								</g>
								<g id="&lt;Group&gt;">
									<g id="&lt;Group&gt;">
										<path id="&lt;Path&gt;" class="s4" d="m165.3 82.1c1.7 0 1.7-2.5 0-2.5-1.6 0-1.6 2.5 0 2.5z"/>
									</g>
								</g>
								<g id="&lt;Group&gt;">
									<g id="&lt;Group&gt;">
										<path id="&lt;Path&gt;" class="s4" d="m308.6 172.1c1.7 0 1.7-2.7 0-2.7-1.8 0-1.8 2.7 0 2.7z"/>
									</g>
								</g>
								<g id="&lt;Group&gt;">
									<g id="&lt;Group&gt;">
										<path id="&lt;Path&gt;" class="s4" d="m334.4 407.4c1.1 1 2.1 2.4 3.5 2.8 0.6 0.1 1.2-0.5 1-1.1-0.3-1.4-1.7-2.4-2.7-3.5-1.1-1.1-2.9 0.7-1.8 1.8z"/>
									</g>
								</g>
								<g id="&lt;Group&gt;">
									<g id="&lt;Group&gt;">
										<path id="&lt;Path&gt;" class="s4" d="m523.4 460.3c2.3 0 2.3-3.5 0-3.5-2.2 0-2.2 3.5 0 3.5z"/>
									</g>
								</g>
								<g id="&lt;Group&gt;">
									<g id="&lt;Group&gt;">
										<path id="&lt;Path&gt;" class="s4" d="m700.3 176.3c1.8 0 1.8-2.7 0-2.7-1.7 0-1.7 2.7 0 2.7z"/>
									</g>
								</g>
								<g id="&lt;Group&gt;">
									<path id="&lt;Path&gt;" class="s5" d="m489.7 254c-9.7 1.3-10.8 2.4-12.1 12.1-1.3-9.7-2.4-10.8-12.1-12.1 9.7-1.3 10.8-2.4 12.1-12.1 1.3 9.7 2.4 10.8 12.1 12.1z"/>
								</g>
								<g id="&lt;Group&gt;">
									<path id="&lt;Path&gt;" class="s5" d="m305.8 124.4c-7.9 1-8.8 1.9-9.9 9.8-1-7.9-1.9-8.8-9.8-9.8 7.9-1.1 8.8-2 9.8-9.9 1.1 7.9 2 8.8 9.9 9.9z"/>
								</g>
								<g id="&lt;Group&gt;">
									<path id="&lt;Path&gt;" class="s5" d="m185 269c-7.9 1.1-8.8 1.9-9.8 9.8-1.1-7.9-2-8.7-9.9-9.8 7.9-1.1 8.8-1.9 9.9-9.8 1 7.9 1.9 8.7 9.8 9.8z"/>
								</g>
								<g id="&lt;Group&gt;">
									<path id="&lt;Path&gt;" class="s5" d="m52.5 83.6c-6.4 0.9-7.1 1.6-7.9 8-0.9-6.4-1.6-7.1-7.9-8 6.3-0.8 7-1.5 7.9-7.9 0.8 6.4 1.5 7.1 7.9 7.9z"/>
								</g>
								<g id="&lt;Group&gt;">
									<path id="&lt;Path&gt;" class="s5" d="m695.6 219.9c-6.3 0.8-7 1.5-7.9 7.9-0.9-6.4-1.6-7.1-7.9-7.9 6.3-0.9 7-1.6 7.9-8 0.9 6.4 1.6 7.1 7.9 8z"/>
								</g>
								<g id="&lt;Group&gt;">
									<path id="&lt;Path&gt;" class="s5" d="m409.2 395.4c-6.4 0.8-7.1 1.5-8 7.9-0.8-6.4-1.5-7.1-7.9-7.9 6.4-0.9 7.1-1.6 7.9-7.9 0.9 6.3 1.6 7 8 7.9z"/>
								</g>
								<g id="&lt;Group&gt;">
									<path id="&lt;Path&gt;" class="s5" d="m671.8 110.3c-6.4 0.9-7.1 1.6-8 7.9-0.8-6.3-1.5-7-7.9-7.9 6.4-0.8 7.1-1.5 7.9-7.9 0.9 6.4 1.6 7.1 8 7.9z"/>
								</g>
							</g>
							<g id="&lt;Group&gt;">
								<g id="&lt;Group&gt;">
									<path id="&lt;Path&gt;" class="s6" d="m215.5 184.5q-0.2 0-0.3-0.1-1.1-0.9-2.2-1.7c-0.3-0.2-0.3-0.6-0.1-0.8 0.1-0.3 0.5-0.3 0.7-0.1q1.2 0.8 2.3 1.7c0.2 0.2 0.3 0.6 0.1 0.8q-0.2 0.2-0.5 0.2z"/>
								</g>
								<g id="&lt;Group&gt;">
									<path id="&lt;Compound Path&gt;" class="s6" d="m458.3 522.6q-0.1 0-0.2 0c-0.3-0.2-0.4-0.5-0.3-0.8q1.3-2.5 2.3-5.1c0.1-0.3 0.5-0.4 0.8-0.3 0.2 0.1 0.4 0.5 0.3 0.8q-1.1 2.6-2.4 5.1c-0.1 0.2-0.3 0.3-0.5 0.3zm4.6-11.5q-0.1 0-0.2 0c-0.3-0.1-0.5-0.4-0.4-0.7q0.8-2.7 1.4-5.4c0.1-0.3 0.4-0.5 0.7-0.5 0.3 0.1 0.5 0.4 0.4 0.7q-0.6 2.8-1.4 5.5c-0.1 0.3-0.3 0.4-0.5 0.4zm2.4-12.1q-0.1 0-0.1 0c-0.3-0.1-0.5-0.3-0.5-0.6q0.2-2.2 0.3-4.3 0.1-0.7 0.1-1.3c0-0.3 0.2-0.6 0.5-0.6q0 0 0.1 0c0.3 0 0.5 0.3 0.5 0.6q0 0.7 0 1.3-0.1 2.2-0.3 4.4c-0.1 0.3-0.3 0.5-0.6 0.5zm0.1-12.4c-0.3 0-0.5-0.2-0.6-0.5q-0.2-2.8-0.7-5.5c-0.1-0.4 0.1-0.6 0.4-0.7 0.3-0.1 0.6 0.1 0.7 0.5q0.5 2.7 0.8 5.6c0 0.3-0.2 0.6-0.6 0.6q0 0 0 0zm-2.4-12.1c-0.2-0.1-0.5-0.2-0.5-0.4q-0.9-2.7-1.9-5.3c-0.2-0.3 0-0.6 0.3-0.7 0.2-0.1 0.6 0 0.7 0.3q1.1 2.6 2 5.3c0 0.3-0.1 0.6-0.4 0.7q-0.1 0.1-0.2 0.1zm-159.8-12.1c-0.3 0-0.5-0.3-0.5-0.6 0-0.3 0.2-0.5 0.6-0.5q2.7 0.1 5.6 0c0.3 0 0.5 0.2 0.5 0.5 0.1 0.3-0.2 0.6-0.5 0.6q-2.8 0.1-5.7 0 0 0 0 0zm-6.7-0.5q0 0-0.1 0-2.8-0.4-5.6-0.9c-0.3-0.1-0.5-0.4-0.4-0.7 0-0.3 0.3-0.5 0.6-0.4q2.8 0.5 5.6 0.9c0.3 0 0.5 0.3 0.5 0.6-0.1 0.3-0.3 0.5-0.6 0.5zm19.1-0.1c-0.3 0-0.5-0.2-0.6-0.5 0-0.3 0.2-0.6 0.5-0.6q2.8-0.3 5.6-0.9c0.3-0.1 0.6 0.1 0.6 0.4 0.1 0.3-0.1 0.6-0.4 0.7q-2.8 0.6-5.6 0.9-0.1 0-0.1 0zm-31.3-2.4q0 0-0.1 0-2.7-0.8-5.4-1.8c-0.3-0.1-0.4-0.5-0.3-0.8 0.1-0.3 0.4-0.4 0.7-0.3q2.6 1 5.3 1.8c0.3 0.1 0.5 0.4 0.4 0.7-0.1 0.2-0.3 0.4-0.6 0.4zm43.4-0.1c-0.2 0-0.4-0.2-0.5-0.4-0.1-0.3 0.1-0.6 0.4-0.7q2.7-0.8 5.3-1.7c0.3-0.1 0.6 0 0.7 0.3 0.1 0.3 0 0.6-0.3 0.7q-2.7 1-5.4 1.8-0.1 0-0.2 0zm130.3 3.8c-0.2 0-0.3-0.1-0.5-0.2l-0.1-0.3c-0.9-1.4-1.8-2.9-2.9-4.5-0.2-0.2-0.1-0.6 0.2-0.7 0.2-0.2 0.6-0.2 0.8 0.1 1 1.6 2 3.1 2.9 4.5l0.1 0.3c0.2 0.2 0.1 0.6-0.2 0.8q-0.1 0-0.3 0zm-185.2-8.1q-0.1 0-0.2-0.1-1.5-0.7-2.9-1.4-1.1-0.6-2.2-1.2c-0.2-0.2-0.3-0.5-0.2-0.8 0.2-0.3 0.5-0.4 0.8-0.2q1 0.6 2.1 1.2 1.4 0.7 2.8 1.4c0.3 0.1 0.4 0.5 0.3 0.7-0.1 0.2-0.3 0.4-0.5 0.4zm66.5 0c-0.2 0-0.4-0.1-0.5-0.3-0.1-0.3 0-0.7 0.3-0.8q2.5-1.1 5-2.5c0.3-0.1 0.6 0 0.8 0.3 0.1 0.2 0 0.6-0.2 0.7q-2.5 1.4-5.1 2.5-0.1 0.1-0.3 0.1zm-77.2-6.3q-0.2 0-0.3-0.1-2.4-1.6-4.5-3.5c-0.2-0.2-0.3-0.5-0.1-0.8 0.2-0.2 0.6-0.2 0.8 0q2.1 1.8 4.4 3.4c0.3 0.2 0.3 0.5 0.2 0.8-0.2 0.2-0.3 0.2-0.5 0.2zm188.8 4.3q-0.2 0-0.4-0.3-1.4-1.8-2.8-3.5l-0.7-0.9c-0.2-0.2-0.1-0.6 0.1-0.8 0.3-0.2 0.6-0.1 0.8 0.1l0.7 0.9q1.4 1.7 2.8 3.5c0.2 0.3 0.2 0.7-0.1 0.8q-0.2 0.2-0.4 0.2zm-100.7-3.9c-0.2-0.1-0.4-0.1-0.5-0.3-0.1-0.3-0.1-0.6 0.2-0.8q2.4-1.5 4.6-3.2c0.3-0.1 0.6-0.1 0.8 0.2 0.2 0.2 0.1 0.6-0.1 0.8q-2.3 1.6-4.7 3.2-0.1 0.1-0.3 0.1zm-97.4-8.5q-0.2 0-0.4-0.2-1.9-2.1-3.6-4.4c-0.2-0.3-0.1-0.6 0.1-0.8 0.3-0.2 0.6-0.2 0.8 0.1q1.6 2.2 3.5 4.3c0.2 0.2 0.2 0.6 0 0.8q-0.2 0.2-0.4 0.2zm107.3 1.1q-0.2 0-0.4-0.2c-0.2-0.3-0.1-0.6 0.1-0.8q2.1-1.9 4.1-3.8c0.3-0.2 0.6-0.2 0.8 0 0.2 0.2 0.2 0.6 0 0.8q-2 2-4.2 3.8-0.2 0.2-0.4 0.2zm83.2 1.5q-0.3 0-0.4-0.2c-1.3-1.7-2.4-3.2-3.3-4.7-0.2-0.2-0.1-0.6 0.2-0.7 0.2-0.2 0.6-0.1 0.8 0.1 0.9 1.5 1.9 3 3.2 4.6 0.2 0.3 0.1 0.6-0.2 0.8q-0.1 0.1-0.3 0.1zm-197.7-12.7c-0.2 0-0.4-0.1-0.4-0.3q-1.4-2.5-2.4-5.2c-0.2-0.3 0-0.6 0.3-0.7 0.3-0.1 0.6 0 0.7 0.3q1 2.6 2.3 5c0.2 0.3 0.1 0.7-0.2 0.8q-0.1 0.1-0.3 0.1zm123.4 2.5q-0.2 0-0.4-0.2c-0.2-0.2-0.2-0.5 0-0.8q1.8-2 3.6-4.2c0.2-0.3 0.5-0.3 0.8-0.1 0.2 0.2 0.2 0.5 0.1 0.8q-1.8 2.2-3.7 4.3-0.2 0.2-0.4 0.2zm67.7-0.3c-0.2 0-0.4-0.1-0.5-0.3q-1.3-2.6-2.1-5.3c-0.1-0.3 0-0.6 0.3-0.7 0.3-0.1 0.6 0.1 0.7 0.4q0.9 2.5 2.1 5.1c0.2 0.3 0.1 0.6-0.2 0.8q-0.2 0-0.3 0zm-195.5-13.8c-0.2 0-0.4-0.1-0.5-0.4q-0.7-2.8-1-5.6c-0.1-0.3 0.1-0.6 0.5-0.6 0.3-0.1 0.5 0.1 0.6 0.5q0.3 2.7 1 5.4c0.1 0.3-0.1 0.6-0.4 0.7q-0.1 0-0.2 0zm135.4 4.3q-0.2 0-0.3-0.1c-0.3-0.2-0.4-0.5-0.2-0.8q1.6-2.3 3-4.7c0.2-0.3 0.5-0.4 0.8-0.2 0.2 0.1 0.3 0.5 0.2 0.8q-1.5 2.4-3 4.8c-0.2 0.1-0.3 0.2-0.5 0.2zm56.4-2.2c-0.3 0-0.5-0.2-0.6-0.5q-0.4-2.8-0.5-5.7c0-0.3 0.2-0.6 0.5-0.6 0.3 0 0.6 0.3 0.6 0.6q0.1 2.8 0.5 5.5c0.1 0.3-0.1 0.6-0.4 0.7q-0.1 0-0.1 0zm-50.2-8.5q-0.2 0-0.3-0.1c-0.2-0.1-0.4-0.5-0.2-0.7q0.9-1.9 1.7-3.8 0.3-0.7 0.6-1.3c0.1-0.3 0.4-0.5 0.7-0.3 0.3 0.1 0.5 0.4 0.3 0.7q-0.3 0.7-0.6 1.4-0.8 1.9-1.7 3.8c-0.1 0.2-0.3 0.3-0.5 0.3zm-143-5.9c-0.3 0-0.6-0.2-0.6-0.5q0-1.1 0.1-2.3 0-1.7 0.2-3.4c0-0.3 0.3-0.5 0.6-0.5 0.3 0 0.6 0.3 0.5 0.6q-0.1 1.7-0.2 3.4 0 1.1 0 2.2c0 0.3-0.3 0.5-0.6 0.6q0 0 0-0.1zm192.9 2q-0.1 0-0.1 0c-0.3 0-0.5-0.3-0.5-0.6q0.3-2.8 1-5.6c0-0.3 0.3-0.5 0.6-0.5 0.3 0.1 0.5 0.4 0.5 0.7q-0.7 2.8-1 5.5c0 0.3-0.3 0.5-0.5 0.5zm-45.2-7.6q0 0-0.1 0c-0.3-0.1-0.5-0.4-0.4-0.7q1-2.7 1.8-5.3c0.1-0.3 0.4-0.5 0.7-0.4 0.3 0.1 0.5 0.4 0.4 0.7q-0.8 2.7-1.8 5.4c-0.1 0.2-0.3 0.3-0.6 0.3zm-146.4-6.7q-0.1 0-0.1 0c-0.3 0-0.5-0.3-0.5-0.6q0.6-2.8 1.4-5.6c0.1-0.3 0.5-0.4 0.8-0.3 0.3 0.1 0.4 0.4 0.3 0.7q-0.8 2.7-1.4 5.4c0 0.3-0.3 0.4-0.5 0.4zm194.4 2.3q-0.1 0-0.2-0.1c-0.3-0.1-0.4-0.4-0.3-0.7q1-2.6 2.2-5.2c0.2-0.3 0.5-0.4 0.8-0.3 0.3 0.2 0.4 0.5 0.3 0.8q-1.3 2.5-2.2 5.1c-0.1 0.2-0.4 0.4-0.6 0.4zm-44.3-7.4q-0.1 0-0.1 0c-0.3-0.1-0.5-0.4-0.4-0.7q0.7-2.7 1.3-5.5c0-0.3 0.3-0.5 0.6-0.4 0.4 0.1 0.5 0.4 0.5 0.7q-0.6 2.8-1.3 5.5c-0.1 0.2-0.3 0.4-0.6 0.4zm-146.5-6.7q-0.1 0-0.2 0c-0.3-0.2-0.4-0.5-0.3-0.8q1.1-2.6 2.4-5.2c0.1-0.2 0.5-0.3 0.7-0.2 0.3 0.1 0.4 0.5 0.3 0.8q-1.3 2.5-2.3 5c-0.1 0.3-0.3 0.4-0.6 0.4zm196.3 3q-0.1 0-0.2-0.1c-0.3-0.2-0.4-0.5-0.2-0.8q1.5-2.4 3.3-4.6c0.2-0.3 0.5-0.3 0.8-0.1 0.2 0.2 0.2 0.5 0.1 0.8q-1.8 2.2-3.3 4.5c-0.1 0.2-0.3 0.3-0.5 0.3zm-47.2-8.4q0 0-0.1 0c-0.3-0.1-0.5-0.4-0.4-0.7q0.5-2.7 0.9-5.5c0-0.3 0.3-0.6 0.6-0.5 0.3 0 0.5 0.3 0.5 0.6q-0.4 2.9-0.9 5.6c-0.1 0.3-0.3 0.5-0.6 0.5zm-143.4-5.6q-0.2 0-0.3-0.1c-0.3-0.2-0.4-0.5-0.2-0.8q1.5-2.4 3.1-4.7c0.2-0.3 0.6-0.3 0.8-0.2 0.3 0.2 0.3 0.6 0.2 0.8q-1.7 2.3-3.1 4.7c-0.1 0.2-0.3 0.3-0.5 0.3zm198.3 4.2q-0.2 0-0.4-0.1c-0.2-0.2-0.2-0.6 0-0.8q1.9-2.1 3.9-4.1c0.2-0.2 0.6-0.2 0.8 0 0.2 0.3 0.2 0.6 0 0.8q-2 2-3.9 4.1-0.2 0.2-0.4 0.1zm-191-14.3q-0.2 0-0.4-0.1c-0.2-0.2-0.3-0.6-0.1-0.8q1.9-2.2 3.9-4.2c0.2-0.2 0.5-0.2 0.8 0 0.2 0.2 0.2 0.6 0 0.8q-2 2-3.8 4.1-0.2 0.2-0.4 0.2zm137.8 3.4q0 0 0 0c-0.3 0-0.5-0.3-0.5-0.6q0.3-2.8 0.5-5.6c0-0.3 0.3-0.6 0.6-0.5 0.3 0 0.6 0.3 0.5 0.6q-0.2 2.9-0.5 5.6c0 0.3-0.3 0.5-0.6 0.5zm62 2.3q-0.2 0-0.4-0.2c-0.2-0.2-0.1-0.6 0.1-0.8q2.1-1.8 4.4-3.6c0.2-0.2 0.6-0.1 0.8 0.1 0.1 0.2 0.1 0.6-0.1 0.8q-2.3 1.8-4.4 3.6-0.1 0.1-0.4 0.1zm-191.1-14.5q-0.3 0-0.4-0.2c-0.2-0.2-0.2-0.6 0-0.8q1.6-1.4 3.3-2.7 0.5-0.4 1.1-0.9c0.3-0.1 0.6-0.1 0.8 0.1 0.2 0.3 0.1 0.7-0.1 0.8q-0.6 0.5-1.1 0.9-1.7 1.3-3.2 2.7-0.2 0.1-0.4 0.1zm200.9 6.8q-0.3 0-0.4-0.2c-0.2-0.2-0.2-0.6 0.1-0.8q2.3-1.6 4.6-3.2c0.3-0.2 0.7-0.1 0.8 0.2 0.2 0.2 0.1 0.6-0.1 0.8q-2.4 1.5-4.7 3.1-0.1 0.2-0.3 0.1zm-70.8-7q0 0 0 0c-0.3 0-0.6-0.2-0.5-0.6q0.1-1.9 0.1-3.8 0.1-0.9 0.1-1.8c0-0.3 0.3-0.5 0.6-0.5q0 0 0 0c0.3 0 0.5 0.3 0.5 0.6q0 0.9 0 1.8-0.1 1.9-0.2 3.8c0 0.3-0.3 0.6-0.6 0.5zm-120.2-7.2q-0.3 0-0.5-0.3c-0.2-0.2-0.1-0.6 0.2-0.8 1.5-0.9 3.1-1.9 4.8-3 0.3-0.1 0.6 0 0.8 0.2 0.1 0.3 0 0.7-0.2 0.8-1.8 1-3.3 2-4.8 3q-0.2 0.1-0.3 0.1zm201.4 7.4c-0.2 0-0.4-0.1-0.5-0.3-0.2-0.2-0.1-0.6 0.2-0.7q2.3-1.5 4.8-2.9c0.3-0.2 0.7-0.1 0.8 0.2 0.2 0.3 0.1 0.6-0.2 0.8q-2.5 1.4-4.8 2.8-0.2 0.1-0.3 0.1zm-190.8-13.8c-0.2 0-0.3-0.1-0.4-0.3-0.2-0.2-0.1-0.6 0.2-0.7 1.5-0.9 3.1-1.7 4.9-2.7 0.3-0.2 0.7-0.1 0.8 0.2 0.2 0.3 0 0.6-0.2 0.8-1.9 1-3.5 1.8-5 2.7q-0.1 0-0.3 0zm201.5 7.7c-0.2 0-0.4-0.2-0.5-0.3-0.1-0.3 0-0.7 0.3-0.8q2.4-1.3 5-2.6c0.3-0.2 0.6-0.1 0.7 0.2 0.2 0.3 0.1 0.6-0.2 0.8q-2.6 1.3-5 2.6-0.1 0.1-0.3 0.1zm-91.5-6.4c-0.3-0.1-0.6-0.3-0.6-0.6q0.1-2.8 0.1-5.6c0-0.4 0.2-0.6 0.5-0.6 0.3 0 0.6 0.2 0.6 0.6q0 2.9 0 5.6c0 0.3-0.3 0.6-0.6 0.6q0 0 0 0zm102.6 0.7c-0.2 0-0.4-0.1-0.5-0.3-0.2-0.3 0-0.6 0.2-0.8q2.6-1.2 5.1-2.4c0.3-0.2 0.6 0 0.8 0.2 0.1 0.3 0 0.7-0.3 0.8q-2.5 1.2-5.1 2.4-0.1 0.1-0.2 0.1zm-201.6-7.8c-0.2 0-0.4-0.2-0.5-0.3-0.2-0.3-0.1-0.7 0.2-0.8q2.5-1.3 5-2.6c0.3-0.2 0.6-0.1 0.8 0.2 0.1 0.3 0 0.6-0.3 0.8q-2.5 1.3-4.9 2.6-0.2 0.1-0.3 0.1zm212.8 2.5c-0.2 0-0.4-0.2-0.5-0.4-0.2-0.2 0-0.6 0.2-0.7q2.6-1.2 5.2-2.4c0.2-0.1 0.6 0 0.7 0.3 0.1 0.3 0 0.6-0.3 0.8q-2.5 1.1-5.1 2.3-0.1 0.1-0.2 0.1zm-201.9-8.4c-0.2 0-0.4-0.1-0.5-0.3-0.1-0.3 0-0.6 0.2-0.8 1.8-0.9 3.4-1.9 4.9-2.7 0.3-0.2 0.7-0.1 0.8 0.2 0.2 0.2 0.1 0.6-0.2 0.7-1.5 0.9-3.1 1.8-4.9 2.8q-0.1 0.1-0.3 0.1zm88.1 0.6c-0.3-0.1-0.6-0.3-0.6-0.6q0-2.8-0.1-5.6c0-0.3 0.2-0.6 0.5-0.6 0.3 0 0.6 0.2 0.6 0.5q0.1 2.9 0.1 5.7c0 0.3-0.2 0.6-0.5 0.6q0 0 0 0zm125 2.6c-0.2 0-0.4-0.1-0.5-0.3-0.1-0.3 0-0.7 0.3-0.8q2.6-1.2 5.1-2.3c0.3-0.2 0.6 0 0.8 0.3 0.1 0.2 0 0.6-0.3 0.7q-2.5 1.2-5.1 2.3-0.1 0.1-0.3 0.1zm-202.4-9.5c-0.2 0-0.4-0.1-0.5-0.3-0.1-0.2-0.1-0.6 0.2-0.8q2.5-1.5 4.7-3.1c0.2-0.2 0.6-0.1 0.8 0.2 0.1 0.2 0.1 0.6-0.2 0.8q-2.2 1.5-4.7 3.1-0.2 0.1-0.3 0.1zm213.7 4.3c-0.2 0-0.4-0.1-0.5-0.3-0.1-0.3 0-0.6 0.3-0.8q2.5-1.2 5.1-2.4c0.2-0.1 0.6 0 0.7 0.3 0.1 0.3 0 0.6-0.3 0.7q-2.5 1.3-5.1 2.5-0.1 0-0.2 0zm-203.6-11.5q-0.3 0-0.4-0.2c-0.2-0.3-0.2-0.6 0-0.8q2.3-1.8 4.3-3.7c0.2-0.2 0.5-0.2 0.8 0 0.2 0.3 0.2 0.6-0.1 0.8q-2 1.9-4.2 3.8-0.2 0.1-0.4 0.1zm67 1.7c-0.3-0.1-0.6-0.3-0.6-0.6q-0.1-2.8-0.2-5.6c0-0.3 0.3-0.6 0.6-0.6 0.3 0 0.5 0.2 0.6 0.5q0 2.9 0.1 5.7c0 0.3-0.2 0.6-0.5 0.6q0 0 0 0zm147.7 4.4c-0.2 0-0.3-0.1-0.4-0.3-0.2-0.3-0.1-0.6 0.2-0.8q2.6-1.3 5-2.5c0.3-0.2 0.6-0.1 0.8 0.2 0.1 0.3 0 0.6-0.3 0.8q-2.4 1.2-5 2.5-0.1 0.1-0.3 0.1zm11-5.8c-0.2 0-0.4-0.1-0.5-0.3-0.1-0.3 0-0.6 0.3-0.7q2.5-1.4 4.9-2.8c0.2-0.2 0.6-0.1 0.7 0.2 0.2 0.3 0.1 0.6-0.2 0.8q-2.4 1.4-4.9 2.7-0.1 0.1-0.3 0.1zm-216.8-8.9q-0.2 0-0.3-0.1c-0.3-0.2-0.3-0.6-0.1-0.8q1.8-2.2 3.4-4.4c0.1-0.3 0.5-0.4 0.8-0.2 0.2 0.2 0.3 0.5 0.1 0.8q-1.6 2.3-3.4 4.5-0.2 0.2-0.5 0.2zm57.6-2.1c-0.3 0-0.5-0.3-0.5-0.6q-0.1-2.8-0.2-5.6c0-0.3 0.2-0.6 0.5-0.6 0.4 0 0.6 0.2 0.6 0.6q0.1 2.8 0.2 5.6c0 0.3-0.2 0.6-0.5 0.6q0 0-0.1 0zm170 4.8c-0.2 0-0.4-0.1-0.5-0.2-0.2-0.3-0.1-0.6 0.2-0.8q2.4-1.5 4.8-2.9c0.3-0.2 0.6-0.1 0.8 0.1 0.1 0.3 0.1 0.7-0.2 0.8q-2.4 1.5-4.8 3-0.2 0.1-0.3 0zm-220.8-13q-0.1 0-0.2-0.1c-0.3-0.1-0.4-0.4-0.3-0.7q1.2-2.5 2-5.2c0.1-0.3 0.5-0.4 0.8-0.3 0.3 0.1 0.4 0.4 0.3 0.7q-0.8 2.7-2.1 5.3c-0.1 0.2-0.3 0.3-0.5 0.3zm231.3 6.4q-0.3 0-0.5-0.2c-0.2-0.3-0.1-0.6 0.2-0.8q2.3-1.6 4.6-3.2c0.3-0.1 0.6-0.1 0.8 0.2 0.2 0.2 0.1 0.6-0.1 0.8q-2.3 1.6-4.7 3.1-0.2 0.1-0.3 0.1zm-180.8-10.6c-0.3 0-0.6-0.3-0.6-0.6q-0.1-2.8-0.1-5.6c0-0.3 0.2-0.6 0.5-0.6 0.4 0 0.6 0.3 0.6 0.6q0.1 2.8 0.1 5.6c0 0.3-0.2 0.6-0.5 0.6q0 0 0 0zm190.9 3.5q-0.3 0-0.4-0.2c-0.2-0.3-0.2-0.6 0.1-0.8q2.2-1.7 4.4-3.4c0.3-0.2 0.6-0.2 0.8 0.1 0.2 0.2 0.2 0.6-0.1 0.7q-2.2 1.8-4.4 3.5-0.2 0.1-0.4 0.1zm-237.8-11.1q0 0-0.1 0c-0.3 0-0.5-0.3-0.4-0.6q0.3-2.5 0.4-5 0-0.3 0-0.6c0-0.3 0.3-0.5 0.6-0.5 0.3 0 0.6 0.3 0.6 0.6q0 0.3-0.1 0.6-0.1 2.5-0.4 5c-0.1 0.3-0.3 0.5-0.6 0.5zm247.5 3.4q-0.3 0-0.4-0.2c-0.2-0.3-0.2-0.6 0-0.8q2.2-1.9 4.2-3.7c0.3-0.3 0.6-0.2 0.8 0 0.2 0.2 0.2 0.6 0 0.8q-2.1 1.9-4.2 3.7-0.2 0.2-0.4 0.2zm-200.8-8.2c-0.3 0-0.6-0.3-0.6-0.6q0-2.9 0-5.6c0-0.3 0.3-0.6 0.6-0.6 0.3 0 0.6 0.3 0.6 0.6q-0.1 2.7-0.1 5.6c0.1 0.3-0.2 0.6-0.5 0.6q0 0 0 0zm-46.5-7.5c-0.2 0-0.5-0.3-0.5-0.5q-0.3-2.8-0.8-5.6c-0.1-0.3 0.1-0.6 0.5-0.6 0.3-0.1 0.6 0.1 0.6 0.4q0.6 2.9 0.8 5.7c0.1 0.3-0.2 0.5-0.5 0.6q0 0-0.1 0zm256.4 7.3q-0.2 0-0.4-0.2c-0.2-0.2-0.2-0.6 0-0.8q2-2 3.9-4c0.2-0.3 0.6-0.3 0.8-0.1 0.2 0.2 0.2 0.6 0 0.8q-1.9 2.1-3.9 4.1-0.2 0.2-0.4 0.2zm-209.8-12.2c-0.3 0-0.5-0.3-0.5-0.6q0-1.1 0.1-2.1 0-1.8 0.1-3.6c0-0.3 0.3-0.5 0.6-0.5q0 0 0 0c0.3 0 0.6 0.3 0.5 0.6q-0.1 1.8-0.1 3.5-0.1 1.1-0.1 2.1c0 0.3-0.3 0.6-0.6 0.6q0 0 0 0zm-49-7.3c-0.2 0-0.4-0.1-0.5-0.4q-0.8-2.6-1.8-5.3c-0.1-0.3 0-0.6 0.3-0.7 0.3-0.1 0.7 0 0.8 0.3q1 2.7 1.8 5.4c0.1 0.3-0.1 0.6-0.4 0.7q-0.1 0-0.2 0zm267.2 10.3q-0.2 0-0.4-0.1c-0.2-0.2-0.3-0.6-0.1-0.8q1.9-2.2 3.6-4.4c0.2-0.2 0.5-0.3 0.8-0.1 0.2 0.2 0.2 0.6 0.1 0.8q-1.8 2.2-3.6 4.4-0.2 0.2-0.4 0.2zm-217.5-15.4q0 0 0 0c-0.3 0-0.6-0.3-0.5-0.6q0.2-2.9 0.5-5.6c0-0.3 0.3-0.6 0.6-0.5 0.3 0 0.6 0.3 0.5 0.6q-0.3 2.8-0.5 5.6c0 0.3-0.3 0.5-0.6 0.5zm225 5.6q-0.2 0-0.3-0.1c-0.3-0.2-0.4-0.6-0.2-0.8q1.6-2.4 3.1-4.7c0.1-0.3 0.5-0.4 0.8-0.2 0.2 0.2 0.3 0.5 0.1 0.8q-1.4 2.4-3.1 4.7c-0.1 0.2-0.3 0.3-0.4 0.3zm-279.2-12c-0.2 0-0.4-0.1-0.4-0.3q-1.2-2.5-2.6-5c-0.2-0.3-0.1-0.6 0.2-0.8 0.3-0.1 0.6 0 0.8 0.2q1.4 2.6 2.6 5.1c0.1 0.3 0 0.6-0.3 0.7q-0.1 0.1-0.3 0.1zm55.6-5.9q0 0-0.1 0c-0.3-0.1-0.5-0.4-0.4-0.7q0.4-2.8 0.9-5.5c0-0.4 0.3-0.6 0.6-0.5 0.3 0.1 0.5 0.3 0.5 0.7q-0.5 2.7-0.9 5.5c-0.1 0.3-0.3 0.5-0.6 0.5zm230 7.3q-0.1 0-0.2-0.1c-0.3-0.1-0.4-0.5-0.3-0.7q1.4-2.5 2.6-5c0.1-0.3 0.5-0.4 0.8-0.3 0.2 0.1 0.4 0.5 0.2 0.8q-1.2 2.5-2.6 5c-0.1 0.2-0.3 0.3-0.5 0.3zm-291.6-12.2c-0.2 0-0.4-0.1-0.5-0.3q-1.5-2.3-3.1-4.6c-0.2-0.3-0.1-0.6 0.1-0.8 0.3-0.2 0.6-0.1 0.8 0.1q1.7 2.4 3.2 4.7c0.1 0.3 0.1 0.6-0.2 0.8q-0.2 0.1-0.3 0.1zm63.8-7.3q-0.1 0-0.1 0c-0.3-0.1-0.5-0.4-0.4-0.7q0.6-2.8 1.2-5.5c0.1-0.3 0.4-0.5 0.7-0.4 0.3 0 0.5 0.4 0.4 0.7q-0.6 2.7-1.2 5.4c-0.1 0.3-0.3 0.5-0.6 0.5zm-71-2.8q-0.3 0-0.5-0.2-1.7-2.2-3.4-4.5c-0.2-0.2-0.2-0.6 0.1-0.8 0.2-0.2 0.6-0.1 0.8 0.1q1.7 2.3 3.4 4.5c0.2 0.2 0.2 0.6-0.1 0.8q-0.1 0.1-0.3 0.1zm304.1 11.1q-0.1 0-0.2 0c-0.2-0.2-0.4-0.5-0.3-0.8q1.1-2.6 2-5.2c0.1-0.3 0.4-0.5 0.7-0.4 0.3 0.1 0.5 0.4 0.4 0.7q-0.9 2.7-2 5.3c-0.1 0.3-0.3 0.4-0.6 0.4zm-311.8-20.8q-0.3 0-0.4-0.2-1.9-2.3-3.6-4.4c-0.2-0.2-0.2-0.6 0-0.8 0.3-0.2 0.6-0.1 0.8 0.1q1.8 2.1 3.6 4.3c0.2 0.3 0.2 0.6 0 0.8q-0.2 0.2-0.4 0.2zm81.7 0.5q-0.1 0-0.1-0.1c-0.3-0.1-0.5-0.4-0.4-0.7q0.8-2.7 1.6-5.4c0.1-0.3 0.5-0.4 0.8-0.3 0.2 0.1 0.4 0.4 0.3 0.7q-0.8 2.6-1.6 5.3c-0.1 0.3-0.3 0.5-0.6 0.5zm234.1 8.6q-0.1-0.1-0.1-0.1c-0.3 0-0.5-0.4-0.4-0.7q0.7-2.7 1.2-5.4c0.1-0.3 0.4-0.5 0.7-0.5 0.3 0.1 0.5 0.4 0.5 0.7q-0.6 2.8-1.3 5.5c-0.1 0.3-0.4 0.5-0.6 0.5zm-323.8-18.6q-0.3 0-0.4-0.2-2-2.2-3.8-4.1c-0.2-0.3-0.2-0.6 0-0.8 0.2-0.3 0.6-0.2 0.8 0q1.9 2 3.8 4.2c0.2 0.2 0.2 0.6 0 0.8q-0.2 0.1-0.4 0.1zm93.6-1.8q-0.1 0-0.2-0.1c-0.3-0.1-0.4-0.4-0.3-0.7q0.9-2.7 2-5.3c0.1-0.3 0.5-0.4 0.8-0.3 0.2 0.1 0.4 0.5 0.3 0.8q-1.1 2.6-2.1 5.2c-0.1 0.2-0.3 0.4-0.5 0.4zm232.6 8.2q0 0 0 0c-0.3 0-0.6-0.3-0.5-0.6q0.4-2.8 0.6-5.6c0-0.3 0.3-0.6 0.6-0.5 0.3 0 0.5 0.3 0.5 0.6q-0.2 2.8-0.6 5.6c0 0.3-0.3 0.5-0.6 0.5zm-334.8-15.4q-0.2 0-0.3-0.2-2.1-2-4.1-3.8c-0.2-0.2-0.3-0.6 0-0.8 0.2-0.3 0.5-0.3 0.8-0.1q2 1.9 4.1 3.9c0.2 0.2 0.2 0.6 0 0.8q-0.2 0.2-0.5 0.2zm106.9-4.3q-0.1 0-0.2 0c-0.3-0.2-0.4-0.5-0.3-0.8q1.2-2.6 2.5-5.1c0.1-0.3 0.5-0.4 0.8-0.2 0.2 0.1 0.3 0.5 0.2 0.7q-1.3 2.5-2.4 5.1c-0.1 0.2-0.4 0.3-0.6 0.3zm228.8 7.3c-0.3 0-0.6-0.2-0.6-0.5q0-2.8-0.1-5.6c-0.1-0.3 0.2-0.6 0.5-0.6 0.3 0 0.6 0.2 0.6 0.5q0.2 2.8 0.2 5.7c0 0.3-0.3 0.5-0.6 0.5q0 0 0 0zm-223.1-18.3q-0.2 0-0.3-0.1c-0.3-0.1-0.3-0.5-0.2-0.8q1.4-2.4 2.9-4.8c0.2-0.3 0.5-0.4 0.8-0.2 0.2 0.2 0.3 0.5 0.2 0.8q-1.5 2.3-2.9 4.8c-0.1 0.2-0.3 0.3-0.5 0.3zm222.2 6c-0.2 0-0.5-0.2-0.5-0.5q-0.4-2.8-1-5.5c-0.1-0.3 0.1-0.6 0.4-0.7 0.3-0.1 0.6 0.1 0.7 0.4q0.6 2.8 1 5.6c0 0.3-0.2 0.6-0.5 0.7q0 0-0.1 0zm-215.6-16.5q-0.2 0-0.3-0.1c-0.3-0.2-0.3-0.5-0.2-0.8q1.7-2.3 3.4-4.6c0.1-0.2 0.5-0.3 0.7-0.1 0.3 0.2 0.3 0.6 0.2 0.8q-1.7 2.2-3.3 4.5c-0.2 0.2-0.3 0.3-0.5 0.3zm212.9 4.4c-0.2 0-0.4-0.2-0.5-0.4q-0.8-2.7-1.8-5.3c-0.1-0.3 0-0.6 0.3-0.7 0.3-0.1 0.6 0 0.7 0.3q1.1 2.6 1.9 5.4c0.1 0.3-0.1 0.6-0.4 0.7q-0.1 0-0.2 0zm-205.4-14.2q-0.2 0-0.3-0.2c-0.3-0.2-0.3-0.5-0.1-0.8q1.8-2.1 3.8-4.2c0.2-0.2 0.5-0.2 0.8 0 0.2 0.2 0.2 0.5 0 0.8q-1.9 2-3.7 4.2-0.2 0.2-0.5 0.2zm200.8 2.7c-0.2 0-0.4-0.1-0.5-0.3q-1.3-2.5-2.7-4.9c-0.2-0.2-0.1-0.6 0.1-0.7 0.3-0.2 0.6-0.1 0.8 0.1q1.5 2.4 2.8 5c0.2 0.3 0 0.6-0.2 0.7q-0.2 0.1-0.3 0.1zm-192.3-11.8q-0.2 0-0.4-0.2c-0.2-0.2-0.2-0.5 0-0.8q2.1-1.9 4.2-3.8c0.2-0.2 0.6-0.2 0.8 0.1 0.2 0.2 0.2 0.6-0.1 0.8q-2.1 1.8-4.1 3.8-0.2 0.1-0.4 0.1zm185.6 1.4q-0.2 0-0.4-0.3-1.7-2.1-3.6-4.2c-0.2-0.2-0.2-0.6 0-0.8 0.3-0.2 0.6-0.2 0.8 0q2 2.1 3.7 4.4c0.2 0.2 0.2 0.6-0.1 0.7q-0.2 0.2-0.4 0.2zm-176.3-9.5q-0.2 0-0.4-0.2c-0.2-0.3-0.1-0.6 0.1-0.8q2.3-1.8 4.6-3.4c0.2-0.2 0.6-0.1 0.7 0.2 0.2 0.2 0.2 0.6-0.1 0.8q-2.3 1.6-4.5 3.3-0.2 0.1-0.4 0.1zm167.8 0.5q-0.1 0-0.3-0.2-2.1-1.8-4.3-3.5c-0.3-0.2-0.3-0.6-0.1-0.8 0.2-0.3 0.5-0.3 0.8-0.1q2.2 1.7 4.3 3.6c0.3 0.2 0.3 0.5 0.1 0.8q-0.2 0.2-0.5 0.2zm-157.6-7.6c-0.2 0-0.4-0.1-0.5-0.2-0.1-0.3 0-0.7 0.2-0.8q2.4-1.5 4.9-2.9c0.3-0.1 0.6 0 0.8 0.2 0.1 0.3 0 0.7-0.2 0.8q-2.5 1.4-4.9 2.8-0.1 0.1-0.3 0.1zm147.8 0.1q-0.2 0-0.3-0.1-2.3-1.5-4.8-2.9c-0.3-0.1-0.4-0.5-0.2-0.8 0.1-0.2 0.5-0.3 0.7-0.2q2.5 1.4 4.9 2.9c0.3 0.2 0.3 0.6 0.2 0.8-0.2 0.2-0.3 0.3-0.5 0.3zm-136.9-6c-0.2 0-0.4-0.1-0.5-0.3-0.1-0.3 0-0.7 0.3-0.8q2.5-1.2 5.1-2.3c0.3-0.1 0.6 0 0.8 0.3 0.1 0.3 0 0.6-0.3 0.7q-2.6 1.1-5.2 2.3-0.1 0.1-0.2 0.1zm126 0q-0.1 0-0.2-0.1-2.5-1.2-5.1-2.3c-0.3-0.1-0.4-0.4-0.3-0.7 0.1-0.3 0.4-0.4 0.7-0.3q2.7 1.1 5.2 2.3c0.3 0.1 0.4 0.5 0.3 0.7-0.1 0.3-0.4 0.4-0.6 0.4zm-114.6-4.8c-0.2 0-0.4-0.1-0.5-0.3-0.1-0.3 0.1-0.7 0.4-0.8q2.6-0.9 5.3-1.7c0.3-0.1 0.7 0.1 0.7 0.4 0.1 0.3 0 0.6-0.3 0.7q-2.7 0.8-5.4 1.7-0.1 0-0.2 0zm103.2 0.1q-0.1-0.1-0.2-0.1-2.6-0.9-5.3-1.7c-0.3-0.1-0.5-0.4-0.4-0.7 0.1-0.3 0.4-0.5 0.7-0.4q2.7 0.8 5.4 1.8c0.3 0.1 0.4 0.4 0.3 0.7-0.1 0.2-0.3 0.4-0.5 0.4zm-91.3-3.6c-0.2 0-0.5-0.2-0.5-0.4-0.1-0.3 0.1-0.6 0.4-0.7q2.7-0.7 5.5-1.3c0.3 0 0.6 0.2 0.7 0.5 0 0.3-0.2 0.6-0.5 0.7q-2.7 0.5-5.4 1.2-0.1 0-0.2 0zm12.2-2.4c-0.3 0-0.5-0.2-0.6-0.5 0-0.3 0.2-0.6 0.5-0.6q2.8-0.5 5.6-0.8c0.3 0 0.6 0.2 0.6 0.5 0.1 0.3-0.2 0.6-0.5 0.6q-2.8 0.4-5.5 0.8-0.1 0-0.1 0zm67.2 2.4q-0.1 0-0.1 0-2.8-0.6-5.5-1.2c-0.3 0-0.5-0.3-0.5-0.7 0.1-0.3 0.4-0.5 0.7-0.4q2.8 0.6 5.5 1.2c0.3 0.1 0.5 0.4 0.4 0.7 0 0.3-0.3 0.5-0.5 0.4zm-54.9-3.8c-0.3 0-0.5-0.2-0.6-0.5 0-0.3 0.2-0.6 0.6-0.6q2.7-0.2 5.6-0.4c0.3 0 0.6 0.3 0.6 0.6 0 0.3-0.2 0.6-0.6 0.6q-2.8 0.1-5.6 0.3 0 0 0 0zm42.7 1.5q0 0-0.1 0-2.7-0.5-5.5-0.7c-0.3-0.1-0.6-0.4-0.5-0.7 0-0.3 0.3-0.5 0.6-0.5q2.8 0.3 5.6 0.7c0.3 0.1 0.5 0.4 0.5 0.7-0.1 0.3-0.3 0.5-0.6 0.5zm-30.3-2c-0.3 0-0.6-0.2-0.6-0.6 0-0.3 0.3-0.5 0.6-0.5q2.8 0 5.6 0c0.3 0 0.6 0.3 0.6 0.6 0 0.3-0.3 0.6-0.6 0.6q-2.8-0.1-5.6-0.1 0 0 0 0zm18 0.7q0 0 0 0-2.9-0.3-5.7-0.4c-0.3 0-0.5-0.3-0.5-0.6 0-0.3 0.3-0.5 0.6-0.5q0 0 0 0 2.8 0.1 5.6 0.3c0.4 0.1 0.6 0.3 0.6 0.6-0.1 0.3-0.3 0.6-0.6 0.6z"/>
								</g>
								<g id="&lt;Group&gt;">
									<path id="&lt;Path&gt;" class="s6" d="m453.3 531q-0.2 0-0.4-0.1c-0.2-0.2-0.3-0.6-0.1-0.8q0.8-1.1 1.6-2.3c0.2-0.3 0.5-0.4 0.8-0.2 0.2 0.2 0.3 0.5 0.1 0.8q-0.7 1.2-1.6 2.3c-0.1 0.2-0.3 0.3-0.4 0.3z"/>
								</g>
							</g>
							<g id="&lt;Group&gt;">
								<path id="&lt;Path&gt;" class="s7" d="m525.8 469.4c33.2 5.5 74.4 14 75.8 16.8 1.4 2.8-35.5 153.2-42.4 155.5-6.9 2.3-112.8-27.3-112.8-27.3 0 0-1.8 3.4-10 0.9-4.3-1.4-5.5-4.3-5.5-4.3l-99.2-16.6c0 0-9.4-1.1-8.6-5.9 1.4-8.7 40.4-150.7 40.4-150.7 0 0-0.5-4.1 6-2.7 5 1.1 72.2 15.8 101.1 25.3 8.4 2.8 11 10.8 11 10.8 0 0 21.9-5.5 44.2-1.8z"/>
								<path id="&lt;Path&gt;" class="s5" d="m480.3 477.5c0 0-6.4-20.6-34.1-25.8-27.6-5.3-30 3.6-51.8-0.3-21.8-4-27.1-11.4-27.1-11.4l-35.6 147.1c0 0 50.7 4.6 72.8 10.4 22.1 5.8 35.3 11.4 35.3 11.4 0 0 46.5 10.3 78.9 17.8 24 5.5 37.5 8.3 37.5 8.3l36.5-130.5-6.1-9.5c0 0-13.9 2.7-35-10.5-21.2-13.2-31.8-15.8-46.1-14.7-16.3 1.2-25.2 7.7-25.2 7.7z"/>
								<path id="&lt;Path&gt;" class="s8" d="m586.7 495.2c-1.8 7.5-6.6 26.7-13 47-8.3 26.1-21.8 76.5-21.8 76.5 0 0-16.9-18.4-45.5-25.2-28.5-6.7-64.8 9.2-64.8 9.2l40-126c-0.8 0.5-1.3 0.8-1.3 0.8 0 0-0.3-1-1-2.4l-39.8 127.6c0 0-15.4-15.3-42.7-25.5-25.7-9.5-59.4 0.9-63.2 2.1l-1.9 7.8c0 0 50.7 4.6 72.8 10.4 22.1 5.8 35.3 11.4 35.3 11.4 0 0 46.5 10.3 78.9 17.8 24 5.5 37.5 8.3 37.5 8.3l36.5-130.5z"/>
								<g id="&lt;Group&gt;">
									<path id="&lt;Path&gt;" class="s5" d="m440 608.1c19.6-5.5 40.3-9.8 60.8-8.7 10.5 0.6 20.1 3.8 29.1 9.2 8.2 5.1 15.1 12 23.2 17.3 0.3 0.3 0.7-0.1 0.6-0.5 6.2-21 12-42.1 18-63.2 3.1-10.6 6-21.2 9-31.8 2.9-10.3 6.5-20.6 8.7-31l-0.5-0.9c-3.7 10.3-6 21.2-9 31.7-2.9 10.6-6 21.2-8.9 31.8-5.7 21.1-11.9 42-17.5 63.1-5.2-5.5-11.5-10.3-17.7-14.7-6.1-4.3-12.7-7.9-19.9-10-15.5-4.5-32.8-2.4-48.4 0.3-9.3 1.6-18.6 3.7-27.6 6.8q0-0.1-0.1-0.3c-3.9-4.3-8.9-7.7-13.7-10.8-6.1-4-12.5-7.6-19.1-10.5-14.5-6.5-29.9-8.8-45.7-7.6-9.6 0.8-19.5 2.3-28.7 5l-0.1 0.6c10.8-1.7 21.4-4.3 32.4-4.7 10.3-0.5 20.8 0.5 30.6 3.7 16.1 5.3 30.5 14.3 43.4 25.1 0.3 0.3 0.7 0.2 0.9 0q0.1 0.1 0.2 0.1z"/>
									<path id="&lt;Path&gt;" class="s5" d="m520.8 621.9c-5.8-2.5-11.9-4.3-18-5.6-13.3-2.8-27-2.9-40.6-2.4q1.2 0.2 2.4 0.5c12.5-0.3 25.1 0.1 37.5 2.7 6.2 1.4 12.3 3.3 18.1 5.8q4.3 1.9 8.3 4.3c1.3 0.7 2.6 1.7 3.9 2.6q1.6 0.4 3.2 0.7c-1.8-1.6-4.1-2.9-6.1-4.1q-4.2-2.5-8.7-4.5z"/>
									<path id="&lt;Path&gt;" class="s5" d="m392.6 587.7c-10.6-2.9-22-3.2-33-3.1-9.2 0.1-18.6 0.3-27.6 1.9q-0.1 0-0.2 0.1v0.2c0 0.1 0.1 0.2 0.2 0.2 10.4-0.3 20.7-1.5 31-1.4 7.4 0 14.9 0.4 22.2 1.6 7.3 1.2 14.3 3.7 21.2 6.4 7.7 3.1 15.3 6.8 22.4 11.2q1.6 0.6 3 1.1c-11.8-8.3-25.4-14.4-39.2-18.2z"/>
									<path id="&lt;Path&gt;" class="s5" d="m591.8 503.1l-0.4-0.6c-6.7 21.4-12.2 43.1-18.2 64.7-6 21.8-12.2 43.5-18.2 65.3-9.9-9.9-23.2-16.6-36.2-21.2-15-5.3-30.6-6.3-46.4-5.1-10.1 0.8-20.2 2.2-30.3 3.2q0.9 0.2 1.9 0.4c20.5-1.7 41.4-5.6 61.7-0.7 17.6 4.2 35.3 12.1 49.1 24 0.3 0.2 0.6-0.1 0.4-0.3 6.6-21.7 12.5-43.6 18.6-65.5 5.9-21.4 12.4-42.7 18-64.2z"/>
								</g>
							</g>
							<g id="&lt;Group&gt;">
								<g id="&lt;Group&gt;">
									<path id="&lt;Compound Path&gt;" class="s5" d="m220.5 230.1c0.3-0.5 0.5-1.3 0.4-2.1-0.4-2-2.5-4.2-4.7-3.4-2.5 0.8-2.9 4.6-1.1 6.4 1.7 1.7 4.4 1 5.4-0.9z"/>
									<path id="&lt;Compound Path&gt;" class="s5" d="m252.6 204.9c1.1 0 2.4-1 2.4-2.5 0-3.5-5.1-2.7-4.6 0.6 0.2 1.4 1.2 2 2.2 1.9z"/>
									<path id="&lt;Compound Path&gt;" class="s5" d="m271.6 218.7c1 0.8 2.5 0.4 3-0.7 0.8-1.7-1.3-3.7-2.9-2.5-1.1 0.8-1.1 2.4-0.1 3.2z"/>
									<path id="&lt;Compound Path&gt;" class="s5" d="m281.9 231.1c-4.3-4.7-11.5-7.4-17.8-5.9 0.8-4.7 0.1-10.2-2.5-13.5-3.3-4.1-8.7-3.9-13.4-2.4 0.3-2.7-0.5-5.8-2.1-7.7-1.5-1.8-3.9-2.8-6.4-3.1 1.2-2.8 0.8-6.4-1.5-8.7-3.6-3.7-7.5-1-9.4 2.5-0.5-3-3.4-5.1-6.8-4.3-0.1-0.1-0.3-0.1-0.5 0-2 1.2-2.9 3.8-2 6 0.6 1.3 1.7 2.3 3 2.9-1.6 2.1-2.1 5.2-1.1 7.9 0.8 1.9 2.3 3.4 4.1 4.3-3 3.2-4.1 7.8-2.4 12.1 1.4 3.7 5 7.3 9.1 8.6-8.8 3.9-15.3 13.7-12.3 23.5 2.4 7.9 14.1 12 21.9 8.8 1.1 3.3 3.4 6.5 5.9 8.7 6.4 5.8 15.7 6.3 23.7 3.8 8.9-2.9 15.1-10.1 16.8-19.2 1.5-8.4-0.4-18-6.3-24.3z"/>
								</g>
								<g id="&lt;Group&gt;">
									<path id="&lt;Path&gt;" class="s4" d="m187.7 182c0 0-0.7 6.3 1.4 11.7 2.1 5.5 6.4 7.4 11.3 9.3 4.9 1.8 11.3 4.4 13.1 4.4 1.8 0.1 3 0.2 2.7-1.1-0.4-1.4-6.5-3.3-7.6-6.6-1.2-3.3 0.7-5.6 0.7-5.6z"/>
									<path id="&lt;Path&gt;" class="s4" d="m208.9 156.8c0 0 6.1-1.4 11.8 0 5.7 1.4 8.1 5.5 10.5 10.1 2.4 4.6 5.8 10.8 6 12.5 0.3 1.7 0.5 3-0.8 2.8-1.4-0.2-4.1-6.1-7.4-6.8-3.4-0.7-5.5 1.4-5.5 1.4z"/>
									<path id="&lt;Path&gt;" class="s9" d="m208.6 199.7c-1.2-3.3 0.7-5.6 0.7-5.6l-21.6-12.1c0 0-0.3 2.7 0.1 6.2 2.9 1.6 5.8 3.5 8.7 5.2 2.4 1.6 4.9 3.1 6.9 5.2 2 2.2 3.4 4.9 5 7.4 2.3 0.8 4.3 1.4 5.1 1.4 1.8 0.1 3 0.2 2.7-1.1-0.4-1.4-6.5-3.3-7.6-6.6z"/>
									<path id="&lt;Path&gt;" class="s9" d="m237.2 179.4c-0.1-0.6-0.5-1.8-1.2-3.2-1.3-1-2.7-1.8-4.2-2.3-1.4-0.5-2.8-0.8-4.1-1.5-2-1-3.4-2.6-4.9-4.2q-4.1-4.5-8.1-9c-0.7-0.8-1.5-1.9-2.3-2.9-2.1 0.2-3.5 0.5-3.5 0.5l14.6 20c0 0 2.1-2.1 5.5-1.4 3.3 0.7 6 6.6 7.4 6.8 1.3 0.2 1.1-1.1 0.8-2.8z"/>
									<path id="&lt;Path&gt;" class="s10" d="m188.3 136.1c24.7 21 37.1 40 37.1 40 0 0-1 5.7-6.2 10.9-5.2 5.2-10.4 9-10.4 9 0 0-37.3-18.9-52.4-36.7-15.1-17.8-22.5-34.9-21-41.8 1.6-6.9 28.2-2.4 52.9 18.6z"/>
									<path id="&lt;Path&gt;" class="s11" d="m208.8 196c0 0 2.1-1.6 5-4-11-7-29.4-19.4-44.7-33.7-18.8-17.5-28.6-36.1-31.8-42.9-1 0.5-1.7 1.2-1.9 2.1-1.5 6.9 5.9 24 21 41.8 15.1 17.8 52.4 36.7 52.4 36.7z"/>
									<g id="&lt;Group&gt;">
										<path id="&lt;Path&gt;" class="s4" d="m166.1 120.4c0 0-10.6-6.3-22.5-6.8-10.3-0.4-9.5 5.7-8.7 11.5 1.5 10.9 9.5 21 9.5 21 0 0 5.9-3.9 11.3-9.6 5.5-5.8 10.4-16.1 10.4-16.1z"/>
										<path id="&lt;Path&gt;" class="s4" d="m134.6 116.6l-16.3-17.3 18.4 15.4z"/>
										<path id="&lt;Path&gt;" class="s9" d="m134.4 120.1c0 0 2.5-1.1 3.8-2.8 1.2-1.7 1.5-3.6 1.5-3.6 0 0-2.4-1.1-4.5 0.6-2.5 2-0.8 5.8-0.8 5.8z"/>
									</g>
									<path id="&lt;Path&gt;" class="s12" d="m219.5 186.6c-4.4-4.2-8.9-7.9-8.9-7.9 0 0-9.8-8.8-11.5-8.7-1.8 0-3.6 2.1-0.9 5.3 1.6 1.8 10.1 9.2 17.5 15 1.2-1.1 2.5-2.4 3.8-3.7z"/>
									<path id="&lt;Path&gt;" class="s4" d="m211.1 177.7c0 0-9.7-8.8-11.5-8.8-1.8 0-3.6 2.2-0.9 5.3 2.8 3.2 27.6 24.2 29.5 22.1 2.5-2.5-17.1-18.6-17.1-18.6z"/>
									<path id="&lt;Path&gt;" class="s12" d="m141.6 133.1c-3.4-4.6-5.7-9.8-7.1-13.2-0.1 1.6 0.1 3.4 0.4 5.2 1.5 10.9 9.5 21 9.5 21 0 0 3.3-2.2 7.2-5.7 2-2.3 3.3-4.4 3.3-4.4 0 0-7.7 4.9-13.3-2.9z"/>
									<path id="&lt;Path&gt;" class="s9" d="m143.6 145.3c0 0 7.8-5.8 13.1-12.2 5.4-6.4 8.1-13.9 8.1-13.9 0-0.1 1.7 0.4 2 0.4 0.9 0.4 1.7 1 2.4 1.7 0.3 0.3-2 5.8-8.8 14.4-0.6 0.7-2.5 2.9-3.2 3.6-6.1 6.2-10 9.8-11.1 9.9-1 0-3.1-2.1-2.5-3.9z"/>
									<path id="&lt;Path&gt;" class="s12" d="m150.1 139.9c-3.5 3.2-6.5 5.4-6.5 5.4-0.6 1.8 1.5 3.9 2.5 3.9 0.8-0.1 3.1-2.1 6.8-5.6-1.1-1.1-2-2.4-2.8-3.7z"/>
									<path id="&lt;Path&gt;" class="s9" d="m187.1 148.4c-0.5 5.9-5.7 10.3-11.6 9.7-5.9-0.5-10.2-5.7-9.7-11.6 0.5-6 5.7-10.3 11.6-9.8 5.9 0.5 10.2 5.7 9.7 11.7z"/>
									<path id="&lt;Path&gt;" class="s13" d="m184.6 148.1c-0.4 4.6-4.4 7.9-8.9 7.5-4.5-0.4-7.8-4.4-7.4-8.9 0.4-4.6 4.4-7.9 8.9-7.5 4.5 0.4 7.8 4.4 7.4 8.9z"/>
									<path id="&lt;Path&gt;" class="s5" d="m177.8 142.7c-0.1 1-1 1.8-2 1.7-1-0.1-1.8-1-1.7-2.1 0.1-1 1-1.7 2-1.7 1.1 0.1 1.8 1.1 1.7 2.1z"/>
									<path id="&lt;Path&gt;" class="s5" d="m176.9 146.6c0 0.5-0.4 0.8-0.9 0.8-0.4-0.1-0.8-0.5-0.7-0.9 0-0.5 0.4-0.8 0.9-0.8 0.4 0.1 0.8 0.5 0.7 0.9z"/>
									<path id="&lt;Path&gt;" class="s14" d="m144.5 116.2c-0.8 0-1.5 0.1-2.2 0.5-0.6 0.3-1.1 1-1.1 1.7 0 1.2 1.2 1.9 2.3 2.3 1.9 0.7 3.9 1 5.8 1.6 1.9 0.7 3.8 1.8 4.8 3.5 0.4 0.9 0.9 2 1.8 2 1.7 0.1 3.7-2.5 4.1-3.9 0.5-1.8-0.4-3.2-1.8-4.2-3.7-2.9-9.2-3.9-13.7-3.5z"/>
									<path id="&lt;Path&gt;" class="s14" d="m221.3 173.5c-12.5-15.1-24.4-27.8-41-41.4-2.4-2-6.7-5.8-10.1-4.8-2.3 0.6-3.9 3.8-2.4 6.1 0.5 0.8 1.6 1.3 2.5 1.7q1.2 0.5 2.3 1.1c3.3-1.3 7.9-0.3 10.6 1.4 3 1.9 6.2 6.9 5.2 10.7q1.4 1.3 2.7 2.6l27.6 26.7c0.5 0.5 1 1 1.7 1.2 0.8 0.2 1.8-0.2 2.2-1 0.8-1.4-0.3-3.1-1.3-4.3z"/>
								</g>
							</g>
							<g id="&lt;Group&gt;">
								<path id="&lt;Compound Path&gt;" class="s5" d="m583.6 284.1c-1.6-8.6-13.8-4.8-18.8-2.8-5.3 2.3-11.1 4-16.6 0.3-4.6-3.3-4.4-9.4-5.1-14.4-1-6.3-8.7-3-10.5 1-1.6 3.6-0.9 12.2 0.4 16.9 1.6 5.3 4.6 10.2 9.5 13 7.5 4.4 18.8 4.6 26.3 0 5.4-2.3 16.1-7.2 14.8-14z"/>
								<path id="&lt;Path&gt;" class="s15" d="m583.6 284.1c-0.5-2.6-2-4.1-4-4.8-2.6 4.2-7.5 7.4-11.3 10.1-5.4 3.8-11.7 6.5-18.4 4.9-12.3-3-15.4-16.7-15.5-28.4-0.8 0.7-1.4 1.5-1.8 2.3-1.6 3.6-0.9 12.2 0.4 16.9 1.6 5.3 4.6 10.2 9.5 13 7.5 4.4 18.8 4.6 26.3 0 5.4-2.3 16.1-7.2 14.8-14z"/>
								<g id="&lt;Group&gt;">
									<path id="&lt;Path&gt;" class="s5" d="m549.8 255.2c-0.3-0.4-1.1-0.4-1.6-0.3-1.9 0.4-4.1 1.5-5.6 2.9-0.4-0.1-0.8-0.2-1.1-0.4-1.6-1.1-1.5-2.7-2.6-4.2q0 0-0.1 0c-2.1-3.2-6.2-6.4-9.3-8.3-0.4-0.2-0.8-0.4-1.2-0.4-0.5 0-1 0.3-1 0.7-0.1 0.3 0.1 0.6 0.3 0.9 1.6 2.4 3.6 4.5 5.7 6.5q-0.2 0.1-0.4 0.2c-1.2-1-2.4-2-3.7-3-1.6-1.1-3.4-2-5.3-2.3-0.2 0-0.6 0-0.7 0.2-0.2 0.2-0.1 0.5 0 0.8 0.3 0.6 0.8 1.1 1.3 1.6q2.9 2.5 6 4.6-0.3 0.3-0.5 0.6c-2-1.6-4.5-3.2-7.4-3.5-0.4 0-1 0.1-1 0.5q0.1 0.1 0.2 0.3c0.5 0.8 1.2 1.4 2 1.9 1.6 1.2 2.9 2.2 4.7 3.1q-0.2 0.2-0.3 0.5c-2-1-4.1-1.6-5.6-1.4-0.4 0.1-1.7 0.5-1.4 1.1 0.5 0.9 4.6 1.8 6.8 3.2q0 0 0.1 0.1 0.2 0.1 0.4 0.2c2.6 1.8 4.1 4.1 4.9 5.3 0.2 0.2 0.6 0 0.5-0.3q0 0-0.1-0.1c3.9 1.2 8.1 1.1 10-2.5q0.3-0.4 0.7-0.8c1.2-1.5 2.7-2.5 3.9-4q0.8-1 1.3-2.1c0.2-0.5 0.4-1.1 0.1-1.6z"/>
								</g>
								<g id="&lt;Group&gt;">
									<path id="&lt;Path&gt;" class="s16" d="m544.5 265.1c-1.1-1-2.9-0.8-4.2-0.8-2.8 0.2-6-0.2-8.5 1-0.4 0.2-0.7 0.4-0.9 0.6-0.7 0.7-0.5 1.7 0.4 2.1 0.3 0.2 0.7 0.2 1.1 0.3 3.7 0.5 7.5 0.2 11-0.7 0.7-0.2 1.5-0.6 1.6-1.3 0.1-0.3-0.1-0.7-0.3-1q-0.1-0.1-0.2-0.2z"/>
								</g>
								<path id="&lt;Path&gt;" class="s5" d="m591.4 348.9c0.2-2.4-2.7-3.8-4.4-5.1-3.6-2.8-7.3-5.5-10.9-8.3-7.5-5.8-14.7-11.9-19.1-20.3 0.2-0.2 0.2-0.6-0.1-0.6-7-0.5-14.2 0.3-21.1 1.3-6.3 1-12.8 2.4-18.2 6-4.7 3.3-7.2 7.8-8.9 13.3-2.2 6.8-4.3 14.1-5.2 21.3 0 0.2 0.1 0.4 0.3 0.5q0 0.1 0.2 0.2c4.1 1.2 8.5 1.7 12.7 2.4 0.3 0 0.6-0.2 0.6-0.5 1.8-7.3 6.4-17.7 13.8-20.9 7.9-3.4 17-0.4 24.7 1.9q0.7 1.1 1.4 2c0.7 0.9 1.4 1.9 2.1 2.8-6.8 5.4-13.4 11.7-13.7 20.8-0.2 5.6 1.8 11.4 3.6 16.6 2 5.6 4 11.9 7.1 17.1 2.5-0.6 4.1-0.8 6.4-1.9 1.8-0.9 4.5-1.7 4.3-2.7-1.3-4.3-2.7-11.8-2.6-16.4 0.2-4.7 2.3-9.1 5.4-12.7 5.7-6.8 14.2-11 21.5-15.9 0.3-0.3 0.3-0.6 0.1-0.9z"/>
								<path id="&lt;Path&gt;" class="s15" d="m556.7 341.4q-0.1-0.5-0.5-1c-0.7-1-1.9-1.6-3-2.1-1.8-0.9-3.8-1.6-5.8-2-6.1-1.5-13-2.1-19.1-0.4-10.6 3.1-13.8 13.3-16.4 23q2.4 0.3 4.8 0.7c0.3 0 0.6-0.2 0.6-0.5 1.8-7.3 6.4-17.7 13.8-20.9 7.9-3.4 17-0.4 24.7 1.9q0.4 0.7 0.9 1.3z"/>
								<path id="&lt;Path&gt;" class="s15" d="m589.6 345.7c-7.9 6.4-17.8 10.5-24.2 18.7-3.9 5.1-6.2 11.4-6.1 17.9 0.1 5.4 1.8 10.2 3.7 15 1.8-0.8 4.2-1.6 4-2.5-1.3-4.3-2.7-11.8-2.6-16.4 0.2-4.7 2.3-9.1 5.4-12.7 5.7-6.8 14.2-11 21.5-15.9 0.3-0.3 0.3-0.6 0.1-0.9 0.1-1.3-0.7-2.3-1.8-3.2z"/>
								<path id="&lt;Path&gt;" class="s17" d="m565.1 340.7c4.6 3.8 9.6 7.4 14.9 10 1.9 0.9 4 1.7 6 2.5 1.8-1.1 3.6-2.3 5.3-3.4 0.3-0.3 0.3-0.6 0.1-0.9 0.2-2.4-2.7-3.8-4.4-5.1-3.6-2.8-7.3-5.5-10.9-8.3-7.5-5.8-14.7-11.9-19.1-20.3 0.2-0.2 0.2-0.6-0.1-0.6q-4-0.3-8.1-0.1c1.4 10.6 8.2 19.4 16.3 26.2z"/>
								<path id="&lt;Compound Path&gt;" class="s5" d="m608.2 292.6c0.1-0.2 0.1-0.4-0.1-0.6-3.6-1.5-7.2-2.7-10.4-5-2.5-1.8-4-4.8-6.7-6.3-5.1-3-10.8 0.8-14.6 4.2-4.4 4.1-7.7 9.1-11.2 14-3.9 5.4-8 9.9-13.5 13.8-0.3 0.1-0.3 0.4-0.2 0.7-0.1 9.1 7.6 17.3 13.7 23.3 7.1 6.9 15.5 12.1 24.8 15.6 0.2 0.1 0.4 0 0.5-0.1q0.1 0 0.2-0.1c5.4-3.3 10.2-8.5 14.2-13.4 4-5 7.6-10.6 9.8-16.6 5.2-14.1 3.3-23.8-6.5-29.5z"/>
								<g id="&lt;Group&gt;">
									<path id="&lt;Compound Path&gt;" class="s10" d="m574.7 406.8c-0.1-0.1-0.2-0.1-0.3-0.1-4.7 1-9.3 3.4-13.7 5.3-2.6 1.1-5.2 2.3-7.8 3.3-2.3 0.9-4.8 1.5-6.8 3-0.2 0.1-0.1 0.3 0 0.4q-0.1 0.1-0.1 0.2c0.1 0.7 0.7 3.2 2 3 1.1-0.1 1.1-1.9 0.9-2.4 0.4 0.8 0.9 2.1 2.1 1.9 1.2-0.3 1.3-1.6 1.2-2.5q0 0 0 0c0.2 0.2 0.4 0.5 0.6 0.7 0.3 0.3 0.9 1.1 1.4 1 1-0.1 1-1.5 1.1-2.5 0.1 0.2 0.2 0.4 0.4 0.6 0.4 0.4 0.9 0.7 1.5 0.7 1.2-0.1 1.5-1.3 1.7-2.3q0-0.2 0-0.3 0.1 0.3 0.3 0.6c0.4 0.5 0.9 1 1.7 0.8 0.9-0.2 1.2-1.2 1.2-2.1 0.3 0.4 0.9 1 1.3 1.1 1.1 0.1 1.8-1.1 1.9-2.1 0.2 0.4 0.8 1 1.2 1 1.3 0.1 1.8-2.1 1.8-3.1q0.1 0.2 0.2 0.4c0.4 0.4 1 1 1.6 1 1.1 0 1.5-1.4 1.5-2.3q-0.1-0.2-0.1-0.3c0.3 0.4 0.7 0.9 1.1 1 1.1 0.2 1.4-0.7 1.4-1.6 0-0.2-0.1-0.6-0.2-0.9q0.2 0.3 0.5 0.4c2.8 1 1.2-2.9 0.4-3.9z"/>
									<path id="&lt;Path&gt;" class="s16" d="m574.6 405.7c-1.1-2.7-3.8-4.5-4.8-7.3-0.6-1.5-0.9-3.1-1.3-4.6q-0.4-1.6-0.9-3.2c-0.1-0.2-0.1-0.6-0.2-1-0.1-0.4-0.6-0.6-1-0.4-1.5 0.9-4 1.8-5.7 2.4-2.6 0.9-5 1.3-7.8 1.6-0.4 0-0.3 0.4-0.2 0.8 0.9 3.8 1.6 8.6-0.7 10-1.6 0.9-3.4 1.2-4.9 2.3-2.1 1.4-3 3.8-3 6.3 0 2.5 1 4.6 2 6.8 3.2 0.5 10.6-1.7 15.3-3.5 3.8-1.5 8.7-3.1 11.8-5.7 1.4-1.2 2.1-2.7 1.4-4.5z"/>
									<g id="&lt;Group&gt;">
										<path id="&lt;Path&gt;" class="s10" d="m568.4 391.2c-5.3 2.2-10.6 3.6-16.3 5 0 0 0.5 2.8 0.7 3.9 6.5-1.2 10.8-2.9 16.4-5.1-0.4-1.3-0.4-2.5-0.8-3.8z"/>
									</g>
								</g>
								<g id="&lt;Group&gt;">
									<path id="&lt;Path&gt;" class="s18" d="m609.3 291.1q-0.3-0.1-0.6-0.2c-4.5-2.1-9.2-4.2-12.5-8.2-0.3-0.4-0.6-0.8-1-1.1-1.1-0.9-2.3 0.4-2.7 1.5-0.9 3.1 2.9 6.1 5 7.7 1.6 1.2 3.3 2.1 5.1 2.8 1.9 0.7 4.1 1.5 6 0.8 1.1-0.5 2.2-2 1-3q-0.1-0.1-0.3-0.3z"/>
								</g>
								<g id="&lt;Group&gt;">
									<path id="&lt;Compound Path&gt;" class="s10" d="m515.6 376.7c0-0.1-0.1-0.2-0.2-0.2-4.6-1.5-9.7-1.7-14.5-2.3-2.8-0.4-5.6-0.7-8.4-1.1-2.4-0.4-4.9-1-7.4-0.8-0.2 0-0.2 0.2-0.2 0.3q-0.1 0.1-0.1 0.1c-0.3 0.7-1 3.2 0.1 3.7 1 0.4 1.9-1.1 2-1.7 0 0.9-0.3 2.3 0.9 2.7 1.2 0.4 1.9-0.7 2.3-1.5q0 0 0 0c0.1 0.3 0.1 0.6 0.1 0.9 0.1 0.4 0.3 1.4 0.8 1.6 0.9 0.3 1.6-0.8 2.2-1.6 0 0.2 0 0.4 0 0.6 0.2 0.6 0.5 1.2 1 1.4 1.1 0.5 2-0.3 2.6-1.2q0.1-0.1 0.1-0.1 0 0.2 0 0.6c0.1 0.6 0.3 1.3 1 1.5 1 0.3 1.7-0.4 2.2-1.1 0 0.5 0.2 1.3 0.6 1.5 0.8 0.7 2 0 2.6-0.9 0 0.5 0.2 1.3 0.6 1.6 1.1 0.7 2.6-1 3.1-1.8q0 0.2 0 0.4c0.1 0.5 0.3 1.4 0.8 1.7 1 0.5 2-0.4 2.4-1.3q0.1-0.1 0.2-0.2c0 0.4 0.1 1.1 0.4 1.3 0.8 0.8 1.6 0.2 2-0.6 0.2-0.2 0.2-0.5 0.3-0.9 0 0.3 0.1 0.5 0.3 0.7 1.9 2.2 2.4-2 2.2-3.3z"/>
									<path id="&lt;Path&gt;" class="s16" d="m516.1 375.8c0.4-3-1-5.9-0.5-8.8 0.2-1.6 0.8-3.1 1.2-4.6q0.4-1.6 0.8-3.2c0.1-0.2 0.3-0.6 0.4-1 0.1-0.5-0.3-0.9-0.7-0.9-1.7 0-4.3-0.4-6.1-0.8-2.7-0.5-5-1.3-7.5-2.5-0.4-0.1-0.6 0.2-0.7 0.6-1 3.8-2.9 8.3-5.6 8.3-1.8 0-3.5-0.7-5.4-0.5-2.5 0.2-4.5 1.8-5.7 3.9-1.3 2.2-1.5 4.6-1.8 7 2.6 2 10.1 3.9 15.1 4.6 4 0.7 9 1.7 13.1 1 1.7-0.3 3.1-1.3 3.4-3.1z"/>
									<g id="&lt;Group&gt;">
										<path id="&lt;Path&gt;" class="s10" d="m518 360c-5.7-0.6-11-2.1-16.6-3.8 0 0-1 2.7-1.3 3.7 6.2 2.2 10.8 3 16.7 3.9 0.4-1.4 1-2.4 1.2-3.8z"/>
									</g>
								</g>
								<path id="&lt;Path&gt;" class="s5" d="m601.8 289c-11-6.3-19-17.7-20.4-31.4-2-19.7 10.4-42.8 37.5-43.2 27-0.3 47.1 25.3 42 49.5-2.4 11.8-10.6 21.2-21.3 26.6-12.8 6.4-26.8 5-37.8-1.5z"/>
								<path id="&lt;Path&gt;" class="s13" d="m602.2 274.2c-7.4-4.3-12.9-12-13.8-21.3-1.4-13.4 7-29.1 25.4-29.3 18.4-0.2 32 17.2 28.5 33.6-1.6 8-7.2 14.4-14.4 18-8.7 4.3-18.2 3.4-25.7-1z"/>
								<path id="&lt;Path&gt;" class="s5" d="m610.6 233.3c0 2.5-2 4.4-4.5 4.3-2.4 0-4.3-2-4.2-4.4 0-2.5 2-4.4 4.4-4.3 2.5 0 4.4 2 4.3 4.4z"/>
								<path id="&lt;Path&gt;" class="s5" d="m609.1 242.8c0 1-0.9 1.9-1.9 1.8-1.1 0-1.9-0.9-1.9-1.9 0-1.1 0.9-1.9 2-1.9 1 0 1.9 0.9 1.8 2z"/>
								<path id="&lt;Path&gt;" class="s15" d="m656.3 236.3c1.7 5.9 2.1 12.2 0.8 18.5-2.2 10.5-7.6 21-17 27-10.1 6.5-23.8 7.8-35.3 5-3.9-1-7.7-2.4-11.3-4 2.5 2.4 5.3 4.5 8.3 6.2 11 6.5 25 7.9 37.8 1.5 10.7-5.4 18.9-14.8 21.3-26.6 2-9.5 0.1-19.3-4.6-27.6z"/>
								<path id="&lt;Path&gt;" class="s16" d="m600 341.2c-2.9-1-5.6-2.1-8.2-3.6-5.2-3-10.1-6.5-14.4-10.6-6.5-6.1-13.5-13.8-16.8-22.4q-1.6 1.9-3.4 3.6c2.6 8.5 9.2 15.9 15.3 22 7.2 7.2 15.5 13.7 25.7 16q2-2.1 3.9-4.2-1.1-0.5-2.1-0.8z"/>
								<path id="&lt;Path&gt;" class="s16" d="m584.6 323.8c4.3 3.2 8.9 6 13.7 8.3 2.9 1.4 5.8 2.6 8.7 3.8q1.9-2.6 3.6-5.4c-3.3-0.7-6.6-2.5-9.4-3.9-4.6-2.3-9-5-13.2-8-8.3-6-15.6-13.5-21.1-22.1q-0.9 1.2-1.7 2.4-0.8 1-1.5 2c5.7 8.8 12.5 16.5 20.9 22.9z"/>
								<path id="&lt;Path&gt;" class="s18" d="m577.9 331.7c-1.3 0.1-2.5-0.3-3.5-1.2-11.3-10.5-11.5-11.9-11.5-12.5-0.3-1.7 1.5-3.8 4.3-7.2 1-1.1 1.9-2.1 2.5-2.9 0.6-0.9 1.3-2.1 2.3-3.5 3.6-5.7 6.3-9.8 8.3-10.5q0.3-0.1 0.7-0.1c3.4-0.3 13.5 5.3 15.9 9.5 2.7 4.8-0.3 8.9-5.4 15.2-3.4 4.2-7.7 8.7-10.7 11.8-0.8 0.8-1.8 1.3-2.9 1.4q0 0 0 0z"/>
								<path id="&lt;Path&gt;" class="s15" d="m575.1 329.7c1.4 1.3 3.6 1.3 5-0.1 2.6-2.8 7.1-7.5 10.6-11.8 5.3-6.6 7.5-10 5.2-14-2.2-4-12.7-9.8-15.2-8.9-2.5 0.9-7.8 10.2-10.2 13.6-1.9 2.7-6.9 7.4-6.6 9.4 0.2 1.4 7.3 8.2 11.2 11.8z"/>
								<g id="&lt;Group&gt;">
									<path id="&lt;Path&gt;" class="s19" d="m577.2 304.1l-2.3 3.1 3 2.4 2.3-2.9z"/>
									<path id="&lt;Path&gt;" class="s19" d="m586.2 316.3l2.3-2.8-3.3-2.7-2.2 2.9z"/>
									<path id="&lt;Path&gt;" class="s19" d="m578.9 310.4l3.1 2.5 2.3-2.9-3.1-2.6z"/>
									<path id="&lt;Path&gt;" class="s19" d="m589.8 312l3.4-4-3.8-2.7-3 4z"/>
									<path id="&lt;Path&gt;" class="s19" d="m585.4 308.5l3.1-3.9-3.3-2.4-2.9 3.8z"/>
									<path id="&lt;Path&gt;" class="s19" d="m581 299.2l-2.8 3.6 3.2 2.5 2.9-3.7z"/>
									<path id="&lt;Path&gt;" class="s19" d="m573.8 308.6l-2.3 3 3 2.4 2.3-3z"/>
									<path id="&lt;Path&gt;" class="s19" d="m582.6 320.6l2.4-2.8-3.1-2.6-2.3 2.9z"/>
									<path id="&lt;Path&gt;" class="s19" d="m575.5 314.8l3 2.5 2.3-3-3-2.4z"/>
									<path id="&lt;Path&gt;" class="s19" d="m570.4 313l-2.1 2.8 2.7 2.6 2.4-3z"/>
									<path id="&lt;Path&gt;" class="s19" d="m578.4 325.7l3-3.7-2.9-2.4-2.7 3.5z"/>
									<path id="&lt;Path&gt;" class="s19" d="m574.4 316.3l-2.4 3.1 2.7 2.7 2.7-3.4z"/>
								</g>
								<g id="&lt;Group&gt;">
									<path id="&lt;Path&gt;" class="s16" d="m577.1 303.4l-2.3 3.1 3 2.4 2.4-2.9z"/>
									<path id="&lt;Path&gt;" class="s16" d="m586.1 315.6l2.4-2.8-3.3-2.7-2.3 2.9z"/>
									<path id="&lt;Path&gt;" class="s16" d="m578.8 309.7l3.1 2.5 2.3-2.9-3.1-2.6z"/>
									<path id="&lt;Path&gt;" class="s16" d="m589.7 311.3l3.4-4-3.7-2.7-3.1 4z"/>
									<path id="&lt;Path&gt;" class="s16" d="m585.4 307.8l3.1-3.9-3.4-2.4-2.9 3.8z"/>
									<path id="&lt;Path&gt;" class="s16" d="m580.9 298.5l-2.7 3.6 3.1 2.5 2.9-3.7z"/>
									<path id="&lt;Path&gt;" class="s16" d="m573.7 307.9l-2.3 3 3 2.4 2.3-3z"/>
									<path id="&lt;Path&gt;" class="s16" d="m582.6 319.9l2.3-2.8-3.1-2.6-2.2 2.9z"/>
									<path id="&lt;Path&gt;" class="s16" d="m575.5 314.1l3 2.5 2.3-3-3-2.4z"/>
									<path id="&lt;Path&gt;" class="s16" d="m570.4 312.3l-2.2 2.8 2.7 2.6 2.4-3z"/>
									<path id="&lt;Path&gt;" class="s16" d="m578.3 325l3.1-3.7-3-2.4-2.7 3.5z"/>
									<path id="&lt;Path&gt;" class="s16" d="m574.4 315.6l-2.4 3.1 2.7 2.7 2.6-3.4z"/>
								</g>
								<path id="&lt;Path&gt;" class="s20" d="m609.5 293.4c1.6 4.3 1.8 9 1.7 13.4-0.2 6.4-1.4 12.8-4.1 18.6-4.4 9.4-12 18.8-20.8 25.4q1.8 0.8 3.7 1.5c0.2 0.1 0.4 0 0.5-0.1q0.1 0 0.2-0.1c5.4-3.3 10.2-8.5 14.2-13.4 4-5 7.6-10.6 9.8-16.6 4.9-13.4 3.4-22.9-5.2-28.7z"/>
								<path id="&lt;Compound Path&gt;" class="s5" d="m654.1 324.4c-1.9-4.9-8.2-12.4-12.6-15.4-14.6-9.9-27-9.9-29.4-9.5-5.7 0.9-12.1 12.7-3.8 19.2 0.4 0.3 0.7 0.3 0.9 0 8.6-0.4 17.7 0.8 25.2 5.5 7.1 4.4 11 10.5 13.9 18.2 0.1 0.3 0.5 0.4 0.7 0.2 2.5 1.1 5.8 1 8.3 0.1 0.2 0.3 0.7 0.2 0.7-0.2 0.4-6-1.7-12.5-3.9-18.1z"/>
								<path id="&lt;Path&gt;" class="s15" d="m645.8 331.2c-2.9-4.5-6.5-8.5-10.8-11.6-8.8-6.4-19.4-7.3-29.4-4 0.6 1.1 1.5 2.2 2.7 3.1 0.4 0.3 0.7 0.3 0.9 0 8.6-0.4 17.7 0.8 25.2 5.5 7.1 4.4 11 10.5 13.9 18.2 0.1 0.3 0.5 0.4 0.7 0.2 0.8 0.4 1.6 0.6 2.5 0.7-1.6-4.1-3.2-8.2-5.7-12.1z"/>
								<path id="&lt;Compound Path&gt;" fill-rule="evenodd" class="s5" d="m664.3 358.3c-0.2 0.5-1.1-0.2-1.5-0.7-0.5-0.7-1.5-1.5-2.3-2.5q0 0.1 0.1 0.2c0.3 1.2 0.9 2.6 1.2 3.7 0.2 0.9 0.7 2.4 0.3 2.8-0.7 0.5-1.5-1.2-1.9-2-0.6-1-1.5-2.2-2-3.2q0 0-0.1-0.1c0.6 2.6 1.4 6.9 0.8 7.4-0.8 0.8-2.3-3.6-2.5-4-0.3-0.7-1.2-2.9-1.5-3.4 0.2 2.7 0.4 6.7-0.1 7.5-0.6 0.7-1.8-2-1.9-2.3-0.7-2-0.8-4.1-1.2-6.1-0.1-0.8-0.4-1.6-0.9-2.2-0.1-0.1-1-0.9-1-0.9-0.8 1.3-5.2 4.5-6.2 2.3-0.5-1 1-2 1.6-2.7 1.6-1.5 2.6-2.9 3.4-4.9 0.3-1 0.6-1.9 0.5-3.1-0.1-0.2-0.1-0.4 0-0.6 0-0.4 0.4-0.5 0.7-0.3 2.2-0.7 3.8-1.2 6.1-0.8 1.8 0.3 2.5 1.2 3.1 2.8 0.9 2 5.7 12.5 5.3 13.1zm-14.5-5.8q0 0 0 0zm5 3.3q0 0 0 0 0 0 0 0z"/>
								<g id="&lt;Group&gt;">
									<path id="&lt;Path&gt;" class="s16" d="m660.1 341.9c-1.1-1.1-2.8-1-4.2-0.9-2.8 0-5.9-0.4-8.5 0.7-0.4 0.2-0.7 0.3-1 0.6-0.6 0.7-0.4 1.6 0.4 2.1 0.3 0.2 0.7 0.2 1.1 0.3 3.7 0.6 7.5 0.5 11.1-0.4 0.6-0.1 1.4-0.5 1.5-1.2 0.1-0.4 0-0.8-0.3-1.1q0-0.1-0.1-0.1z"/>
								</g>
								<g id="&lt;Group&gt;" style="mix-blend-mode: multiply">
									<path id="&lt;Path&gt;" class="s15" d="m574.8 407.1q0-0.7-0.2-1.4c-1.1-2.7-3.8-4.5-4.8-7.3-0.4-1.1-0.7-2.2-1-3.2q0.2-0.1 0.4-0.2c-0.4-1.3-0.4-2.5-0.8-3.8q-0.3 0.1-0.6 0.2-0.1-0.4-0.2-0.8c-0.1-0.2-0.1-0.6-0.2-1-0.1-0.4-0.6-0.6-1-0.4-1.3 0.7-3.3 1.5-5 2.1 2.1 5.1 5 9.5 7.5 14.4 1.2 2.4 2.1 5.2 2.3 8 0.3-0.5 0.4-1.1 0.4-1.6q-0.1-0.2-0.1-0.3c0.3 0.4 0.7 0.9 1.1 1 1.1 0.2 1.4-0.7 1.4-1.6 0-0.2-0.1-0.6-0.2-0.9q0.2 0.3 0.5 0.4c2.6 0.9 1.4-2.4 0.5-3.6z"/>
								</g>
								<g id="&lt;Group&gt;" style="mix-blend-mode: multiply">
									<path id="&lt;Path&gt;" class="s15" d="m518 358.2c0.1-0.4-0.3-0.9-0.7-0.9-1.2 0-2.9-0.2-4.4-0.5-0.5 6.5-0.6 12.9-2.1 19.2-0.3 1.5-0.8 3.2-1.4 4.8 0.3-0.3 0.6-0.7 0.8-1.1q0.1-0.1 0.2-0.2c0 0.4 0.1 1.1 0.4 1.3 0.8 0.8 1.6 0.2 2-0.6 0.2-0.2 0.2-0.5 0.3-0.9q0 0.4 0.3 0.7c1.7 2 2.3-1.4 2.2-3q0.3-0.5 0.5-1.2c0.4-3-1-5.9-0.5-8.8 0.2-1.1 0.5-2.2 0.8-3.3q0.2 0.1 0.4 0.1c0.4-1.4 1-2.4 1.2-3.8q-0.3 0-0.6 0 0.1-0.4 0.2-0.8c0.1-0.2 0.3-0.6 0.4-1z"/>
								</g>
							</g>
							<g id="&lt;Group&gt;">
								<path id="&lt;Path&gt;" class="s21" d="m650.2 318.3c-7.7 0.5-11.2 8.3-10 15.3 1.6 8.6 8.7 16.3 14.2 22.8 11.6 13.5 25.8 26 31.3 43.6 4.2 13.5 1.4 28.7-10.2 37.7-9.4 7.2-21.9 9.3-33.5 8.2-28.3-2.9-44.5-29.3-67.3-43.1-12.4-7.5-27.1-10.7-40.9-4.9-14.3 6.1-24 18.6-29.9 32.6-5.8 13.7-8.9 28.5-9.8 43.4-0.8 14.5 0.9 29.5 6.9 42.9 1.4 3.3 3.2 5.8 5.7 8.4 1.8 1.7 5.6 0 4.5-2.6-2.5-6.2-5.5-12.1-7.2-18.6-1.8-6.9-2.7-14-2.9-21.1-0.3-14.6 2-29.3 6.7-43.1 4.6-13.5 11.9-26.3 24.6-33.7 12.9-7.4 27.1-4.9 39.4 2.6 22.5 13.7 38.2 38.6 65.8 42.8 23.3 3.7 50.5-6.3 55.8-31.7 3.5-17.1-4.8-33.5-15.2-46.5-5.6-7-11.9-13.3-17.9-20-3.1-3.3-6.1-6.7-8.7-10.4-2.6-3.5-5.5-7.5-5.8-12-0.3-3.4 1.6-7.2 5-8.2 2.4-0.7 2.1-4.6-0.6-4.4z"/>
							</g>
							<g id="&lt;Group&gt;">
								<path id="&lt;Path&gt;" class="s22" d="m407.9 301.8c-2 13.6-14.7 23-28.3 21-13.6-2.1-23-14.7-20.9-28.3 2-13.6 14.6-23 28.2-21 13.7 2 23 14.7 21 28.3z"/>
								<path id="&lt;Path&gt;" class="s23" d="m392.9 299.3c6.1-2.3 6.5-8.7 9.8-11.9 0.8-0.8 1.5-1.3 2.2-1.7q-1.4-2.4-3.4-4.5c-2.4 5.4-6.6 10-12.3 12-8.9 3.1-22.1-3.9-30.7 2.3-0.3 3.4 0 6.7 0.9 9.8q1.1-1.2 2.3-2.5c9-9.1 23.3-0.5 31.2-3.5z"/>
								<path id="&lt;Path&gt;" class="s24" d="m366.6 286.5c12.9 1.7 20.3 2 23.7-6.5 0.9-2.4 1.1-4 1.3-5.4q-2.2-0.7-4.7-1.1-0.4-0.1-0.8-0.1c-0.6 1.6-1.6 3.1-2.7 4.1-3.6 3.2-13.3 6.4-18.9 4.3-1.5 1.7-2.8 3.6-3.7 5.7 1.8-0.8 3.7-1.3 5.8-1z"/>
								<path id="&lt;Path&gt;" class="s25" d="m369.4 318.8c1.8-1.8 3.4-3.6 5.8-4.8 4.2-2.2 8.8-2.7 13.5-3 6-0.2 12.2-2 17.9-4q0.9-2.5 1.3-5.2 0.2-1.2 0.3-2.4c-5.8 3.8-12.6 5.7-19.9 5.9-6.2 0.2-12.5 0.2-18.4 2.2-2.1 0.8-5 2.6-7.1 4.8 1.8 2.5 4 4.8 6.6 6.5z"/>
								<path id="&lt;Path&gt;" class="s26" d="m403.7 312.3c-2.6 1.2-5.3 2.3-8.2 3.1-3.4 0.9-6.8 1.6-10.1 2.9-2 0.8-6 2.1-8.3 4q1.3 0.3 2.5 0.5c9.7 1.4 18.9-2.9 24.1-10.5z"/>
								<path id="&lt;Path&gt;" class="s27" d="m381.8 294.8c-5.5 3.7-12.2 3.3-14.9-0.9-2.8-4.1-0.6-10.5 4.8-14.1 5.5-3.7 12.2-3.3 14.9 0.8 2.8 4.2 0.7 10.5-4.8 14.2z"/>
								<path id="&lt;Path&gt;" class="s28" d="m395.5 276.4c5.7 5.3 8.8 13.2 7.6 21.5-2 13.2-14.3 22.4-27.6 20.4-4.9-0.7-9.2-2.9-12.7-6 3.8 5.5 9.7 9.4 16.8 10.5 13.6 2 26.3-7.4 28.3-21 1.6-10.5-3.7-20.5-12.4-25.4z"/>
							</g>
							<g id="&lt;Group&gt;">
								<g id="&lt;Group&gt;">
									<path id="&lt;Path&gt;" class="s29" d="m254.8 388.7c2.7 16.8-8.8 32.6-25.7 35.2-16.8 2.7-32.6-8.8-35.2-25.7-2.7-16.8 8.8-32.6 25.7-35.2 16.8-2.7 32.6 8.8 35.2 25.7z"/>
								</g>
								<g id="&lt;Group&gt;" style="opacity: .8">
									<path id="&lt;Path&gt;" class="s30" d="m206.9 418.9c5.3-2.6 4.7-7.9 7.5-12.4 3.3-5.2 8.2-3.1 13.4-4.5 5.7-1.6 8-6.8 7.9-12.4-0.1-3.4-2.3-12.7-6.4-13.8-4.9-1.2-1.1 7.1-1.3 10.1-0.5 6.6-3 7.7-8.6 8.5-2.8 0.3-5 0.8-7.3 2.8-2 1.7-3.1 5.5-5.5 6.7-3.6 1.8-8.6-0.7-12.5-4.3 1.7 8.1 6.4 14.9 12.8 19.3z"/>
									<path id="&lt;Path&gt;" class="s31" d="m201.4 390c6.1 0.5 16.2-4.8 17.4-11.2 0.7-3.9-2.1-8-3.1-11.3-0.5-1.5-0.6-2.6-0.5-3.5q-3.4 1.1-6.4 2.8c1.4 1.2 2.6 2.4 3.3 3.9 2.1 4.7 0.9 8.9-4.1 10.3-3.1 0.8-9-0.8-11.1 2.4-2.7 4.1 1.3 6.3 4.5 6.6z"/>
									<path id="&lt;Path&gt;" class="s32" d="m235.5 364.7q0.5 0.8 1 1.4c2.2 2.7 6.1 3.7 5.5 7.9-0.3 2.8-2.3 3.3-2 6.5 0.3 2.8 1.8 6.8 3.2 9.3 2.2 3.6 4.2 3.8 5.8-0.6 1.6-4.1-0.7-5.2-1.8-8.5-0.8-2.5 0.1-4.4 1.4-6.4-3.4-4.3-8-7.6-13.1-9.6z"/>
									<path id="&lt;Path&gt;" class="s30" d="m235.6 419.7c7-3 6.1-10.7-1.3-13-3-0.9-5.8 0.1-8.1 2.1-3.3 2.8-1.6 6.1-3.5 8.9-2 3-6.6 1.1-9.3 3.2q-0.6 0.5-1 1c2.8 1.2 5.9 2 9 2.3 3.3-3.6 9.6-2.6 14.2-4.5z"/>
									<path id="&lt;Path&gt;" class="s30" d="m255.2 393.8c-0.8 2.5-2.5 4.2-5.5 4.1-4.6-0.2-7.8-0.2-7.6 5.3 0.1 3.2 2.9 8.2 5.8 10.2 4.5-5.4 7.2-12.3 7.3-19.6z"/>
								</g>
								<path id="&lt;Path&gt;" class="s28" d="m230.7 363.3c8.8 4.1 15.4 12.3 17 22.5 2.5 16.4-8.7 31.8-25.1 34.4-6 0.9-12 0-17.2-2.4 6.5 5 15 7.5 23.7 6.1 16.9-2.6 28.4-18.4 25.7-35.2-2-13-11.9-22.9-24.1-25.4z"/>
								<path id="&lt;Path&gt;" class="s33" d="m221.3 390.1c-5.1 6.3-13.1 8.3-17.9 4.5-4.8-3.9-4.6-12.2 0.5-18.6 5.1-6.3 13.1-8.3 18-4.5 4.8 3.9 4.6 12.2-0.6 18.6z"/>
							</g>
							<g id="&lt;Group&gt;">
								<g id="&lt;Group&gt;">
									<g id="&lt;Group&gt;">
										<path id="&lt;Path&gt;" class="s34" d="m636.7 143.2c0.8 11.2-7.5 20.9-18.6 21.7-11.2 0.8-20.8-7.5-21.7-18.7-0.8-11.1 7.5-20.8 18.7-21.6 11.1-0.8 20.8 7.5 21.6 18.6z"/>
									</g>
									<path id="&lt;Path&gt;" class="s35" d="m614.8 142.4c-3.7 3.8-9 4.7-12 1.9-2.9-2.7-2.3-8.1 1.3-12 3.7-3.9 9.1-4.8 12-2 2.9 2.8 2.4 8.2-1.3 12.1z"/>
								</g>
								<path id="&lt;Path&gt;" class="s11" d="m636.7 143.2c-0.6-8.5-6.5-15.3-14.1-17.7 2.8 2.9 4.7 6.8 5 11.2 0.7 10.1-6.8 18.8-16.8 19.5-4.9 0.4-9.6-1.3-13.1-4.2 3.1 8.1 11.3 13.6 20.4 12.9 11.1-0.8 19.4-10.5 18.6-21.7z"/>
							</g>
							<g id="&lt;Group&gt;">
								<g id="&lt;Group&gt;">
									<g id="&lt;Group&gt;">
										<path id="&lt;Path&gt;" class="s36" d="m486.1 436.2c0.3 4.5-3 8.3-7.5 8.7-4.4 0.3-8.3-3-8.6-7.5-0.4-4.4 3-8.3 7.4-8.6 4.5-0.4 8.3 3 8.7 7.4z"/>
									</g>
								</g>
								<path id="&lt;Path&gt;" class="s11" d="m486.1 436.2c-0.3-3.4-2.6-6.1-5.7-7.1 1.2 1.2 1.9 2.8 2 4.5 0.3 4-2.7 7.5-6.7 7.8-2 0.2-3.8-0.5-5.2-1.7 1.2 3.3 4.5 5.4 8.1 5.2 4.5-0.4 7.8-4.2 7.5-8.7z"/>
							</g>
							<g id="&lt;Group&gt;">
								<g id="&lt;Group&gt;">
									<path id="&lt;Path&gt;" class="s37" d="m410.7 177.9l-3-5.5c10.8-6 25.9-11.3 42.5-14.9 17-3.8 33.9-5.3 46.2-4.1l-0.6 6.2c-11.7-1.1-27.8 0.3-44.3 3.9-15.8 3.5-30.6 8.7-40.8 14.4z"/>
								</g>
								<g id="&lt;Group&gt;">
									<g id="&lt;Group&gt;">
										<path id="&lt;Path&gt;" class="s38" d="m492.5 171.7c4.5 20.7-8.5 41.1-29.2 45.6-20.6 4.5-41-8.5-45.6-29.2-4.5-20.6 8.6-41 29.2-45.6 20.7-4.5 41.1 8.6 45.6 29.2z"/>
										<g id="&lt;Group&gt;">
											<path id="&lt;Path&gt;" class="s39" d="m423.2 201c18.6 7.2 39.1-9.9 45.7-26.5 3.8-9.7 2.9-22-2.2-31-4.4-1.4-9-2.1-13.8-1.8 7.7 8.8 11.3 20.6 7.7 32.9-3.4 11.9-15.9 23.7-28.9 21.8-6.7-1.1-11.3-4.8-14.3-9.9q0.2 0.8 0.3 1.6c1.1 4.7 2.9 9 5.5 12.9z"/>
											<path id="&lt;Path&gt;" class="s39" d="m478.8 149.9c2.5 6.1 4.1 12.6 4.5 19.8 0.4 7.6-3.4 16-0.8 23.3 0.7 2 2 6 3.5 9.5 6.3-8.6 9-19.6 6.5-30.8-2-9-7-16.5-13.7-21.8z"/>
										</g>
										<path id="&lt;Path&gt;" class="s39" d="m466.3 197.1c-3.7 3.9-7.1 8.2-11.5 11.3-3 2-6.4 3.6-9.9 4.5-0.7 0.2-3.9 1-6.6 1.4 7.5 3.7 16.2 4.9 25 3 3-0.6 5.7-1.6 8.3-2.8 0.8-2.1 1.2-4.3 1.5-6.4 0.4-3.6 1.6-7.5 0.9-11.2-1-5.8-5.1-2.5-7.7 0.2z"/>
									</g>
									<path id="&lt;Path&gt;" class="s40" d="m460.8 142.1c11.1 4.4 19.9 14.1 22.6 26.6 4.4 20.2-8.3 40-28.4 44.5-7.5 1.6-14.9 0.9-21.5-1.7 8.4 5.7 19.1 8.2 29.8 5.8 20.7-4.5 33.7-24.9 29.2-45.6-3.5-15.9-16.5-27.3-31.7-29.6z"/>
									<path id="&lt;Path&gt;" class="s41" d="m451.2 176c-5.9 8.2-15.7 11.3-22 6.9-6.2-4.5-6.6-14.8-0.7-23 5.8-8.3 15.7-11.4 21.9-6.9 6.3 4.4 6.6 14.7 0.8 23z"/>
								</g>
								<g id="&lt;Group&gt;">
									<path id="&lt;Path&gt;" class="s37" d="m421.7 202.1q-3.5 0-6.6-0.2c-13.6-0.9-21.5-4.6-22.9-10.7-1.3-5.9 4.1-12.4 15.5-18.8l3 5.5c-9.9 5.4-12.8 9.9-12.4 12 0.5 2.4 6.1 5.1 17.2 5.8 11.6 0.7 26.6-0.7 42.2-4.1 15.6-3.5 29.8-8.4 40-13.9 9.9-5.3 13.7-10.1 13.2-12.5-0.4-2-4.7-4.7-15.1-5.6l0.6-6.2c12.4 1.1 19.3 4.6 20.6 10.5 1.3 6.1-4.3 12.7-16.3 19.2-10.8 5.8-25.6 11-41.7 14.5-13.3 3-26.3 4.5-37.3 4.5z"/>
								</g>
							</g>
						</g>
						<g id="&lt;Group&gt;">
							<g id="&lt;Group&gt;">
							</g>
						</g>
					</g>
				</g>
				<g id="&lt;Clip Group&gt;" clip-path="url(#cp3)">
				</g>
			</g>
		</g>
	</g>
	<g id="DESIGNED BY FREEPIK">
		<g id="&lt;Group&gt;">
			<g id="&lt;Group&gt;">
				<g id="&lt;Group&gt;">
					<path id="&lt;Path&gt;" class="s42" d="m201.2 765.9q-1.3 1.4-2.2 2.9l-0.9-0.4c-0.2-0.6-0.7-1.1-1.4-1-0.6 0.1-1.1 0.7-1 1.4 0.1 0.6 0.7 1.1 1.3 1q0.2 0 0.4-0.1l0.9 0.5q-0.8 1.7-1.1 3.5l1.5 0.2c0.5-2.6 1.7-5 3.6-6.9z"/>
					<path id="&lt;Path&gt;" class="s42" d="m212.2 761.3q-0.5 0-1 0.1l-0.2-1.3c0.4-0.3 0.6-0.8 0.5-1.3 0-0.8-0.8-1.3-1.5-1.2-0.8 0.1-1.4 0.8-1.3 1.6 0.1 0.5 0.4 0.9 0.8 1.1l0.2 1.2q-2.2 0.4-4.2 1.3l0.7 1.4q2.8-1.4 6-1.4 1.5 0 2.9 0.4l0.4-1.5q-1.7-0.4-3.3-0.4z"/>
					<path id="&lt;Path&gt;" class="s42" d="m225.4 766.4c0.6-0.1 1.1-0.7 1-1.3 0-0.7-0.6-1.2-1.3-1.1-0.6 0.1-1.1 0.6-1.1 1.2l-0.8 0.8q-1.3-1.3-2.8-2.3l-0.8 1.3c2.2 1.4 4 3.4 5.1 5.8l1.4-0.6q-0.8-1.7-1.9-3.1l0.8-0.7q0.2 0 0.4 0z"/>
					<path id="&lt;Path&gt;" class="s42" d="m211.1 781.7q-1.2 0.1-2.3 0.1c-1.8 0-3.5-0.1-5-0.3-0.8-0.2-1.7-0.4-2.5-0.6 2.1 3.7 6.1 6.2 10.8 6.2 5.7 0 10.5-3.8 11.9-9q-2.1 1.4-5 2.3c-2.3 0.7-5.1 1.2-7.9 1.3z"/>
					<path id="&lt;Compound Path&gt;" fill-rule="evenodd" class="s42" d="m224.2 774.8q0.1 0.5 0.1 1.1c-2.7 2.4-7.5 4-13.3 4.3-5.3 0.3-9.4-0.5-10.7-1.4q-0.3-1.3-0.3-2.6c0-6.5 5.5-11.8 12.2-11.8 6.1 0 11.3 4.4 12 10.4zm-12.6-1.1c0-2.1-1.7-3.7-3.7-3.7-2.1 0-3.7 1.6-3.7 3.7 0 2 1.6 3.7 3.7 3.7 2 0 3.7-1.7 3.7-3.7zm8.5-0.8c0-1.5-1.3-2.8-2.8-2.8-1.5 0-2.7 1.3-2.7 2.8 0 1.5 1.2 2.7 2.7 2.7 1.5 0 2.8-1.2 2.8-2.7z"/>
				</g>
				<path id="&lt;Compound Path&gt;" class="s42" d="m244.2 768.1c-0.6-0.2-1.6-0.6-2.8-0.5-1.1 0.2-1.7 0.7-1.7 2v1.8h4.5v3.4h-4.5v10.9h-3.8v-10.9h-2.7v-3.4h2.7v-1.8c0-3.4 1.8-5.6 5.1-5.6 1.3 0 2.3 0.3 3.2 0.6z"/>
				<path id="&lt;Compound Path&gt;" class="s42" d="m253.6 774.8q-0.5-0.1-1.1-0.1c-1.7 0-3 1.1-3 3.2v7.8h-3.8v-14.3h3.7v1.5c0.9-1.3 2.3-1.9 4-1.9 0.9 0 1.7 0.2 2.2 0.7z"/>
				<path id="&lt;Compound Path&gt;" fill-rule="evenodd" class="s42" d="m268.9 778.5c0 0.5 0 1 0 1.3h-10.2c0.4 2.1 1.9 3 3.7 3 1.2 0 2.6-0.5 3.6-1.4l2.3 2.5c-1.7 1.5-3.7 2.2-6.1 2.2-4.4 0-7.5-3-7.5-7.5 0-4.5 3-7.6 7.3-7.6 4.1 0 6.9 3 6.9 7.5zm-10.2-1.3h6.4c-0.4-1.9-1.5-2.9-3.2-2.9-1.8 0-2.9 1.1-3.2 2.9z"/>
				<path id="&lt;Compound Path&gt;" fill-rule="evenodd" class="s42" d="m284.2 778.5c0 0.5 0 1 0 1.3h-10.2c0.4 2.1 1.9 3 3.7 3 1.2 0 2.6-0.5 3.6-1.4l2.3 2.5c-1.7 1.5-3.7 2.2-6.1 2.2-4.4 0-7.5-3-7.5-7.5 0-4.5 3-7.6 7.3-7.6 4.1 0 6.9 3 6.9 7.5zm-10.2-1.3h6.4c-0.4-1.9-1.5-2.9-3.2-2.9-1.8 0-2.9 1.1-3.2 2.9z"/>
				<path id="&lt;Compound Path&gt;" fill-rule="evenodd" class="s42" d="m300.9 778.5c0 4.3-3 7.6-6.9 7.6-1.9 0-3.3-0.8-4.2-1.9v7.4h-3.9v-20.2h3.8v1.5c0.9-1.1 2.3-1.9 4.3-1.9 3.9 0 6.9 3.2 6.9 7.5zm-11.3 0c0 2.3 1.5 4 3.7 4 2.2 0 3.7-1.8 3.7-4 0-2.2-1.5-3.9-3.7-3.9-2.2 0-3.7 1.7-3.7 3.9z"/>
				<path id="&lt;Compound Path&gt;" class="s42" d="m307.1 766.7c0 1.4-1 2.4-2.4 2.4-1.4 0-2.5-1-2.5-2.4 0-1.4 1.1-2.5 2.5-2.5 1.4 0 2.4 1.1 2.4 2.5zm-0.5 19h-3.8v-14.3h3.8z"/>
				<path id="&lt;Compound Path&gt;" class="s42" d="m313.1 776.5l5.4-5.1h4.7l-7 6.7 7 7.6h-4.7l-5.4-5.8v5.8h-3.9v-21.3h3.9z"/>
			</g>
			<g id="&lt;Group&gt;">
				<path id="&lt;Compound Path&gt;" fill-rule="evenodd" class="s42" d="m49.8 785.6v-2.1c-1 1.4-2.8 2.4-4.8 2.4-3.6 0-6.2-2.8-6.2-7.4 0-4.5 2.5-7.4 6.2-7.4 2 0 3.7 0.9 4.8 2.5v-7.6h2.2v19.6zm0-3.9v-6.4c-0.8-1.2-2.5-2.3-4.2-2.3-2.9 0-4.6 2.4-4.6 5.5 0 3.2 1.7 5.5 4.6 5.5 1.7 0 3.4-1 4.2-2.3z"/>
				<path id="&lt;Compound Path&gt;" fill-rule="evenodd" class="s42" d="m54.9 778.5c0-4.1 2.9-7.4 6.9-7.4 4.3 0 6.8 3.3 6.8 7.6v0.5h-11.4c0.2 2.7 2 4.9 5.1 4.9 1.6 0 3.2-0.6 4.3-1.8l1.1 1.5c-1.4 1.4-3.3 2.1-5.6 2.1-4.2 0-7.2-3-7.2-7.4zm6.9-5.6c-3 0-4.5 2.5-4.6 4.7h9.3c-0.1-2.1-1.5-4.7-4.7-4.7z"/>
				<path id="&lt;Compound Path&gt;" class="s42" d="m70.2 783.7l1.2-1.6c0.9 1.1 2.7 2 4.6 2 2.2 0 3.4-1 3.4-2.4 0-3.4-8.8-1.3-8.8-6.6 0-2.1 1.9-4 5.3-4 2.4 0 4.1 0.9 5.2 2l-1 1.6c-0.9-1.1-2.4-1.8-4.2-1.8-2 0-3.2 0.9-3.2 2.2 0 3.1 8.8 1 8.8 6.6 0 2.3-1.9 4.2-5.6 4.2-2.3 0-4.3-0.7-5.7-2.2z"/>
				<path id="&lt;Compound Path&gt;" class="s42" d="m84 767.9c0-0.8 0.6-1.5 1.4-1.5 0.8 0 1.5 0.7 1.5 1.5 0 0.9-0.7 1.5-1.5 1.5-0.8 0-1.4-0.6-1.4-1.5zm0.3 17.7v-14.2h2.2v14.2z"/>
				<path id="&lt;Compound Path&gt;" fill-rule="evenodd" class="s42" d="m90.2 789.2l1.1-1.6c1.1 1.4 2.6 1.9 4.6 1.9 2.3 0 4.5-1.1 4.5-4.2v-2.1c-1 1.5-2.7 2.6-4.7 2.6-3.7 0-6.3-2.8-6.3-7.4 0-4.5 2.6-7.3 6.3-7.3 1.9 0 3.6 0.9 4.7 2.5v-2.2h2.2v13.8c0 4.7-3.3 6.1-6.7 6.1-2.4 0-4.1-0.4-5.7-2.1zm10.2-7.7v-6.2c-0.7-1.2-2.4-2.3-4.2-2.3-2.8 0-4.5 2.3-4.5 5.4 0 3.1 1.7 5.4 4.5 5.4 1.8 0 3.5-1.1 4.2-2.3z"/>
				<path id="&lt;Compound Path&gt;" class="s42" d="m115.8 785.6v-9.3c0-2.5-1.2-3.3-3.1-3.3-1.8 0-3.4 1.1-4.2 2.2v10.4h-2.2v-14.2h2.2v2.1c1-1.2 2.9-2.4 5-2.4 3 0 4.5 1.5 4.5 4.5v10z"/>
				<path id="&lt;Compound Path&gt;" fill-rule="evenodd" class="s42" d="m120.9 778.5c0-4.1 2.9-7.4 6.9-7.4 4.3 0 6.8 3.3 6.8 7.6v0.5h-11.4c0.2 2.7 2 4.9 5.1 4.9 1.6 0 3.2-0.6 4.3-1.8l1.1 1.5c-1.4 1.4-3.3 2.1-5.6 2.1-4.2 0-7.2-3-7.2-7.4zm6.9-5.6c-3 0-4.5 2.5-4.6 4.7h9.3c-0.1-2.1-1.5-4.7-4.7-4.7z"/>
				<path id="&lt;Compound Path&gt;" fill-rule="evenodd" class="s42" d="m147.7 785.6v-2.1c-1.1 1.4-2.8 2.4-4.8 2.4-3.7 0-6.3-2.8-6.3-7.4 0-4.5 2.6-7.4 6.3-7.4 1.9 0 3.7 0.9 4.8 2.5v-7.6h2.2v19.6zm0-3.9v-6.4c-0.8-1.2-2.5-2.3-4.3-2.3-2.8 0-4.5 2.4-4.5 5.5 0 3.2 1.7 5.5 4.5 5.5 1.8 0 3.5-1 4.3-2.3z"/>
				<path id="&lt;Compound Path&gt;" fill-rule="evenodd" class="s42" d="m160.4 785.6v-19.6h2.2v7.6c1.1-1.6 2.8-2.5 4.8-2.5 3.6 0 6.3 2.9 6.3 7.4 0 4.6-2.7 7.4-6.3 7.4-2 0-3.8-1-4.8-2.4v2.1zm6.4-1.6c2.9 0 4.6-2.3 4.6-5.5 0-3.1-1.7-5.5-4.6-5.5-1.7 0-3.5 1.1-4.2 2.3v6.4c0.7 1.3 2.5 2.3 4.2 2.3z"/>
				<path id="&lt;Compound Path&gt;" class="s42" d="m176.1 789.1c0.3 0.2 0.8 0.3 1.2 0.3 0.9 0 1.6-0.4 2.1-1.5l0.9-2.2-5.9-14.3h2.4l4.7 11.6 4.7-11.6h2.4l-7.1 17c-0.9 2.1-2.3 2.9-4.2 2.9-0.5 0-1.2-0.1-1.6-0.2z"/>
			</g>
		</g>
	</g>
</svg>